<svg width="148" height="28" viewBox="0 0 148 28" fill="none" xmlns="http://www.w3.org/2000/svg">
<path d="M64.5 7L59.78 21H58.22L54.12 9.06L50 21H48.46L43.74 7H45.26L49.3 19.04L53.48 7H54.86L58.98 19.1L63.08 7H64.5ZM72.5666 10.4C73.8866 10.4 74.9332 10.7867 75.7066 11.56C76.4932 12.32 76.8866 13.4333 76.8866 14.9V21H75.4666V15.04C75.4666 13.9467 75.1932 13.1133 74.6466 12.54C74.0999 11.9667 73.3199 11.68 72.3066 11.68C71.1732 11.68 70.2732 12.02 69.6066 12.7C68.9532 13.3667 68.6266 14.2933 68.6266 15.48V21H67.2066V6.16H68.6266V12.32C69.0132 11.7067 69.5466 11.2333 70.2266 10.9C70.9066 10.5667 71.6866 10.4 72.5666 10.4ZM84.4217 10.4C85.7951 10.4 86.8484 10.7467 87.5817 11.44C88.3151 12.12 88.6817 13.1333 88.6817 14.48V21H87.3217V19.36C87.0017 19.9067 86.5284 20.3333 85.9017 20.64C85.2884 20.9467 84.5551 21.1 83.7017 21.1C82.5284 21.1 81.5951 20.82 80.9017 20.26C80.2084 19.7 79.8617 18.96 79.8617 18.04C79.8617 17.1467 80.1817 16.4267 80.8217 15.88C81.4751 15.3333 82.5084 15.06 83.9217 15.06H87.2617V14.42C87.2617 13.5133 87.0084 12.8267 86.5017 12.36C85.9951 11.88 85.2551 11.64 84.2817 11.64C83.6151 11.64 82.9751 11.7533 82.3617 11.98C81.7484 12.1933 81.2217 12.4933 80.7817 12.88L80.1417 11.82C80.6751 11.3667 81.3151 11.02 82.0617 10.78C82.8084 10.5267 83.5951 10.4 84.4217 10.4ZM83.9217 19.98C84.7217 19.98 85.4084 19.8 85.9817 19.44C86.5551 19.0667 86.9817 18.5333 87.2617 17.84V16.12H83.9617C82.1617 16.12 81.2617 16.7467 81.2617 18C81.2617 18.6133 81.4951 19.1 81.9617 19.46C82.4284 19.8067 83.0817 19.98 83.9217 19.98ZM98.0786 20.36C97.8119 20.6 97.4786 20.7867 97.0786 20.92C96.6919 21.04 96.2853 21.1 95.8586 21.1C94.8719 21.1 94.1119 20.8333 93.5786 20.3C93.0453 19.7667 92.7786 19.0133 92.7786 18.04V11.68H90.8986V10.48H92.7786V8.18H94.1986V10.48H97.3986V11.68H94.1986V17.96C94.1986 18.5867 94.3519 19.0667 94.6586 19.4C94.9786 19.72 95.4319 19.88 96.0186 19.88C96.3119 19.88 96.5919 19.8333 96.8586 19.74C97.1386 19.6467 97.3786 19.5133 97.5786 19.34L98.0786 20.36ZM103.484 21.1C102.63 21.1 101.81 20.98 101.024 20.74C100.25 20.4867 99.6436 20.1733 99.2036 19.8L99.8436 18.68C100.284 19.0267 100.837 19.3133 101.504 19.54C102.17 19.7533 102.864 19.86 103.584 19.86C104.544 19.86 105.25 19.7133 105.704 19.42C106.17 19.1133 106.404 18.6867 106.404 18.14C106.404 17.7533 106.277 17.4533 106.024 17.24C105.77 17.0133 105.45 16.8467 105.064 16.74C104.677 16.62 104.164 16.5067 103.524 16.4C102.67 16.24 101.984 16.08 101.464 15.92C100.944 15.7467 100.497 15.46 100.124 15.06C99.7636 14.66 99.5836 14.1067 99.5836 13.4C99.5836 12.52 99.9503 11.8 100.684 11.24C101.417 10.68 102.437 10.4 103.744 10.4C104.424 10.4 105.104 10.4933 105.784 10.68C106.464 10.8533 107.024 11.0867 107.464 11.38L106.844 12.52C105.977 11.92 104.944 11.62 103.744 11.62C102.837 11.62 102.15 11.78 101.684 12.1C101.23 12.42 101.004 12.84 101.004 13.36C101.004 13.76 101.13 14.08 101.384 14.32C101.65 14.56 101.977 14.74 102.364 14.86C102.75 14.9667 103.284 15.08 103.964 15.2C104.804 15.36 105.477 15.52 105.984 15.68C106.49 15.84 106.924 16.1133 107.284 16.5C107.644 16.8867 107.824 17.42 107.824 18.1C107.824 19.02 107.437 19.7533 106.664 20.3C105.904 20.8333 104.844 21.1 103.484 21.1ZM114.129 10.4C115.502 10.4 116.555 10.7467 117.289 11.44C118.022 12.12 118.389 13.1333 118.389 14.48V21H117.029V19.36C116.709 19.9067 116.235 20.3333 115.609 20.64C114.995 20.9467 114.262 21.1 113.409 21.1C112.235 21.1 111.302 20.82 110.609 20.26C109.915 19.7 109.569 18.96 109.569 18.04C109.569 17.1467 109.889 16.4267 110.529 15.88C111.182 15.3333 112.215 15.06 113.629 15.06H116.969V14.42C116.969 13.5133 116.715 12.8267 116.209 12.36C115.702 11.88 114.962 11.64 113.989 11.64C113.322 11.64 112.682 11.7533 112.069 11.98C111.455 12.1933 110.929 12.4933 110.489 12.88L109.849 11.82C110.382 11.3667 111.022 11.02 111.769 10.78C112.515 10.5267 113.302 10.4 114.129 10.4ZM113.629 19.98C114.429 19.98 115.115 19.8 115.689 19.44C116.262 19.0667 116.689 18.5333 116.969 17.84V16.12H113.669C111.869 16.12 110.969 16.7467 110.969 18C110.969 18.6133 111.202 19.1 111.669 19.46C112.135 19.8067 112.789 19.98 113.629 19.98ZM127.666 10.4C128.652 10.4 129.546 10.6267 130.346 11.08C131.146 11.52 131.772 12.1467 132.226 12.96C132.679 13.7733 132.906 14.7 132.906 15.74C132.906 16.7933 132.679 17.7267 132.226 18.54C131.772 19.3533 131.146 19.9867 130.346 20.44C129.559 20.88 128.666 21.1 127.666 21.1C126.812 21.1 126.039 20.9267 125.346 20.58C124.666 20.22 124.106 19.7 123.666 19.02V24.88H122.246V10.48H123.606V12.56C124.032 11.8667 124.592 11.3333 125.286 10.96C125.992 10.5867 126.786 10.4 127.666 10.4ZM127.566 19.84C128.299 19.84 128.966 19.6733 129.566 19.34C130.166 18.9933 130.632 18.5067 130.966 17.88C131.312 17.2533 131.486 16.54 131.486 15.74C131.486 14.94 131.312 14.2333 130.966 13.62C130.632 12.9933 130.166 12.5067 129.566 12.16C128.966 11.8133 128.299 11.64 127.566 11.64C126.819 11.64 126.146 11.8133 125.546 12.16C124.959 12.5067 124.492 12.9933 124.146 13.62C123.812 14.2333 123.646 14.94 123.646 15.74C123.646 16.54 123.812 17.2533 124.146 17.88C124.492 18.5067 124.959 18.9933 125.546 19.34C126.146 19.6733 126.819 19.84 127.566 19.84ZM141.22 10.4C142.207 10.4 143.1 10.6267 143.9 11.08C144.7 11.52 145.327 12.1467 145.78 12.96C146.234 13.7733 146.46 14.7 146.46 15.74C146.46 16.7933 146.234 17.7267 145.78 18.54C145.327 19.3533 144.7 19.9867 143.9 20.44C143.114 20.88 142.22 21.1 141.22 21.1C140.367 21.1 139.594 20.9267 138.9 20.58C138.22 20.22 137.66 19.7 137.22 19.02V24.88H135.8V10.48H137.16V12.56C137.587 11.8667 138.147 11.3333 138.84 10.96C139.547 10.5867 140.34 10.4 141.22 10.4ZM141.12 19.84C141.854 19.84 142.52 19.6733 143.12 19.34C143.72 18.9933 144.187 18.5067 144.52 17.88C144.867 17.2533 145.04 16.54 145.04 15.74C145.04 14.94 144.867 14.2333 144.52 13.62C144.187 12.9933 143.72 12.5067 143.12 12.16C142.52 11.8133 141.854 11.64 141.12 11.64C140.374 11.64 139.7 11.8133 139.1 12.16C138.514 12.5067 138.047 12.9933 137.7 13.62C137.367 14.2333 137.2 14.94 137.2 15.74C137.2 16.54 137.367 17.2533 137.7 17.88C138.047 18.5067 138.514 18.9933 139.1 19.34C139.7 19.6733 140.374 19.84 141.12 19.84Z" fill="black"/>
<path d="M14.0035 0H13.9965C6.27725 0 0 6.279 0 14C0 17.0625 0.987 19.901 2.66525 22.2057L0.9205 27.4067L6.30175 25.6865C8.5155 27.153 11.1562 28 14.0035 28C21.7227 28 28 21.7192 28 14C28 6.28075 21.7227 0 14.0035 0Z" fill="#4CAF50"/>
<path d="M22.1498 19.7698C21.812 20.7236 20.4715 21.5146 19.4023 21.7456C18.6708 21.9013 17.7153 22.0256 14.4988 20.6921C10.3845 18.9876 7.73503 14.8068 7.52853 14.5356C7.33078 14.2643 5.86603 12.3218 5.86603 10.3128C5.86603 8.30382 6.88628 7.32557 7.29753 6.90557C7.63528 6.56082 8.19353 6.40332 8.72903 6.40332C8.90228 6.40332 9.05803 6.41207 9.19803 6.41907C9.60928 6.43657 9.81578 6.46107 10.087 7.11032C10.4248 7.92407 11.2473 9.93307 11.3453 10.1396C11.445 10.3461 11.5448 10.6261 11.4048 10.8973C11.2735 11.1773 11.158 11.3016 10.9515 11.5396C10.745 11.7776 10.549 11.9596 10.3425 12.2151C10.1535 12.4373 9.94003 12.6753 10.178 13.0866C10.416 13.4891 11.2385 14.8313 12.4495 15.9093C14.0123 17.3006 15.2793 17.7451 15.7325 17.9341C16.0703 18.0741 16.4728 18.0408 16.7195 17.7783C17.0328 17.4406 17.4195 16.8806 17.8133 16.3293C18.0933 15.9338 18.4468 15.8848 18.8178 16.0248C19.1958 16.1561 21.196 17.1448 21.6073 17.3496C22.0185 17.5561 22.2898 17.6541 22.3895 17.8273C22.4875 18.0006 22.4875 18.8143 22.1498 19.7698Z" fill="#FAFAFA"/>
</svg>
