<svg width="96" height="28" viewBox="0 0 96 28" fill="none" xmlns="http://www.w3.org/2000/svg">
<path d="M56.92 7L50.72 21H49.26L43.06 7H44.66L50.02 19.16L55.42 7H56.92ZM58.5933 10.48H60.0133V21H58.5933V10.48ZM59.3133 8.18C59.0199 8.18 58.7733 8.08 58.5733 7.88C58.3733 7.68 58.2733 7.44 58.2733 7.16C58.2733 6.89333 58.3733 6.66 58.5733 6.46C58.7733 6.26 59.0199 6.16 59.3133 6.16C59.6066 6.16 59.8533 6.26 60.0533 6.46C60.2533 6.64667 60.3533 6.87333 60.3533 7.14C60.3533 7.43333 60.2533 7.68 60.0533 7.88C59.8533 8.08 59.6066 8.18 59.3133 8.18ZM69.3844 10.4C70.371 10.4 71.2644 10.6267 72.0644 11.08C72.8644 11.52 73.491 12.1467 73.9444 12.96C74.3977 13.7733 74.6244 14.7 74.6244 15.74C74.6244 16.78 74.3977 17.7067 73.9444 18.52C73.491 19.3333 72.8644 19.9667 72.0644 20.42C71.2644 20.8733 70.371 21.1 69.3844 21.1C68.5044 21.1 67.711 20.9133 67.0044 20.54C66.311 20.1667 65.751 19.6267 65.3244 18.92V21H63.9644V6.16H65.3844V12.48C65.8244 11.8 66.3844 11.2867 67.0644 10.94C67.7577 10.58 68.531 10.4 69.3844 10.4ZM69.2844 19.84C70.0177 19.84 70.6844 19.6733 71.2844 19.34C71.8844 18.9933 72.351 18.5067 72.6844 17.88C73.031 17.2533 73.2044 16.54 73.2044 15.74C73.2044 14.94 73.031 14.2267 72.6844 13.6C72.351 12.9733 71.8844 12.4933 71.2844 12.16C70.6844 11.8133 70.0177 11.64 69.2844 11.64C68.5377 11.64 67.8644 11.8133 67.2644 12.16C66.6777 12.4933 66.211 12.9733 65.8644 13.6C65.531 14.2267 65.3644 14.94 65.3644 15.74C65.3644 16.54 65.531 17.2533 65.8644 17.88C66.211 18.5067 66.6777 18.9933 67.2644 19.34C67.8644 19.6733 68.5377 19.84 69.2844 19.84ZM86.6791 16.18H77.8791C77.9591 17.2733 78.3791 18.16 79.1391 18.84C79.8991 19.5067 80.8591 19.84 82.0191 19.84C82.6724 19.84 83.2724 19.7267 83.8191 19.5C84.3657 19.26 84.8391 18.9133 85.2391 18.46L86.0391 19.38C85.5724 19.94 84.9857 20.3667 84.2791 20.66C83.5857 20.9533 82.8191 21.1 81.9791 21.1C80.8991 21.1 79.9391 20.8733 79.0991 20.42C78.2724 19.9533 77.6257 19.3133 77.1591 18.5C76.6924 17.6867 76.4591 16.7667 76.4591 15.74C76.4591 14.7133 76.6791 13.7933 77.1191 12.98C77.5724 12.1667 78.1857 11.5333 78.9591 11.08C79.7457 10.6267 80.6257 10.4 81.5991 10.4C82.5724 10.4 83.4457 10.6267 84.2191 11.08C84.9924 11.5333 85.5991 12.1667 86.0391 12.98C86.4791 13.78 86.6991 14.7 86.6991 15.74L86.6791 16.18ZM81.5991 11.62C80.5857 11.62 79.7324 11.9467 79.0391 12.6C78.3591 13.24 77.9724 14.08 77.8791 15.12H85.3391C85.2457 14.08 84.8524 13.24 84.1591 12.6C83.4791 11.9467 82.6257 11.62 81.5991 11.62ZM90.9494 12.54C91.2827 11.8333 91.776 11.3 92.4294 10.94C93.096 10.58 93.916 10.4 94.8894 10.4V11.78L94.5494 11.76C93.4427 11.76 92.576 12.1 91.9494 12.78C91.3227 13.46 91.0094 14.4133 91.0094 15.64V21H89.5894V10.48H90.9494V12.54Z" fill="black"/>
<path d="M28 14C28 21.7321 21.7321 28 14 28C6.26791 28 0 21.7321 0 14C0 6.26791 6.26791 0 14 0C21.7321 0 28 6.26791 28 14Z" fill="#9330B2"/>
<path d="M15.87 4.79443H12.1299C8.3804 4.79443 5.33008 7.84476 5.33008 11.5943V14.1934C5.33008 15.9851 6.0564 17.7116 7.31015 18.9786V22.4124C7.31015 22.7503 7.49045 23.0624 7.7829 23.2316C7.92944 23.3162 8.09287 23.3585 8.25629 23.3585C8.4195 23.3585 8.5827 23.3164 8.72882 23.232L12.6123 20.9933H15.87C19.6195 20.9933 22.6699 17.9429 22.6699 14.1934V11.5943C22.6699 7.84476 19.6195 4.79443 15.87 4.79443ZM21.2219 14.2998C21.2219 17.1525 18.8879 19.4868 16.0349 19.4868H12.9876L8.20908 22.4124V17.866C7.32404 16.9344 6.77802 15.6783 6.77802 14.3V11.4877C6.77802 8.63495 9.11206 6.3009 11.9648 6.3009H16.0349C18.8877 6.3009 21.2219 8.63495 21.2219 11.4877V14.2998Z" fill="white"/>
<path d="M15.8703 4.79443H14V6.3009H16.0352C18.8877 6.3009 21.2217 8.63495 21.2217 11.4875V14.3C21.2217 17.1527 18.8877 19.4868 16.0352 19.4868H14V20.9933H15.8703C19.6196 20.9933 22.6701 17.9427 22.6701 14.1934V11.5943C22.6701 7.84454 19.6196 4.79443 15.8703 4.79443Z" fill="#FFF5CB"/>
<path d="M13.0107 8.98646C12.9921 8.96809 12.9763 8.9463 12.9639 8.92152C12.9028 8.79869 12.9528 8.64958 13.0757 8.58827C14.3918 7.93266 16.1339 8.29753 17.3118 9.47545C18.4893 10.6529 18.8544 12.3942 18.1994 13.7099C18.1383 13.8327 17.9892 13.8827 17.8661 13.8216C17.7433 13.7605 17.6933 13.6114 17.7544 13.4886C18.3156 12.3613 17.989 10.8555 16.9604 9.82664C15.9314 8.79762 14.4249 8.47142 13.2972 9.03325C13.1991 9.08195 13.0842 9.05995 13.0107 8.98646Z" fill="white"/>
<path d="M18.1994 13.7101C18.1385 13.8325 17.989 13.8827 17.8664 13.8218C17.7435 13.7603 17.6933 13.6114 17.7546 13.4884C18.3156 12.3611 17.9888 10.8557 16.9604 9.82667C16.1339 9.00016 14.9991 8.62717 14 8.80384V8.30097C15.1339 8.13349 16.3939 8.55775 17.3118 9.47526C18.4893 10.6532 18.8544 12.3944 18.1994 13.7101Z" fill="#FFF5CB"/>
<path d="M13.5751 10.0802C13.5553 10.0601 13.5384 10.0366 13.5258 10.0097C13.4675 9.88534 13.5211 9.73752 13.6454 9.67941C14.5501 9.25622 15.6919 9.50573 16.4866 10.3004C17.2811 11.0951 17.531 12.2361 17.1084 13.1401C17.0501 13.2644 16.9023 13.3181 16.778 13.2599C16.6539 13.2018 16.6002 13.0538 16.6581 12.9297C16.9927 12.2145 16.7825 11.2991 16.1352 10.6518C15.4879 10.0045 14.5721 9.79455 13.856 10.1295C13.7586 10.175 13.6469 10.1519 13.5751 10.0802Z" fill="white"/>
<path d="M17.1082 13.1399C17.0501 13.2641 16.9023 13.3177 16.7782 13.2596C16.6541 13.2015 16.5998 13.0536 16.6579 12.9295C16.9927 12.2141 16.7827 11.2989 16.1356 10.6519C15.5306 10.0471 14.6917 9.82365 14 10.0702V9.55064C14.834 9.32826 15.7932 9.6064 16.4866 10.3005C17.2815 11.0947 17.5308 12.2361 17.1082 13.1399Z" fill="#FFF5CB"/>
<path d="M14.1333 11.1718C14.1092 11.1478 14.0897 11.1184 14.0769 11.0844C14.0282 10.9562 14.0927 10.8127 14.2209 10.764C14.6981 10.5828 15.2644 10.7236 15.6637 11.1228C16.063 11.5221 16.2042 12.0882 16.0232 12.5648C15.9747 12.6932 15.8312 12.7577 15.703 12.709C15.5746 12.6603 15.5101 12.517 15.5588 12.3886C15.6686 12.0989 15.5695 11.7315 15.3123 11.4743C15.0553 11.2171 14.6874 11.1184 14.3973 11.2286C14.3029 11.2643 14.2004 11.2388 14.1333 11.1718Z" fill="white"/>
<path d="M14.1333 11.1718C14.1092 11.1478 14.0897 11.1184 14.0769 11.0844C14.0282 10.9562 14.0927 10.8127 14.2209 10.764C14.6981 10.5828 15.2644 10.7236 15.6637 11.1228C16.063 11.5221 16.2042 12.0882 16.0232 12.5648C15.9747 12.6932 15.8312 12.7577 15.703 12.709C15.5746 12.6603 15.5101 12.517 15.5588 12.3886C15.6686 12.0989 15.5695 11.7315 15.3123 11.4743C15.0553 11.2171 14.6874 11.1184 14.3973 11.2286C14.3029 11.2643 14.2004 11.2388 14.1333 11.1718Z" fill="#FFF5CB"/>
<path d="M12.3398 10.7364L10.615 9.01158C10.3958 8.79261 10.0862 8.74113 9.92689 8.90028L9.76026 9.06712C8.94764 9.87953 8.79725 11.0641 9.45734 11.869C10.2766 12.8675 11.1881 13.8792 12.0644 14.7219C12.9071 15.5982 13.9189 16.5097 14.9173 17.329C15.7223 17.9891 16.9068 17.8387 17.7192 17.0263L17.8861 16.8594C18.0452 16.7003 17.9937 16.3905 17.7745 16.1716L16.0497 14.4468C15.6404 14.0373 15.3704 14.0939 15.2111 14.253C15.2111 14.253 14.9936 14.4741 14.9539 14.5198V14.5192C14.7988 14.6745 14.4059 14.7091 14.0511 14.487C13.7281 14.2844 13.3938 13.9905 13.0934 13.6929C12.7958 13.3926 12.5019 13.0582 12.2994 12.7352C12.0772 12.3804 12.1118 11.9876 12.2671 11.8325H12.2665C12.3122 11.7927 12.5333 11.5753 12.5333 11.5753C12.6927 11.4159 12.7491 11.1459 12.3398 10.7364Z" fill="white"/>
<path d="M17.8862 16.8591L17.7192 17.0262C16.9068 17.8386 15.722 17.9887 14.9173 17.3287C14.611 17.0776 14.3036 16.8175 14 16.5523V14.4539C14.0169 14.4652 14.0344 14.4759 14.0513 14.4868C14.4057 14.709 14.799 14.674 14.954 14.5189V14.5202C14.9936 14.4738 15.2112 14.2531 15.2112 14.2531C15.3704 14.0935 15.6406 14.0371 16.0497 14.4467L17.7745 16.1715C17.9935 16.3904 18.0454 16.7002 17.8862 16.8591Z" fill="#FFF5CB"/>
</svg>
