<svg width="145" height="46" viewBox="0 0 145 46" fill="none" xmlns="http://www.w3.org/2000/svg">
<path d="M35.5318 7.398C37.6187 7.398 39.3105 5.7419 39.3105 3.699C39.3105 1.6561 37.6187 0 35.5318 0C33.4449 0 31.7531 1.6561 31.7531 3.699C31.7531 5.7419 33.4449 7.398 35.5318 7.398Z" fill="#8AFF7D"/>
<path d="M6.92972 0.120605C7.17397 0.120605 7.37132 0.31379 7.37132 0.552895V26.9669C7.37132 31.1378 8.07011 34.0846 9.4677 35.8058C11.4735 38.2777 14.8332 39.5128 19.5452 39.5128C24.7522 39.5128 28.3708 38.0671 30.4008 35.1756C31.415 33.7188 31.923 30.7957 31.923 26.4032V12.7409C31.923 12.5018 32.1203 12.3086 32.3646 12.3086H38.8527C39.0969 12.3086 39.2943 12.5018 39.2943 12.7409V26.4032C39.2943 30.3318 39.0694 33.2343 38.6181 35.1091C37.7155 38.8604 35.1808 41.7296 31.009 43.7153C27.8305 45.2386 23.7154 45.9987 18.6669 45.9987C14.136 45.9987 10.5288 45.2814 7.84527 43.8467C4.32865 41.9719 1.99448 39.1248 0.845995 35.3055C0.281459 33.4322 0 30.6516 0 26.9669V0.552895C0 0.31379 0.197345 0.120605 0.4416 0.120605H6.92972Z" fill="#8AFF7D"/>
<path d="M59.2099 28.6213L46.6203 12.9307C46.4052 12.6631 46.6009 12.2704 46.9487 12.2704H54.0062C54.1388 12.2704 54.2618 12.3321 54.341 12.435L63.448 24.422L81.9644 0.163098C82.0437 0.0601721 82.1666 0 82.2977 0H89.14C89.4862 0 89.6803 0.387952 89.47 0.655559L67.5615 28.6198L81.1524 45.3318C81.3708 45.5994 81.1751 45.9952 80.8257 45.9952H73.7617C73.6323 45.9952 73.5094 45.9351 73.4301 45.8353L63.427 33.0076L53.123 45.8416C53.0437 45.9398 52.9224 45.9984 52.7946 45.9984H45.9425C45.5931 45.9984 45.399 45.6025 45.6158 45.3349L59.2099 28.6213Z" fill="#8AFF7D"/>
<path d="M91.2332 45.5662V12.7043C91.2332 12.4652 91.4306 12.272 91.6748 12.272H98.1629C98.4072 12.272 98.6045 12.4652 98.6045 12.7043V45.5646C98.6045 45.8037 98.4072 45.9969 98.1629 45.9969H91.6748C91.4306 45.9984 91.2332 45.8037 91.2332 45.5662Z" fill="#4F4F4F"/>
<path d="M121.191 6.57486H106.079C105.835 6.57486 105.638 6.38167 105.638 6.14257V0.552895C105.638 0.31379 105.835 0.120605 106.079 0.120605H144.558C144.803 0.120605 145 0.31379 145 0.552895V6.14257C145 6.38167 144.803 6.57486 144.558 6.57486H129.447C129.203 6.57486 129.005 6.76804 129.005 7.00715V45.5506C129.005 45.7897 128.808 45.9829 128.564 45.9829H122.076C121.831 45.9829 121.634 45.7897 121.634 45.5506V7.00715C121.632 6.76804 121.435 6.57486 121.191 6.57486Z" fill="#4F4F4F"/>
</svg>
