<svg width="140" height="133" viewBox="0 0 140 133" fill="none" xmlns="http://www.w3.org/2000/svg">
<path d="M140 24.8859H0V4.14771C0 1.85697 1.67147 0 3.73339 0H136.267C138.329 0 140 1.85697 140 4.14771V24.8859Z" fill="#3A556A"/>
<path d="M140 24.8859H63.4667L74.86 10.4201C75.9234 9.06995 77.4598 8.29541 79.0744 8.29541H140V24.8859Z" fill="#0B8D33"/>
<path d="M134.4 133H5.60008C2.50706 133 0 130.214 0 126.778V24.8859H140V126.778C140 130.214 137.493 133 134.4 133Z" fill="url(#paint0_linear)"/>
<path d="M17.3805 18.6655C20.4734 18.6655 22.9806 15.8801 22.9806 12.444C22.9806 9.0079 20.4734 6.22241 17.3805 6.22241C14.2877 6.22241 11.7805 9.0079 11.7805 12.444C11.7805 15.8801 14.2877 18.6655 17.3805 18.6655Z" fill="#FCD462"/>
<path d="M34.1805 18.6655C37.2733 18.6655 39.7805 15.8801 39.7805 12.444C39.7805 9.0079 37.2733 6.22241 34.1805 6.22241C31.0876 6.22241 28.5804 9.0079 28.5804 12.444C28.5804 15.8801 31.0876 18.6655 34.1805 18.6655Z" fill="#E1E6E9"/>
<path d="M50.9805 18.6655C54.0733 18.6655 56.5805 15.8801 56.5805 12.444C56.5805 9.0079 54.0733 6.22241 50.9805 6.22241C47.8876 6.22241 45.3804 9.0079 45.3804 12.444C45.3804 15.8801 47.8876 18.6655 50.9805 18.6655Z" fill="#27A2DB"/>
<path d="M43.3804 39.6855H13.7805C12.6759 39.6855 11.7805 40.581 11.7805 41.6855V75.0143C11.7805 76.1188 12.6759 77.0143 13.7805 77.0143H43.3804C44.4849 77.0143 45.3804 76.1188 45.3804 75.0143V41.6855C45.3804 40.581 44.4849 39.6855 43.3804 39.6855Z" fill="#4CA892"/>
<path d="M84.5999 39.6855H55C53.8954 39.6855 53 40.581 53 41.6855V75.0143C53 76.1188 53.8954 77.0143 55 77.0143H84.5999C85.7045 77.0143 86.5999 76.1188 86.5999 75.0143V41.6855C86.5999 40.581 85.7045 39.6855 84.5999 39.6855Z" fill="#4CA892"/>
<path d="M125.6 39.6855H96C94.8954 39.6855 94 40.581 94 41.6855V75.0143C94 76.1188 94.8954 77.0143 96 77.0143H125.6C126.704 77.0143 127.6 76.1188 127.6 75.0143V41.6855C127.6 40.581 126.704 39.6855 125.6 39.6855Z" fill="#4CA892"/>
<path d="M43.3804 85.9318H13.7805C12.6759 85.9318 11.7805 86.8272 11.7805 87.9318V95.6136C11.7805 96.7182 12.6759 97.6136 13.7805 97.6136H43.3804C44.4849 97.6136 45.3804 96.7182 45.3804 95.6136V87.9318C45.3804 86.8272 44.4849 85.9318 43.3804 85.9318Z" fill="#1C75A1"/>
<path d="M43.3804 106.525H13.7805C12.6759 106.525 11.7805 107.42 11.7805 108.525V116.207C11.7805 117.311 12.6759 118.207 13.7805 118.207H43.3804C44.4849 118.207 45.3804 117.311 45.3804 116.207V108.525C45.3804 107.42 44.4849 106.525 43.3804 106.525Z" fill="#1C75A1"/>
<path d="M126 85.3867H55C53.8954 85.3867 53 86.2821 53 87.3867V87.8306C53 88.9352 53.8954 89.8306 55 89.8306H126C127.105 89.8306 128 88.9352 128 87.8306V87.3867C128 86.2821 127.105 85.3867 126 85.3867Z" fill="white"/>
<path d="M126 93.1636H55C53.8954 93.1636 53 94.059 53 95.1636V95.6075C53 96.7121 53.8954 97.6075 55 97.6075H126C127.105 97.6075 128 96.7121 128 95.6075V95.1636C128 94.059 127.105 93.1636 126 93.1636Z" fill="white"/>
<path d="M126 106.495H55C53.8954 106.495 53 107.391 53 108.495V108.939C53 110.044 53.8954 110.939 55 110.939H126C127.105 110.939 128 110.044 128 108.939V108.495C128 107.391 127.105 106.495 126 106.495Z" fill="white"/>
<path d="M126 114.272H55C53.8954 114.272 53 115.168 53 116.272V116.716C53 117.821 53.8954 118.716 55 118.716H126C127.105 118.716 128 117.821 128 116.716V116.272C128 115.168 127.105 114.272 126 114.272Z" fill="white"/>
<defs>
<linearGradient id="paint0_linear" x1="46.4194" y1="101.833" x2="106.269" y2="0.420231" gradientUnits="userSpaceOnUse">
<stop stop-color="#DBFF00"/>
<stop offset="1" stop-color="#00FF47" stop-opacity="0.62"/>
</linearGradient>
</defs>
</svg>
