<svg width="140" height="133" viewBox="0 0 140 133" fill="none" xmlns="http://www.w3.org/2000/svg">
<path d="M0 11.9456C0 8.07957 3.13401 4.94556 7 4.94556H133C136.866 4.94556 140 8.07956 140 11.9456V126C140 129.866 136.866 133 133 133H7C3.13401 133 0 129.866 0 126V11.9456Z" fill="url(#paint0_linear)"/>
<path d="M50 106.861V118.225C50 119.882 51.3431 121.225 53 121.225H123C124.657 121.225 126 119.882 126 118.225V37.4864C126 35.8296 124.657 34.4865 123 34.4865H53C51.3431 34.4865 50 35.8296 50 37.4865V75.2052V106.861Z" fill="#4CA892"/>
<path d="M97.0408 43.0823C99.7596 43.0823 99.7643 38.6665 97.0408 38.6665C94.322 38.6668 94.3174 43.0823 97.0408 43.0823Z" fill="white"/>
<path d="M104.429 43.0823C107.148 43.0823 107.153 38.6665 104.429 38.6665C101.711 38.6668 101.706 43.0823 104.429 43.0823Z" fill="white"/>
<path d="M111.818 43.0823C114.537 43.0823 114.541 38.6665 111.818 38.6665C109.099 38.6668 109.094 43.0823 111.818 43.0823Z" fill="white"/>
<path d="M119.207 43.0823C121.925 43.0823 121.93 38.6665 119.207 38.6665C116.488 38.6668 116.483 43.0823 119.207 43.0823Z" fill="white"/>
<path d="M97.0408 50.5499C99.7596 50.5499 99.7643 46.1342 97.0408 46.1342C94.322 46.1342 94.3174 50.5499 97.0408 50.5499Z" fill="white"/>
<path d="M104.429 50.5499C107.148 50.5499 107.153 46.1342 104.429 46.1342C101.711 46.1342 101.706 50.5499 104.429 50.5499Z" fill="white"/>
<path d="M111.818 50.5499C114.537 50.5499 114.541 46.1342 111.818 46.1342C109.099 46.1342 109.094 50.5499 111.818 50.5499Z" fill="white"/>
<path d="M119.207 50.5499C121.925 50.5499 121.93 46.1342 119.207 46.1342C116.488 46.1342 116.483 50.5499 119.207 50.5499Z" fill="white"/>
<path d="M70 93.8229H17.1831C16.0163 93.8229 15.0705 94.8113 15.0705 96.0306C15.0705 97.2499 16.0163 98.2383 17.1831 98.2383H70C71.1668 98.2383 72.1126 97.2499 72.1126 96.0306C72.1126 94.8113 71.1668 93.8229 70 93.8229Z" fill="white"/>
<path d="M17.1831 87.304H70C71.1668 87.304 72.1126 86.3156 72.1126 85.0963C72.1126 83.877 71.1668 82.8885 70 82.8885H17.1831C16.0163 82.8885 15.0705 83.877 15.0705 85.0963C15.0705 86.3156 16.0163 87.304 17.1831 87.304Z" fill="white"/>
<path d="M37.6056 104.758H17.1831C16.0163 104.758 15.0705 105.746 15.0705 106.965C15.0705 108.185 16.0163 109.173 17.1831 109.173H37.6056C38.7723 109.173 39.7182 108.185 39.7182 106.965C39.7184 105.746 38.7723 104.758 37.6056 104.758Z" fill="white"/>
<path d="M17.1831 51.4572H29.8591C31.0258 51.4572 31.9717 50.4688 31.9717 49.2495C31.9717 48.0302 31.0258 47.0417 29.8591 47.0417H17.1831C16.0163 47.0417 15.0705 48.0302 15.0705 49.2495C15.0705 50.4688 16.0163 51.4572 17.1831 51.4572Z" fill="#1C75A1"/>
<path d="M9.69637 15.5676C12.5109 15.5676 12.5155 11.1519 9.69637 11.1519C6.88161 11.1519 6.87696 15.5676 9.69637 15.5676Z" fill="white"/>
<path d="M17.255 15.5676C20.0695 15.5676 20.0741 11.1519 17.255 11.1519C14.4405 11.1519 14.4359 15.5676 17.255 15.5676Z" fill="white"/>
<path d="M24.8137 15.5676C27.6282 15.5676 27.6328 11.1519 24.8137 11.1519C21.9992 11.1519 21.9945 15.5676 24.8137 15.5676Z" fill="white"/>
<path d="M140 23.409H0V3.90155C0 1.74676 1.67147 0 3.73339 0H136.267C138.329 0 140 1.74676 140 3.90155V23.409Z" fill="#3A556A"/>
<path d="M140 23.409H63.4667L74.86 9.80167C75.9234 8.53167 77.4598 7.8031 79.0744 7.8031H140V23.409Z" fill="#0B8D33"/>
<path d="M17.3805 17.5577C20.4734 17.5577 22.9806 14.9375 22.9806 11.7053C22.9806 8.4732 20.4734 5.85303 17.3805 5.85303C14.2877 5.85303 11.7805 8.4732 11.7805 11.7053C11.7805 14.9375 14.2877 17.5577 17.3805 17.5577Z" fill="#FCD462"/>
<path d="M34.1805 17.5577C37.2733 17.5577 39.7805 14.9375 39.7805 11.7053C39.7805 8.4732 37.2733 5.85303 34.1805 5.85303C31.0876 5.85303 28.5804 8.4732 28.5804 11.7053C28.5804 14.9375 31.0876 17.5577 34.1805 17.5577Z" fill="#E1E6E9"/>
<path d="M50.9805 17.5577C54.0733 17.5577 56.5805 14.9375 56.5805 11.7053C56.5805 8.4732 54.0733 5.85303 50.9805 5.85303C47.8876 5.85303 45.3804 8.4732 45.3804 11.7053C45.3804 14.9375 47.8876 17.5577 50.9805 17.5577Z" fill="#27A2DB"/>
<defs>
<linearGradient id="paint0_linear" x1="46.4194" y1="96.085" x2="122.467" y2="-12.7097" gradientUnits="userSpaceOnUse">
<stop stop-color="#DBFF00"/>
<stop offset="1" stop-color="#00FF47" stop-opacity="0.62"/>
</linearGradient>
</defs>
</svg>
