<svg width="140" height="133" viewBox="0 0 140 133" fill="none" xmlns="http://www.w3.org/2000/svg">
<path d="M0 11.9456C0 8.07957 3.13401 4.94556 7 4.94556H133C136.866 4.94556 140 8.07956 140 11.9456V126C140 129.866 136.866 133 133 133H7C3.13401 133 0 129.866 0 126V11.9456Z" fill="url(#paint0_linear)"/>
<path d="M11 113.43V117.18C11 118.837 12.3431 120.18 14 120.18H44C45.6569 120.18 47 118.837 47 117.18V82.4231C47 80.7662 45.6569 79.4231 44 79.4231H14C12.3431 79.4231 11 80.7662 11 82.4231V98.556V113.43Z" fill="#4CA892"/>
<path d="M52 113.43V117.18C52 118.837 53.3431 120.18 55 120.18H85C86.6569 120.18 88 118.837 88 117.18V82.4231C88 80.7662 86.6569 79.4231 85 79.4231H55C53.3431 79.4231 52 80.7662 52 82.4231V98.556V113.43Z" fill="#4CA892"/>
<path d="M93 113.43V117.18C93 118.837 94.3431 120.18 96 120.18H126C127.657 120.18 129 118.837 129 117.18V82.4231C129 80.7662 127.657 79.4231 126 79.4231H96C94.3431 79.4231 93 80.7662 93 82.4231V98.556V113.43Z" fill="#4CA892"/>
<path d="M62.4188 118.024C64.3089 118.024 64.3122 114.955 62.4188 114.955C60.5287 114.955 60.5254 118.024 62.4188 118.024Z" fill="white"/>
<path d="M67.5554 118.024C69.4455 118.024 69.4488 114.955 67.5554 114.955C65.6653 114.955 65.662 118.024 67.5554 118.024Z" fill="white"/>
<path d="M72.692 118.024C74.5821 118.024 74.5854 114.955 72.692 114.955C70.8019 114.955 70.7986 118.024 72.692 118.024Z" fill="white"/>
<path d="M124.953 47.0715C127.554 47.0715 127.558 42.8467 124.953 42.8467C122.351 42.847 122.347 47.0715 124.953 47.0715Z" fill="white"/>
<path d="M124.953 59.6119C127.554 59.6119 127.558 55.3871 124.953 55.3871C122.351 55.3874 122.347 59.6119 124.953 59.6119Z" fill="white"/>
<path d="M77.8286 118.024C79.7187 118.024 79.722 114.955 77.8286 114.955C75.9385 114.955 75.9352 118.024 77.8286 118.024Z" fill="white"/>
<path d="M125.022 40.8012C127.623 40.8012 127.627 36.5764 125.022 36.5764C122.42 36.5767 122.416 40.8012 125.022 40.8012Z" fill="white"/>
<path d="M125.022 53.3417C127.623 53.3417 127.627 49.1169 125.022 49.1169C122.42 49.1172 122.416 53.3417 125.022 53.3417Z" fill="white"/>
<path d="M95.9295 60.3816H43.1126C41.9458 60.3816 41 61.37 41 62.5893C41 63.8086 41.9458 64.7971 43.1126 64.7971H95.9295C97.0963 64.7971 98.0421 63.8086 98.0421 62.5893C98.0421 61.37 97.0963 60.3816 95.9295 60.3816Z" fill="white"/>
<path d="M43.1126 53.8626H95.9295C97.0963 53.8626 98.0421 52.8742 98.0421 51.6549C98.0421 50.4356 97.0963 49.4471 95.9295 49.4471H43.1126C41.9458 49.4471 41 50.4356 41 51.6549C41 52.8742 41.9458 53.8626 43.1126 53.8626Z" fill="white"/>
<path d="M77.4645 38.6665H57.042C55.8753 38.6665 54.9294 39.6549 54.9294 40.8742C54.9294 42.0935 55.8753 43.082 57.042 43.082H77.4645C78.6313 43.082 79.5771 42.0935 79.5771 40.8742C79.5774 39.6552 78.6313 38.6665 77.4645 38.6665Z" fill="white"/>
<path d="M83.1126 75.4783H95.7886C96.9554 75.4783 97.9012 74.4899 97.9012 73.2706C97.9012 72.0513 96.9554 71.0629 95.7886 71.0629H83.1126C81.9458 71.0629 81 72.0513 81 73.2706C81 74.4899 81.9458 75.4783 83.1126 75.4783Z" fill="#1C75A1"/>
<path d="M13.1126 43.082H25.7886C26.9554 43.082 27.9012 42.0935 27.9012 40.8742C27.9012 39.6549 26.9554 38.6665 25.7886 38.6665H13.1126C11.9458 38.6665 11 39.6549 11 40.8742C11 42.0935 11.9458 43.082 13.1126 43.082Z" fill="#1C75A1"/>
<path d="M9.69631 15.5676C12.5108 15.5676 12.5155 11.1519 9.69631 11.1519C6.88155 11.1519 6.8769 15.5676 9.69631 15.5676Z" fill="white"/>
<path d="M17.2549 15.5676C20.0694 15.5676 20.0741 11.1519 17.2549 11.1519C14.4405 11.1519 14.4358 15.5676 17.2549 15.5676Z" fill="white"/>
<path d="M24.8137 15.5676C27.6282 15.5676 27.6328 11.1519 24.8137 11.1519C21.9992 11.1519 21.9945 15.5676 24.8137 15.5676Z" fill="white"/>
<path d="M140 23.409H0V3.90155C0 1.74676 1.67147 0 3.73339 0H136.267C138.329 0 140 1.74676 140 3.90155V23.409Z" fill="#3A556A"/>
<path d="M140 23.409H63.4668L74.8601 9.80167C75.9235 8.53167 77.4598 7.8031 79.0745 7.8031H140V23.409Z" fill="#0B8D33"/>
<path d="M17.3806 17.5577C20.4734 17.5577 22.9807 14.9375 22.9807 11.7053C22.9807 8.4732 20.4734 5.85303 17.3806 5.85303C14.2878 5.85303 11.7805 8.4732 11.7805 11.7053C11.7805 14.9375 14.2878 17.5577 17.3806 17.5577Z" fill="#FCD462"/>
<path d="M34.1804 17.5577C37.2732 17.5577 39.7805 14.9375 39.7805 11.7053C39.7805 8.4732 37.2732 5.85303 34.1804 5.85303C31.0876 5.85303 28.5803 8.4732 28.5803 11.7053C28.5803 14.9375 31.0876 17.5577 34.1804 17.5577Z" fill="#E1E6E9"/>
<path d="M50.9805 17.5577C54.0733 17.5577 56.5805 14.9375 56.5805 11.7053C56.5805 8.4732 54.0733 5.85303 50.9805 5.85303C47.8876 5.85303 45.3804 8.4732 45.3804 11.7053C45.3804 14.9375 47.8876 17.5577 50.9805 17.5577Z" fill="#27A2DB"/>
<defs>
<linearGradient id="paint0_linear" x1="46.4194" y1="96.085" x2="122.467" y2="-12.7097" gradientUnits="userSpaceOnUse">
<stop stop-color="#DBFF00"/>
<stop offset="1" stop-color="#00FF47" stop-opacity="0.62"/>
</linearGradient>
</defs>
</svg>
