<svg width="140" height="133" viewBox="0 0 140 133" fill="none" xmlns="http://www.w3.org/2000/svg">
<g clip-path="url(#clip0)">
<path d="M132.155 133.034H7.84492C3.51203 133.034 0 129.522 0 125.19V22H140V125.19C140 129.522 136.488 133.034 132.155 133.034Z" fill="url(#paint0_linear)"/>
<path d="M58 34H14C12.8954 34 12 34.8954 12 36V78C12 79.1046 12.8954 80 14 80H58C59.1046 80 60 79.1046 60 78V36C60 34.8954 59.1046 34 58 34Z" fill="#4CA892"/>
<path d="M100.053 38H65.9474C65.4244 38 65 37.106 65 36C65 34.894 65.4244 34 65.9474 34H100.053C100.576 34 101 34.894 101 36C101 37.106 100.576 38 100.053 38Z" fill="white"/>
<path d="M109.789 52H66.2106C65.5423 52 65 51.106 65 50C65 48.894 65.5423 48 66.2106 48H109.789C110.458 48 111 48.894 111 50C111 51.106 110.458 52 109.789 52Z" fill="white"/>
<path d="M129.579 52H114.421C114.189 52 114 51.106 114 50C114 48.894 114.189 48 114.421 48H129.579C129.811 48 130 48.894 130 50C130 51.106 129.811 52 129.579 52Z" fill="white"/>
<path d="M128.289 59H66.7106C65.7664 59 65 58.106 65 57C65 55.894 65.7664 55 66.7106 55H128.289C129.234 55 130 55.894 130 57C130 58.106 129.234 59 128.289 59Z" fill="white"/>
<path d="M95.1842 66H65.8158C65.3655 66 65 65.106 65 64C65 62.894 65.3655 62 65.8158 62H95.1842C95.6345 62 96 62.894 96 64C96 65.106 95.6345 66 95.1842 66Z" fill="white"/>
<path d="M129.184 66H99.8158C99.3655 66 99 65.106 99 64C99 62.894 99.3655 62 99.8158 62H129.184C129.635 62 130 62.894 130 64C130 65.106 129.635 66 129.184 66Z" fill="white"/>
<path d="M129.605 73H115.395C115.177 73 115 72.106 115 71C115 69.894 115.177 69 115.395 69H129.605C129.823 69 130 69.894 130 71C130 72.106 129.823 73 129.605 73Z" fill="white"/>
<path d="M110.763 73H66.2369C65.5541 73 65 72.106 65 71C65 69.894 65.5541 69 66.2369 69H110.763C111.446 69 112 69.894 112 71C112 72.106 111.446 73 110.763 73Z" fill="white"/>
<path d="M72.7895 80H65.2105C65.0943 80 65 79.106 65 78C65 76.894 65.0943 76 65.2105 76H72.7895C72.9057 76 73 76.894 73 78C73 79.106 72.9057 80 72.7895 80Z" fill="white"/>
<path d="M128.553 80H76.4474C75.6485 80 75 79.106 75 78C75 76.894 75.6485 76 76.4474 76H128.553C129.352 76 130 76.894 130 78C130 79.106 129.352 80 128.553 80Z" fill="white"/>
<path d="M35.5 56.5C36.7432 56.5 37.9355 56.0061 38.8146 55.1271C39.6936 54.248 40.1875 53.0557 40.1875 51.8125C40.1875 50.5693 39.6936 49.377 38.8146 48.4979C37.9355 47.6189 36.7432 47.125 35.5 47.125C34.2568 47.125 33.0645 47.6189 32.1854 48.4979C31.3064 49.377 30.8125 50.5693 30.8125 51.8125C30.8125 53.0557 31.3064 54.248 32.1854 55.1271C33.0645 56.0061 34.2568 56.5 35.5 56.5ZM38.625 51.8125C38.625 52.6413 38.2958 53.4362 37.7097 54.0222C37.1237 54.6083 36.3288 54.9375 35.5 54.9375C34.6712 54.9375 33.8763 54.6083 33.2903 54.0222C32.7042 53.4362 32.375 52.6413 32.375 51.8125C32.375 50.9837 32.7042 50.1888 33.2903 49.6028C33.8763 49.0167 34.6712 48.6875 35.5 48.6875C36.3288 48.6875 37.1237 49.0167 37.7097 49.6028C38.2958 50.1888 38.625 50.9837 38.625 51.8125ZM44.875 64.3125C44.875 65.875 43.3125 65.875 43.3125 65.875H27.6875C27.6875 65.875 26.125 65.875 26.125 64.3125C26.125 62.75 27.6875 58.0625 35.5 58.0625C43.3125 58.0625 44.875 62.75 44.875 64.3125ZM43.3125 64.3062C43.3109 63.9219 43.0719 62.7656 42.0125 61.7062C40.9938 60.6875 39.0766 59.625 35.5 59.625C31.9219 59.625 30.0063 60.6875 28.9875 61.7062C27.9281 62.7656 27.6906 63.9219 27.6875 64.3062H43.3125Z" fill="white"/>
<path d="M13 91C13 89.8954 13.8954 89 15 89H36C37.1046 89 38 89.8954 38 91V96C38 97.1046 37.1046 98 36 98H15C13.8954 98 13 97.1046 13 96V91Z" fill="#1C75A1"/>
<path d="M59 100C59 98.8954 59.8954 98 61 98H87C88.1046 98 89 98.8954 89 100V116C89 117.105 88.1046 118 87 118H61C59.8954 118 59 117.105 59 116V100Z" fill="#1C75A1"/>
<path d="M100 100C100 98.8954 100.895 98 102 98H128C129.105 98 130 98.8954 130 100V116C130 117.105 129.105 118 128 118H102C100.895 118 100 117.105 100 116V100Z" fill="#1C75A1"/>
<path d="M13 104C13 102.895 13.8954 102 15 102H36C37.1046 102 38 102.895 38 104V109C38 110.105 37.1046 111 36 111H15C13.8954 111 13 110.105 13 109V104Z" fill="#1C75A1"/>
<path d="M13 117C13 115.895 13.8954 115 15 115H36C37.1046 115 38 115.895 38 117V122C38 123.105 37.1046 124 36 124H15C13.8954 124 13 123.105 13 122V117Z" fill="#1C75A1"/>
</g>
<path d="M140 22.4H0V3.73339C0 1.67148 1.67147 0 3.73339 0H136.267C138.329 0 140 1.67148 140 3.73339V22.4Z" fill="#3A556A"/>
<path d="M140 22.4H63.4668L74.8601 9.37923C75.9235 8.16397 77.4598 7.4668 79.0745 7.4668H140V22.4Z" fill="#0B8D33"/>
<path d="M17.3806 16.801C20.4734 16.801 22.9807 14.2938 22.9807 11.2009C22.9807 8.10807 20.4734 5.60083 17.3806 5.60083C14.2878 5.60083 11.7805 8.10807 11.7805 11.2009C11.7805 14.2938 14.2878 16.801 17.3806 16.801Z" fill="#FCD462"/>
<path d="M34.1804 16.801C37.2732 16.801 39.7805 14.2938 39.7805 11.2009C39.7805 8.10807 37.2732 5.60083 34.1804 5.60083C31.0876 5.60083 28.5803 8.10807 28.5803 11.2009C28.5803 14.2938 31.0876 16.801 34.1804 16.801Z" fill="#E1E6E9"/>
<path d="M50.9805 16.801C54.0733 16.801 56.5805 14.2938 56.5805 11.2009C56.5805 8.10807 54.0733 5.60083 50.9805 5.60083C47.8876 5.60083 45.3804 8.10807 45.3804 11.2009C45.3804 14.2938 47.8876 16.801 50.9805 16.801Z" fill="#27A2DB"/>
<defs>
<linearGradient id="paint0_linear" x1="46.4194" y1="101.026" x2="108.666" y2="-1.67393" gradientUnits="userSpaceOnUse">
<stop stop-color="#DBFF00"/>
<stop offset="1" stop-color="#00FF47" stop-opacity="0.62"/>
</linearGradient>
<clipPath id="clip0">
<rect width="140" height="111" fill="white" transform="translate(0 22)"/>
</clipPath>
</defs>
</svg>
