<svg width="28" height="28" viewBox="0 0 28 28" fill="none" xmlns="http://www.w3.org/2000/svg">
<path d="M24.5 5.83321L3.50002 5.83321C3.28741 5.83388 3.079 5.89252 2.89723 6.00282C2.71547 6.11312 2.56722 6.2709 2.46846 6.45919C2.3697 6.64747 2.32416 6.85913 2.33674 7.07137C2.34932 7.28362 2.41954 7.48841 2.53986 7.66371L13.0399 22.8304C13.475 23.4592 14.5227 23.4592 14.959 22.8304L25.459 7.66371C25.5806 7.48878 25.6518 7.28388 25.6651 7.07128C25.6784 6.85869 25.6331 6.64652 25.5343 6.45784C25.4354 6.26915 25.2867 6.11117 25.1044 6.00104C24.9221 5.89092 24.713 5.83288 24.5 5.83321Z" fill="#71FF6D"/>
</svg>
