<svg width="198" height="65" viewBox="0 0 198 65" fill="none" xmlns="http://www.w3.org/2000/svg">
<path d="M48.5193 10.4537C51.369 10.4537 53.6791 8.11356 53.6791 5.22685C53.6791 2.34014 51.369 0 48.5193 0C45.6696 0 43.3594 2.34014 43.3594 5.22685C43.3594 8.11356 45.6696 10.4537 48.5193 10.4537Z" fill="#8AFF7D"/>
<path d="M9.46265 0.170052C9.79618 0.170052 10.0657 0.443029 10.0657 0.780895V38.105C10.0657 43.9986 11.0199 48.1627 12.9283 50.5948C15.6673 54.0876 20.255 55.8329 26.6894 55.8329C33.7996 55.8329 38.7408 53.79 41.5128 49.7043C42.8978 47.6458 43.5914 43.5153 43.5914 37.3084V18.0031C43.5914 17.6652 43.8608 17.3923 44.1944 17.3923H53.054C53.3875 17.3923 53.657 17.6652 53.657 18.0031V37.3084C53.657 42.8597 53.35 46.9611 52.7337 49.6103C51.5012 54.911 48.04 58.9654 42.3434 61.7713C38.003 63.9238 32.3837 64.9978 25.49 64.9978C19.303 64.9978 14.3773 63.9842 10.7129 61.957C5.91084 59.3078 2.72349 55.2847 1.15522 49.8878C0.384337 47.2408 0 43.3117 0 38.105V0.780895C0 0.443029 0.269478 0.170052 0.603012 0.170052H9.46265Z" fill="#8AFF7D"/>
<path d="M80.8522 40.4432L63.6608 18.2716C63.3671 17.8935 63.6343 17.3386 64.1092 17.3386H73.7464C73.9275 17.3386 74.0954 17.4258 74.2036 17.5713L86.6393 34.5093L111.924 0.230465C112.032 0.0850258 112.2 0 112.379 0H121.722C122.195 0 122.46 0.548193 122.173 0.926334L92.2564 40.441L110.815 64.0558C111.113 64.4339 110.846 64.9933 110.369 64.9933H100.723C100.546 64.9933 100.378 64.9083 100.27 64.7673L86.6106 46.6411L72.5404 64.7762C72.4321 64.915 72.2665 64.9978 72.092 64.9978H62.7353C62.2582 64.9978 61.9932 64.4384 62.2892 64.0602L80.8522 40.4432Z" fill="#8AFF7D"/>
<path d="M124.581 64.3869V17.9516C124.581 17.6138 124.85 17.3408 125.184 17.3408H134.043C134.377 17.3408 134.646 17.6138 134.646 17.9516V64.3847C134.646 64.7225 134.377 64.9955 134.043 64.9955H125.184C124.85 64.9978 124.581 64.7225 124.581 64.3869Z" fill="#4F4F4F"/>
<path d="M165.488 9.29019H144.853C144.52 9.29019 144.25 9.01721 144.25 8.67935V0.780895C144.25 0.443029 144.52 0.170052 144.853 0.170052H197.397C197.73 0.170052 198 0.443029 198 0.780895V8.67935C198 9.01721 197.73 9.29019 197.397 9.29019H176.762C176.428 9.29019 176.159 9.56317 176.159 9.90104V64.3646C176.159 64.7024 175.89 64.9754 175.556 64.9754H166.696C166.363 64.9754 166.093 64.7024 166.093 64.3646V9.90104C166.091 9.56317 165.822 9.29019 165.488 9.29019Z" fill="#4F4F4F"/>
</svg>
