<svg width="24" height="19" viewBox="0 0 24 19" fill="none" xmlns="http://www.w3.org/2000/svg">
<path d="M22.5 0.833212L1.50002 0.83321C1.28741 0.833876 1.079 0.892517 0.897234 1.00282C0.715467 1.11312 0.567224 1.2709 0.468462 1.45919C0.369697 1.64747 0.324155 1.85913 0.336736 2.07137C0.349315 2.28362 0.419542 2.48841 0.539855 2.66371L11.0399 17.8304C11.475 18.4592 12.5227 18.4592 12.959 17.8304L23.459 2.66371C23.5806 2.48878 23.6518 2.28388 23.6651 2.07128C23.6784 1.85869 23.6331 1.64652 23.5343 1.45784C23.4354 1.26915 23.2867 1.11117 23.1044 1.00104C22.9221 0.890922 22.713 0.832876 22.5 0.833212Z" fill="#71FF6D"/>
</svg>
