<svg width="35" height="35" viewBox="0 0 35 35" fill="none" xmlns="http://www.w3.org/2000/svg">
<path d="M35 17.5C35 27.1651 27.1651 35 17.5 35C7.83489 35 0 27.1651 0 17.5C0 7.83489 7.83489 0 17.5 0C27.1651 0 35 7.83489 35 17.5Z" fill="#9330B2"/>
<path d="M19.8375 5.99295H15.1624C10.4755 5.99295 6.66261 9.80585 6.66261 14.4927V17.7417C6.66261 19.9813 7.57051 22.1394 9.1377 23.7231V28.0153C9.1377 28.4378 9.36308 28.8279 9.72864 29.0394C9.91182 29.1451 10.1161 29.198 10.3204 29.198C10.5244 29.198 10.7284 29.1454 10.911 29.0399L15.7654 26.2415H19.8375C24.5244 26.2415 28.3373 22.4286 28.3373 17.7417V14.4927C28.3373 9.80585 24.5244 5.99295 19.8375 5.99295ZM26.5274 17.8747C26.5274 21.4406 23.6099 24.3584 20.0437 24.3584H16.2345L10.2614 28.0153V22.3324C9.15506 21.1679 8.47253 19.5978 8.47253 17.8749V14.3595C8.47253 10.7936 11.3901 7.87604 14.956 7.87604H20.0437C23.6096 7.87604 26.5274 10.7936 26.5274 14.3595V17.8747Z" fill="white"/>
<path d="M19.8378 5.99295H17.5V7.87604H20.044C23.6096 7.87604 26.5272 10.7936 26.5272 14.3592V17.8749C26.5272 21.4408 23.6096 24.3584 20.044 24.3584H17.5V26.2415H19.8378C24.5245 26.2415 28.3376 22.4283 28.3376 17.7417V14.4927C28.3376 9.80559 24.5245 5.99295 19.8378 5.99295Z" fill="#FFF5CB"/>
<path d="M16.2634 11.2329C16.2402 11.2099 16.2204 11.1827 16.2049 11.1517C16.1286 10.9982 16.191 10.8118 16.3446 10.7352C17.9897 9.91565 20.1674 10.3717 21.6398 11.8441C23.1116 13.316 23.568 15.4925 22.7493 17.1372C22.6729 17.2907 22.4865 17.3532 22.3327 17.2768C22.1792 17.2005 22.1167 17.0141 22.193 16.8605C22.8945 15.4514 22.4862 13.5691 21.2005 12.2831C19.9142 10.9968 18.0311 10.5891 16.6215 11.2914C16.4989 11.3523 16.3553 11.3248 16.2634 11.2329Z" fill="white"/>
<path d="M22.7493 17.1374C22.6732 17.2904 22.4862 17.3532 22.333 17.2771C22.1794 17.2002 22.1167 17.0141 22.1933 16.8603C22.8945 15.4512 22.486 13.5694 21.2005 12.2831C20.1674 11.25 18.7489 10.7838 17.5 11.0046V10.376C18.9174 10.1667 20.4923 10.697 21.6398 11.8439C23.1116 13.3163 23.568 15.4928 22.7493 17.1374Z" fill="#FFF5CB"/>
<path d="M16.9689 12.6C16.944 12.5749 16.9229 12.5455 16.9072 12.5119C16.8343 12.3565 16.9013 12.1717 17.0567 12.099C18.1876 11.5701 19.6149 11.882 20.6082 12.8753C21.6013 13.8686 21.9137 15.2949 21.3855 16.4249C21.3126 16.5803 21.1278 16.6474 20.9724 16.5747C20.8173 16.5021 20.7503 16.317 20.8226 16.1619C21.2408 15.2679 20.978 14.1237 20.1689 13.3146C19.3598 12.5055 18.2151 12.243 17.32 12.6617C17.1982 12.7186 17.0586 12.6897 16.9689 12.6Z" fill="white"/>
<path d="M21.3853 16.425C21.3126 16.5802 21.1279 16.6472 20.9727 16.5746C20.8176 16.5019 20.7497 16.3171 20.8224 16.162C21.2408 15.2677 20.9783 14.1238 20.1695 13.3149C19.4133 12.559 18.3646 12.2797 17.5 12.5878V11.9384C18.5425 11.6604 19.7414 12.0081 20.6082 12.8757C21.6018 13.8685 21.9135 15.2952 21.3853 16.425Z" fill="#FFF5CB"/>
<path d="M17.6666 13.965C17.6365 13.9351 17.6122 13.8982 17.5961 13.8558C17.5353 13.6956 17.6159 13.5161 17.7761 13.4552C18.3727 13.2288 19.0806 13.4048 19.5796 13.9038C20.0787 14.4029 20.2552 15.1105 20.029 15.7063C19.9684 15.8668 19.789 15.9474 19.6288 15.8865C19.4683 15.8256 19.3876 15.6465 19.4485 15.486C19.5858 15.1239 19.4619 14.6646 19.1404 14.3431C18.8191 14.0216 18.3593 13.8982 17.9967 14.036C17.8787 14.0806 17.7505 14.0488 17.6666 13.965Z" fill="white"/>
<path d="M17.6666 13.965C17.6365 13.9351 17.6122 13.8982 17.5961 13.8558C17.5353 13.6956 17.6159 13.5161 17.7761 13.4552C18.3727 13.2288 19.0806 13.4048 19.5796 13.9038C20.0787 14.4029 20.2552 15.1105 20.029 15.7063C19.9684 15.8668 19.789 15.9474 19.6288 15.8865C19.4683 15.8256 19.3876 15.6465 19.4485 15.486C19.5858 15.1239 19.4619 14.6646 19.1404 14.3431C18.8191 14.0216 18.3593 13.8982 17.9967 14.036C17.8787 14.0806 17.7505 14.0488 17.6666 13.965Z" fill="#FFF5CB"/>
<path d="M15.4247 13.4204L13.2687 11.2644C12.9947 10.9907 12.6078 10.9263 12.4086 11.1252L12.2003 11.3338C11.1845 12.3493 10.9965 13.83 11.8216 14.8361C12.8457 16.0842 13.9851 17.3489 15.0805 18.4023C16.1339 19.4977 17.3985 20.6371 18.6466 21.6611C19.6528 22.4863 21.1335 22.2983 22.149 21.2828L22.3575 21.0742C22.5565 20.8753 22.4921 20.4881 22.2181 20.2144L20.0622 18.0584C19.5505 17.5465 19.213 17.6172 19.0138 17.8162C19.0138 17.8162 18.742 18.0926 18.6923 18.1497V18.1489C18.4984 18.343 18.0074 18.3863 17.5638 18.1086C17.1601 17.8554 16.7422 17.488 16.3667 17.116C15.9948 16.7406 15.6273 16.3227 15.3742 15.9189C15.0965 15.4754 15.1397 14.9843 15.3339 14.7905H15.3331C15.3902 14.7408 15.6666 14.469 15.6666 14.469C15.8658 14.2698 15.9363 13.9322 15.4247 13.4204Z" fill="white"/>
<path d="M22.3578 21.0739L22.149 21.2828C21.1335 22.2983 19.6525 22.486 18.6466 21.6609C18.2637 21.3471 17.8794 21.0219 17.5 20.6905V18.0675C17.5211 18.0816 17.543 18.095 17.5641 18.1086C18.0071 18.3863 18.4987 18.3425 18.6926 18.1486V18.1502C18.742 18.0923 19.0141 17.8164 19.0141 17.8164C19.213 17.617 19.5508 17.5465 20.0621 18.0584L22.2181 20.2144C22.4918 20.4881 22.5567 20.8753 22.3578 21.0739Z" fill="#FFF5CB"/>
</svg>
