<svg width="35" height="35" viewBox="0 0 35 35" fill="none" xmlns="http://www.w3.org/2000/svg">
<path d="M17.5044 0H17.4956C7.84656 0 0 7.84875 0 17.5C0 21.3281 1.23375 24.8762 3.33156 27.7572L1.15062 34.2584L7.87719 32.1081C10.6444 33.9412 13.9453 35 17.5044 35C27.1534 35 35 27.1491 35 17.5C35 7.85094 27.1534 0 17.5044 0Z" fill="#4CAF50"/>
<path d="M27.6872 24.7122C27.265 25.9044 25.5894 26.8931 24.2528 27.1819C23.3385 27.3766 22.1441 27.5319 18.1235 25.865C12.9806 23.7344 9.66877 18.5084 9.41065 18.1694C9.16346 17.8303 7.33252 15.4022 7.33252 12.8909C7.33252 10.3797 8.60783 9.15689 9.1219 8.63189C9.54408 8.20095 10.2419 8.00407 10.9113 8.00407C11.1278 8.00407 11.3225 8.01501 11.4975 8.02376C12.0116 8.04564 12.2697 8.07626 12.6088 8.88782C13.031 9.90501 14.0591 12.4163 14.1816 12.6744C14.3063 12.9325 14.431 13.2825 14.256 13.6216C14.0919 13.9716 13.9475 14.1269 13.6894 14.4244C13.4313 14.7219 13.1863 14.9494 12.9281 15.2688C12.6919 15.5466 12.425 15.8441 12.7225 16.3581C13.02 16.8613 14.0481 18.5391 15.5619 19.8866C17.5153 21.6256 19.0991 22.1813 19.6656 22.4175C20.0878 22.5925 20.591 22.5509 20.8994 22.2228C21.291 21.8006 21.7744 21.1006 22.2666 20.4116C22.6166 19.9172 23.0585 19.8559 23.5222 20.0309C23.9947 20.195 26.495 21.4309 27.0091 21.6869C27.5231 21.945 27.8622 22.0675 27.9869 22.2841C28.1094 22.5006 28.1094 23.5178 27.6872 24.7122Z" fill="#FAFAFA"/>
</svg>
