<svg width="624" height="558" viewBox="0 0 624 558" fill="none" xmlns="http://www.w3.org/2000/svg">
<g clip-path="url(#clip0)">
<path d="M528.57 323.475C514.524 315.367 503.133 295.747 503.133 279.641C503.133 273.674 504.708 269.044 507.4 265.987C499.691 266.536 494.471 272.997 494.471 283.868C494.471 299.974 505.862 319.594 519.908 327.702C528.735 332.79 536.482 332.095 541.042 326.897C537.361 327.153 533.112 326.092 528.57 323.475Z" fill="#72B5E8"/>
<path d="M553.293 318.167C553.293 316.154 553.11 314.085 552.854 311.999L563.127 310.699C562.083 305.52 560.49 300.304 558.476 295.143L546.755 291.61C544.704 287.236 542.25 282.99 539.467 279.037L542.269 267.232C538.789 262.894 535.035 258.922 531.043 255.408L524.743 263.553C523.058 262.29 521.355 261.1 519.597 260.075C517.839 259.069 516.136 258.282 514.451 257.605L508.151 242.176C504.159 241.078 500.405 240.712 496.926 241.041L499.727 256.085C496.944 256.818 494.49 258.227 492.439 260.24L480.718 250.265C478.686 253.084 477.111 256.47 476.067 260.441L486.341 273.601C486.084 275.376 485.901 277.243 485.901 279.256C485.901 281.269 486.084 283.338 486.341 285.424L476.067 286.723C477.111 291.903 478.704 297.119 480.718 302.28L492.439 305.813C494.49 310.187 496.944 314.433 499.727 318.386L496.926 330.191C500.405 334.529 504.159 338.501 508.151 342.015L514.451 333.87C516.136 335.133 517.839 336.323 519.597 337.348C521.355 338.354 523.058 339.141 524.743 339.818L531.043 355.247C535.035 356.345 538.789 356.711 542.269 356.382L539.467 341.337C542.25 340.605 544.704 339.196 546.755 337.183L558.476 347.158C560.509 344.339 562.083 340.953 563.127 336.982L552.854 323.822C553.11 322.029 553.293 320.18 553.293 318.167ZM519.927 327.702C505.881 319.594 494.49 299.974 494.49 283.868C494.49 267.762 505.881 261.265 519.927 269.373C533.973 277.481 545.364 297.101 545.364 313.207C545.364 329.313 533.973 335.81 519.927 327.702Z" fill="#A8CFF0"/>
<path d="M524.304 251.949L517.986 236.539L508.151 242.194L514.451 257.605L524.304 251.949Z" fill="#72B5E8"/>
<path d="M514.451 257.605C516.136 258.282 517.839 259.069 519.597 260.075C521.355 261.082 523.058 262.272 524.743 263.553L531.043 255.408C531.043 255.408 529.981 254.731 529.431 254.42C527.673 253.413 525.97 252.626 524.285 251.949L514.451 257.605Z" fill="#D1EBFF"/>
<path d="M517.986 236.539C513.993 235.441 510.239 235.093 506.76 235.404L496.907 241.059C500.387 240.73 504.141 241.096 508.133 242.194L517.986 236.539Z" fill="#D1EBFF"/>
<path d="M552.121 261.576C548.642 257.239 544.887 253.267 540.895 249.753L531.043 255.408C535.017 258.904 538.789 262.894 542.269 267.232L552.121 261.576Z" fill="#D1EBFF"/>
<path d="M542.269 267.232L539.467 279.037L549.319 273.381L552.121 261.576L542.269 267.232Z" fill="#72B5E8"/>
<path d="M539.467 279.037C542.25 282.99 544.704 287.218 546.755 291.61L556.608 285.955C554.557 281.581 552.103 277.334 549.319 273.381L539.467 279.037Z" fill="#72B5E8"/>
<path d="M546.755 291.61L558.476 295.143L568.328 289.487L556.608 285.955L546.755 291.61Z" fill="#D1EBFF"/>
<path d="M558.476 295.143C560.509 300.286 562.084 305.52 563.127 310.699L572.98 305.044C571.936 299.865 570.343 294.648 568.328 289.487L558.476 295.143Z" fill="#72B5E8"/>
<path d="M499.727 256.104L498.903 251.73L490.571 244.628L480.718 250.284L492.439 260.258C494.49 258.245 496.944 256.836 499.727 256.104Z" fill="#72B5E8"/>
<path d="M563.127 336.982C562.084 340.953 560.49 344.357 558.476 347.158L568.328 341.502C570.361 338.684 571.936 335.298 572.98 331.326L563.127 336.982Z" fill="#72B5E8"/>
<path d="M562.706 318.167C562.962 316.392 563.146 314.525 563.146 312.511C563.146 311.926 563.109 311.322 563.072 310.718L552.854 312.017C553.11 314.104 553.293 316.172 553.293 318.185C553.293 320.198 553.11 322.065 552.854 323.841L562.706 318.167Z" fill="#72B5E8"/>
<path d="M552.854 323.822L563.127 336.982L572.98 331.326L562.706 318.167L552.854 323.822Z" fill="#D1EBFF"/>
<path d="M546.755 337.183C544.704 339.196 542.25 340.605 539.467 341.338L542.269 356.382L552.121 350.727L550.125 340.056L546.755 337.183Z" fill="#72B5E8"/>
<path d="M485.974 280.922L476.067 286.742L486.341 285.442C486.157 283.923 486.048 282.422 485.974 280.922Z" fill="#D1EBFF"/>
<path d="M514.451 333.889L508.151 342.033L518.077 336.396C516.85 335.609 515.641 334.785 514.451 333.889Z" fill="#72B5E8"/>
<path d="M498.537 256.781L498.5 256.635C498.024 256.818 497.585 257.037 497.127 257.257C497.603 257.092 498.061 256.909 498.537 256.781Z" fill="white"/>
<path d="M485.095 285.625L476.561 286.705C476.598 286.87 476.635 287.035 476.671 287.199L485.15 286.12C485.132 285.955 485.114 285.79 485.095 285.625Z" fill="white"/>
<path d="M541.719 267.872L538.917 279.677C541.701 283.63 544.155 287.858 546.206 292.251L557.926 295.783C559.886 300.761 561.424 305.831 562.468 310.846L563.622 310.663C562.578 305.483 560.985 300.267 558.97 295.106L547.25 291.574C545.199 287.199 542.745 282.953 539.961 279L542.763 267.195C539.284 262.857 535.529 258.886 531.537 255.372L531.153 256.671C534.907 260.021 538.441 263.773 541.719 267.872Z" fill="white"/>
<path d="M520.018 327.501C505.972 319.393 494.581 299.773 494.581 283.667C494.581 276.548 496.816 271.331 500.515 268.421C496.248 271.167 493.629 276.639 493.629 284.363C493.629 300.469 505.02 320.089 519.066 328.197C526.153 332.296 532.563 332.644 537.178 329.935C536.83 330.045 536.482 330.1 536.134 330.192C531.72 331.784 526.117 331.033 520.018 327.501Z" fill="white"/>
<path d="M541.371 340.825C543.056 340.221 544.613 339.361 546.004 338.226L545.565 337.86C544.32 339.086 542.891 340.056 541.371 340.825Z" fill="white"/>
<path d="M492.072 260.533C491.651 260.551 492.072 260.204 492.512 259.856L481.231 250.247C480.92 250.686 480.627 251.181 481.158 251.235L492.072 260.533Z" fill="white"/>
<path d="M539.192 342.015L541.884 356.419C541.573 356.4 542.177 356.4 542.782 356.345L539.998 341.447C539.43 341.649 538.862 341.85 539.192 342.015Z" fill="white"/>
<path d="M553.788 318.112C553.788 316.263 553.623 314.36 553.403 312.457L552.377 312.53C552.634 314.616 552.817 316.684 552.817 318.698C552.817 320.711 552.634 322.578 552.377 324.353L562.651 337.512C561.772 340.843 560.49 343.772 558.897 346.297L558.97 347.121C561.003 344.303 562.578 340.917 563.622 336.945L553.348 323.786C553.604 321.992 553.788 320.125 553.788 318.112Z" fill="white"/>
<path d="M507.712 242.597L514.011 258.026C515.696 258.703 517.399 259.49 519.157 260.496C520.915 261.503 522.619 262.693 524.303 263.974L524.505 263.004C523.058 261.942 521.593 260.917 520.073 260.057C518.315 259.05 516.612 258.264 514.927 257.586L508.627 242.158C504.635 241.059 500.881 240.712 497.401 241.023L497.53 241.663C500.496 241.59 504.415 241.682 507.712 242.597Z" fill="white"/>
<path d="M513.242 334.566L507.968 341.374C508.188 341.575 508.408 341.795 508.627 341.978L513.975 335.078C513.737 334.913 513.499 334.749 513.242 334.566Z" fill="white"/>
<path d="M524.926 202.606C503.793 190.417 486.67 160.895 486.67 136.663C486.67 127.677 489.051 120.722 493.098 116.11C481.506 116.952 473.668 126.652 473.668 143.014C473.668 167.246 490.791 196.768 511.924 208.957C525.201 216.608 536.848 215.564 543.697 207.731C538.148 208.152 531.757 206.541 524.926 202.606Z" fill="#72B5E8"/>
<path d="M562.102 194.608C562.102 191.57 561.845 188.477 561.442 185.347L576.899 183.389C575.324 175.61 572.943 167.74 569.885 159.999L552.268 154.673C549.191 148.084 545.492 141.715 541.298 135.766L545.528 117.995C540.309 111.479 534.65 105.476 528.662 100.223L519.176 112.486C516.649 110.582 514.067 108.789 511.429 107.27C508.792 105.751 506.21 104.561 503.683 103.554L494.197 80.347C488.208 78.6998 482.55 78.1507 477.331 78.6449L481.561 101.285C477.367 102.383 473.668 104.488 470.591 107.526L452.974 92.518C449.916 96.7458 447.535 101.87 445.96 107.819L461.416 127.622C461.032 130.294 460.757 133.112 460.757 136.132C460.757 139.171 461.014 142.264 461.416 145.393L445.96 147.352C447.535 155.13 449.916 163 452.974 170.742L470.591 176.068C473.668 182.657 477.367 189.026 481.561 194.974L477.331 212.746C482.55 219.261 488.208 225.264 494.197 230.517L503.683 218.255C506.21 220.158 508.792 221.952 511.429 223.471C514.067 224.99 516.649 226.18 519.176 227.186L528.662 250.393C534.65 252.041 540.309 252.59 545.528 252.096L541.298 229.456C545.492 228.358 549.191 226.253 552.268 223.215L569.885 238.222C572.943 233.995 575.324 228.87 576.899 222.922L561.442 203.119C561.827 200.447 562.102 197.628 562.102 194.608ZM511.906 208.957C490.772 196.768 473.65 167.246 473.65 143.014C473.65 118.782 490.772 109.027 511.906 121.216C533.039 133.405 550.162 162.927 550.162 187.159C550.162 211.391 533.039 221.146 511.906 208.957Z" fill="#A8CFF0"/>
<path d="M518.498 95.0254L509.012 71.8181L494.197 80.3287L503.665 103.536L518.498 95.0254Z" fill="#72B5E8"/>
<path d="M503.665 103.536C506.192 104.543 508.774 105.732 511.411 107.251C514.048 108.77 516.63 110.564 519.158 112.468L528.644 100.205C528.644 100.205 527.032 99.1984 526.226 98.7225C523.589 97.2034 521.007 96.0138 518.48 95.0072L503.665 103.536Z" fill="#D1EBFF"/>
<path d="M509.012 71.8182C503.024 70.1709 497.365 69.6219 492.146 70.116L477.331 78.6266C482.55 78.1324 488.209 78.6815 494.197 80.3287L509.012 71.8182Z" fill="#D1EBFF"/>
<path d="M560.362 109.484C555.143 102.969 549.484 96.9655 543.496 91.7127L528.68 100.223C534.669 105.476 540.328 111.479 545.547 117.995L560.362 109.484Z" fill="#D1EBFF"/>
<path d="M545.529 117.995L541.317 135.766L556.132 127.256L560.362 109.484L545.529 117.995Z" fill="#72B5E8"/>
<path d="M541.317 135.766C545.51 141.715 549.209 148.084 552.286 154.673L567.101 146.162C564.025 139.573 560.325 133.204 556.132 127.256L541.317 135.766Z" fill="#72B5E8"/>
<path d="M552.286 154.654L569.903 159.98L584.719 151.488L567.101 146.162L552.286 154.654Z" fill="#D1EBFF"/>
<path d="M569.903 159.98C572.961 167.722 575.342 175.592 576.917 183.371L591.732 174.86C590.157 167.082 587.777 159.212 584.718 151.47L569.903 159.98Z" fill="#72B5E8"/>
<path d="M481.543 101.267L480.316 94.6777L467.771 83.9892L452.956 92.4998L470.573 107.508C473.65 104.469 477.349 102.365 481.543 101.267Z" fill="#72B5E8"/>
<path d="M576.899 222.922C575.324 228.888 572.943 233.995 569.885 238.223L584.7 229.712C587.758 225.484 590.139 220.359 591.714 214.411L576.899 222.922Z" fill="#72B5E8"/>
<path d="M576.258 194.608C576.642 191.936 576.917 189.117 576.917 186.098C576.917 185.201 576.862 184.304 576.807 183.389L561.443 185.329C561.827 188.459 562.102 191.57 562.102 194.59C562.102 197.628 561.845 200.428 561.443 203.1L576.258 194.608Z" fill="#72B5E8"/>
<path d="M561.443 203.119L576.899 222.922L591.732 214.411L576.258 194.608L561.443 203.119Z" fill="#D1EBFF"/>
<path d="M552.286 223.215C549.209 226.253 545.51 228.358 541.317 229.456L545.547 252.096L560.362 243.585L557.377 227.534L552.286 223.215Z" fill="#72B5E8"/>
<path d="M460.849 138.603L445.942 147.352L461.398 145.393C461.123 143.106 460.94 140.854 460.849 138.603Z" fill="#D1EBFF"/>
<path d="M503.665 218.255L494.179 230.517L509.104 222.025C507.272 220.854 505.459 219.609 503.665 218.255Z" fill="#72B5E8"/>
<path d="M479.729 102.291L479.693 102.072C478.979 102.346 478.319 102.658 477.642 103.005C478.319 102.731 479.015 102.474 479.729 102.291Z" fill="white"/>
<path d="M459.53 145.65L446.693 147.278C446.748 147.535 446.803 147.773 446.858 148.029L459.603 146.418C459.567 146.162 459.548 145.906 459.53 145.65Z" fill="white"/>
<path d="M544.704 118.946L540.474 136.718C544.668 142.666 548.367 149.035 551.444 155.624L569.061 160.95C572.009 168.454 574.317 176.068 575.892 183.59L577.631 183.297C576.056 175.519 573.676 167.649 570.617 159.907L553 154.581C549.924 147.992 546.224 141.623 542.031 135.675L546.261 117.903C541.042 111.388 535.383 105.384 529.395 100.132L528.809 102.09C534.449 107.142 539.778 112.815 544.704 118.946Z" fill="white"/>
<path d="M512.034 208.664C490.9 196.475 473.778 166.953 473.778 142.721C473.778 132.014 477.129 124.181 482.696 119.77C476.268 123.906 472.331 132.142 472.331 143.746C472.331 167.978 489.454 197.5 510.587 209.689C521.245 215.839 530.896 216.388 537.837 212.306C537.324 212.471 536.793 212.563 536.262 212.691C529.651 215.107 521.227 213.972 512.034 208.664Z" fill="white"/>
<path d="M544.155 228.705C546.701 227.79 549.026 226.491 551.132 224.807L550.473 224.258C548.605 226.088 546.462 227.552 544.155 228.705Z" fill="white"/>
<path d="M470.005 107.91C469.364 107.947 470.005 107.416 470.664 106.885L453.707 92.4265C453.23 93.0854 452.791 93.8175 453.597 93.909L470.005 107.91Z" fill="white"/>
<path d="M540.895 230.481L544.943 252.151C544.466 252.132 545.4 252.114 546.279 252.041L542.104 229.62C541.262 229.95 540.401 230.261 540.895 230.481Z" fill="white"/>
<path d="M562.834 194.535C562.834 191.753 562.596 188.898 562.248 186.024L560.71 186.134C561.095 189.264 561.369 192.375 561.369 195.395C561.369 198.433 561.113 201.234 560.71 203.906L576.166 223.709C574.848 228.742 572.907 233.116 570.526 236.923L570.617 238.149C573.676 233.921 576.056 228.797 577.631 222.849L562.175 203.046C562.578 200.373 562.834 197.573 562.834 194.535Z" fill="white"/>
<path d="M493.538 80.9327L503.024 104.14C505.551 105.147 508.133 106.336 510.77 107.855C513.407 109.374 515.989 111.168 518.517 113.071L518.81 111.607C516.63 109.997 514.415 108.478 512.162 107.178C509.525 105.659 506.943 104.469 504.416 103.463L494.929 80.2555C488.941 78.6083 483.282 78.0592 478.063 78.5534L478.246 79.5234C482.696 79.4136 488.575 79.5783 493.538 80.9327Z" fill="white"/>
<path d="M501.87 219.28L493.94 229.529C494.27 229.822 494.6 230.151 494.929 230.444L502.95 220.067C502.603 219.792 502.236 219.554 501.87 219.28Z" fill="white"/>
<path d="M530.567 70.116C530.677 67.6635 532.361 66.602 534.321 67.7367C536.28 68.8715 537.782 71.7632 537.654 74.2157C537.544 76.6683 535.859 77.7298 533.9 76.595C531.959 75.4603 530.457 72.5685 530.567 70.116Z" fill="#EB4680"/>
<path d="M519.615 363.007C519.689 361.378 520.806 360.665 522.124 361.415C523.424 362.166 524.413 364.106 524.34 365.734C524.267 367.363 523.15 368.077 521.831 367.327C520.531 366.576 519.542 364.636 519.615 363.007Z" fill="#EB4680"/>
<path d="M591.238 244.592C590.963 244.592 590.707 244.464 590.524 244.244C590.286 243.951 590.267 243.548 590.45 243.219L594.846 235.697C595.102 235.258 595.67 235.111 596.091 235.367C596.53 235.624 596.677 236.191 596.42 236.612L593.216 242.103L599.699 240.108C600.175 239.961 600.687 240.236 600.852 240.712C600.999 241.187 600.724 241.7 600.248 241.865L591.531 244.555C591.421 244.573 591.329 244.592 591.238 244.592Z" fill="#EB4680"/>
<path d="M515.184 277.755C518.608 279.732 521.63 283.521 523.351 287.602C523.388 287.675 525.293 286.998 526.062 286.687C527.746 286.01 529.944 286.266 532.343 287.657C537.69 290.75 542.031 298.217 542.031 304.349C542.031 315.568 522.82 319.448 522.82 319.448C522.82 319.448 504.562 295.051 504.562 283.85C504.562 280.794 503.262 279.842 505.002 278.854C505.148 278.762 508.628 276.914 508.792 276.859C510.496 276.09 512.748 276.346 515.184 277.755Z" fill="#D62D69"/>
<path d="M511.961 279.494C515.697 281.654 518.92 285.937 520.531 290.402C522.143 287.803 525.384 287.236 529.102 289.396C534.449 292.489 538.789 299.956 538.789 306.087C538.789 317.307 520.531 320.619 520.531 320.619C520.531 320.619 502.273 296.222 502.273 285.021C502.273 278.89 506.613 276.419 511.961 279.494Z" fill="#EB4680"/>
<path opacity="0.7" d="M511.429 279.732C515.165 281.892 518.828 286.174 520.44 290.659C520.769 290.128 520.311 290.329 520.769 289.963C519.084 285.699 515.989 281.69 512.437 279.641C509.507 277.957 507.291 277.554 505.551 278.634C507.181 278.14 509.214 278.451 511.429 279.732Z" fill="white"/>
<path opacity="0.7" d="M529.376 289.359C526.465 287.675 524.175 287.639 522.729 288.535C524.359 288.041 526.373 288.352 528.589 289.634C533.936 292.727 538.276 300.194 538.276 306.325C538.276 311.541 534.339 315.037 530.109 317.307C534.834 315.092 539.064 311.853 539.064 306.051C539.064 299.919 534.724 292.434 529.376 289.359Z" fill="white"/>
<path d="M594.021 243.347L592.795 241.993C602.647 233.043 607.866 218.474 607.866 199.843C607.866 153.465 574.958 96.7458 534.522 73.4104L535.438 71.8181C576.386 95.4464 609.698 152.879 609.698 199.843C609.679 218.987 604.277 234.05 594.021 243.347Z" fill="#EB4680"/>
<path d="M623.084 212.105C623.066 212.105 623.066 212.105 623.084 212.105C622.572 212.105 622.169 211.684 622.169 211.172C622.169 210.568 622.187 209.964 622.187 209.36C622.187 208.847 622.59 208.445 623.103 208.445C623.615 208.445 624.018 208.847 624.018 209.36C624.018 209.982 624.018 210.604 624 211.208C623.982 211.703 623.579 212.105 623.084 212.105Z" fill="#A8CFF0"/>
<path d="M572.668 275.523C572.174 275.523 571.753 275.12 571.753 274.607C571.753 274.095 572.156 273.692 572.668 273.692C573.859 273.692 575.067 273.637 576.24 273.546C576.734 273.509 577.174 273.894 577.228 274.388C577.265 274.9 576.88 275.321 576.386 275.376C575.159 275.468 573.914 275.504 572.668 275.523C572.687 275.523 572.668 275.523 572.668 275.523ZM567.229 275.303C567.211 275.303 567.175 275.303 567.156 275.303C565.948 275.193 564.721 275.065 563.494 274.882C562.999 274.809 562.651 274.351 562.706 273.857C562.779 273.363 563.256 273.015 563.732 273.07C564.94 273.235 566.112 273.381 567.303 273.473C567.816 273.509 568.182 273.949 568.145 274.461C568.109 274.955 567.706 275.303 567.229 275.303ZM581.715 274.681C581.276 274.681 580.891 274.37 580.818 273.93C580.726 273.436 581.056 272.96 581.55 272.869C582.722 272.649 583.894 272.393 585.03 272.1C585.506 271.972 586.019 272.265 586.147 272.759C586.275 273.253 585.982 273.747 585.488 273.875C584.316 274.186 583.089 274.461 581.88 274.681C581.825 274.681 581.77 274.681 581.715 274.681ZM590.432 272.21C590.066 272.21 589.718 271.99 589.59 271.624C589.407 271.148 589.626 270.618 590.103 270.435C591.201 269.995 592.3 269.519 593.344 268.989C593.802 268.769 594.351 268.952 594.571 269.41C594.791 269.867 594.608 270.416 594.15 270.636C593.051 271.185 591.916 271.679 590.762 272.137C590.67 272.192 590.542 272.21 590.432 272.21ZM598.472 268.037C598.179 268.037 597.886 267.89 597.702 267.634C597.428 267.213 597.538 266.646 597.959 266.371C598.948 265.713 599.918 265.017 600.852 264.285C601.255 263.974 601.823 264.047 602.134 264.431C602.446 264.834 602.372 265.401 601.988 265.713C601.017 266.463 600.01 267.195 598.984 267.872C598.82 267.982 598.655 268.037 598.472 268.037ZM605.504 262.29C605.266 262.29 605.028 262.198 604.863 262.015C604.497 261.668 604.497 261.082 604.863 260.716C605.705 259.874 606.511 258.996 607.28 258.099C607.61 257.714 608.196 257.678 608.58 258.007C608.965 258.337 609.002 258.922 608.672 259.307C607.866 260.24 607.024 261.155 606.163 262.015C605.98 262.198 605.742 262.29 605.504 262.29ZM611.272 255.299C611.089 255.299 610.906 255.244 610.76 255.134C610.339 254.841 610.229 254.274 610.522 253.853C611.199 252.883 611.84 251.858 612.444 250.833C612.701 250.394 613.269 250.247 613.69 250.503C614.129 250.76 614.276 251.327 614.019 251.748C613.397 252.809 612.737 253.853 612.042 254.859C611.858 255.152 611.565 255.299 611.272 255.299ZM615.777 247.429C615.649 247.429 615.521 247.392 615.393 247.337C614.935 247.117 614.734 246.568 614.953 246.111C615.448 245.049 615.942 243.951 616.382 242.835C616.565 242.359 617.114 242.139 617.572 242.322C618.048 242.505 618.268 243.054 618.085 243.512C617.627 244.665 617.133 245.8 616.602 246.898C616.455 247.227 616.125 247.429 615.777 247.429ZM619.074 238.973C618.982 238.973 618.891 238.955 618.799 238.936C618.323 238.79 618.048 238.277 618.195 237.783C618.543 236.649 618.891 235.514 619.184 234.342C619.312 233.848 619.825 233.555 620.301 233.684C620.795 233.812 621.088 234.306 620.96 234.8C620.649 236.008 620.301 237.179 619.935 238.332C619.806 238.717 619.458 238.973 619.074 238.973ZM621.29 230.151C621.235 230.151 621.18 230.151 621.107 230.133C620.612 230.041 620.283 229.547 620.374 229.053C620.594 227.9 620.814 226.71 620.997 225.502C621.07 225.008 621.528 224.661 622.041 224.734C622.535 224.807 622.883 225.283 622.81 225.777C622.627 227.003 622.407 228.211 622.187 229.401C622.095 229.858 621.711 230.151 621.29 230.151ZM622.59 221.183C622.553 221.183 622.535 221.183 622.498 221.183C622.004 221.128 621.619 220.689 621.674 220.176C621.784 219.005 621.876 217.797 621.967 216.589C622.004 216.095 622.389 215.711 622.938 215.729C623.451 215.766 623.835 216.187 623.799 216.699C623.725 217.925 623.615 219.152 623.506 220.359C623.451 220.817 623.048 221.183 622.59 221.183Z" fill="#A8CFF0"/>
<path d="M558.146 273.912C558.073 273.912 558.018 273.912 557.945 273.894C557.34 273.766 556.736 273.619 556.132 273.473C555.637 273.345 555.344 272.85 555.454 272.356C555.582 271.862 556.077 271.569 556.571 271.679C557.157 271.825 557.743 271.972 558.329 272.1C558.824 272.21 559.135 272.704 559.025 273.198C558.952 273.619 558.567 273.912 558.146 273.912Z" fill="#A8CFF0"/>
<path d="M440.887 129.049C440.448 129.049 440.063 128.738 439.99 128.299C439.88 127.695 439.77 127.091 439.679 126.487C439.587 125.993 439.935 125.517 440.43 125.426C440.924 125.334 441.4 125.682 441.492 126.176C441.583 126.78 441.693 127.366 441.803 127.97C441.895 128.464 441.565 128.94 441.071 129.031C440.997 129.049 440.942 129.049 440.887 129.049Z" fill="#A8CFF0"/>
<path d="M609.716 147.645C609.35 147.645 609.02 147.425 608.873 147.077C608.416 145.942 607.939 144.808 607.463 143.673C607.262 143.215 607.482 142.666 607.939 142.465C608.416 142.264 608.947 142.483 609.148 142.941C609.643 144.094 610.119 145.229 610.577 146.382C610.76 146.858 610.54 147.388 610.064 147.571C609.936 147.626 609.826 147.645 609.716 147.645ZM606.035 139.116C605.687 139.116 605.357 138.914 605.211 138.585C604.698 137.468 604.185 136.352 603.654 135.236C603.434 134.778 603.636 134.229 604.094 134.009C604.551 133.79 605.101 133.991 605.321 134.449C605.852 135.565 606.383 136.7 606.896 137.834C607.097 138.292 606.896 138.841 606.438 139.042C606.291 139.097 606.163 139.116 606.035 139.116ZM602.006 130.77C601.676 130.77 601.347 130.587 601.182 130.276C600.633 129.177 600.065 128.079 599.479 127C599.241 126.56 599.406 125.993 599.863 125.755C600.321 125.517 600.871 125.682 601.109 126.139C601.695 127.237 602.262 128.336 602.83 129.452C603.068 129.91 602.885 130.459 602.427 130.678C602.281 130.733 602.153 130.77 602.006 130.77ZM597.629 122.589C597.318 122.589 597.007 122.424 596.823 122.131C596.219 121.051 595.615 119.99 594.992 118.928C594.736 118.489 594.882 117.94 595.322 117.684C595.761 117.427 596.311 117.574 596.567 118.013C597.19 119.093 597.812 120.154 598.417 121.253C598.673 121.692 598.508 122.259 598.069 122.497C597.94 122.552 597.776 122.589 597.629 122.589ZM439.752 121.747C439.294 121.747 438.91 121.417 438.836 120.96C438.672 119.715 438.525 118.489 438.397 117.263C438.342 116.769 438.708 116.311 439.203 116.256C439.697 116.201 440.155 116.567 440.21 117.061C440.338 118.269 440.485 119.496 440.649 120.722C440.723 121.216 440.356 121.674 439.862 121.747C439.825 121.747 439.789 121.747 439.752 121.747ZM592.923 114.609C592.611 114.609 592.318 114.462 592.135 114.17C591.494 113.126 590.835 112.083 590.176 111.04C589.901 110.619 590.029 110.052 590.45 109.777C590.872 109.503 591.439 109.631 591.714 110.052C592.392 111.095 593.033 112.138 593.692 113.2C593.948 113.621 593.82 114.188 593.399 114.462C593.271 114.554 593.087 114.609 592.923 114.609ZM438.818 112.522C438.342 112.522 437.939 112.156 437.902 111.662C437.811 110.418 437.756 109.173 437.701 107.929C437.683 107.416 438.067 106.995 438.58 106.977C438.598 106.977 438.598 106.977 438.617 106.977C439.111 106.977 439.514 107.361 439.532 107.855C439.587 109.082 439.642 110.308 439.734 111.534C439.77 112.047 439.386 112.468 438.891 112.504C438.855 112.522 438.836 112.522 438.818 112.522ZM587.905 106.812C587.612 106.812 587.319 106.666 587.154 106.409C586.458 105.385 585.762 104.378 585.066 103.371C584.773 102.95 584.883 102.383 585.286 102.09C585.689 101.797 586.275 101.907 586.568 102.31C587.282 103.316 587.978 104.341 588.674 105.366C588.967 105.787 588.839 106.355 588.436 106.629C588.253 106.775 588.088 106.812 587.905 106.812ZM438.525 103.28C438.012 103.28 437.609 102.859 437.609 102.365C437.609 101.102 437.646 99.8572 437.683 98.631C437.701 98.1368 438.104 97.7525 438.598 97.7525C438.617 97.7525 438.617 97.7525 438.635 97.7525C439.148 97.7708 439.532 98.1917 439.514 98.7042C439.477 99.9121 439.441 101.138 439.441 102.383C439.441 102.859 439.038 103.28 438.525 103.28ZM582.576 99.2533C582.301 99.2533 582.026 99.1251 581.843 98.8872C581.111 97.8989 580.378 96.9106 579.627 95.9405C579.316 95.5379 579.389 94.9705 579.792 94.6594C580.195 94.3483 580.763 94.4215 581.074 94.8241C581.825 95.8124 582.576 96.8008 583.308 97.7891C583.601 98.1917 583.528 98.7774 583.107 99.0702C582.942 99.1984 582.759 99.2533 582.576 99.2533ZM438.928 94.0188C438.91 94.0188 438.873 94.0188 438.855 94.0188C438.342 93.9822 437.976 93.5247 438.012 93.0305C438.122 91.7676 438.25 90.5231 438.397 89.3151C438.452 88.821 438.928 88.4549 439.422 88.5281C439.917 88.583 440.283 89.0406 440.228 89.5531C440.082 90.7427 439.954 91.969 439.844 93.2135C439.807 93.6528 439.404 94.0188 438.928 94.0188ZM576.917 91.9324C576.642 91.9324 576.386 91.8225 576.203 91.5846C575.434 90.6329 574.646 89.6812 573.859 88.7295C573.529 88.3451 573.584 87.7594 573.969 87.4483C574.353 87.1189 574.921 87.1738 575.251 87.5581C576.038 88.5098 576.826 89.4615 577.613 90.4316C577.924 90.8342 577.869 91.4016 577.466 91.7127C577.32 91.8591 577.119 91.9324 576.917 91.9324ZM570.947 84.8494C570.691 84.8494 570.434 84.7396 570.251 84.5382C569.445 83.6231 568.621 82.708 567.797 81.8112C567.449 81.4451 567.486 80.8595 567.852 80.5117C568.218 80.164 568.804 80.2006 569.152 80.5666C569.995 81.4818 570.819 82.3969 571.643 83.3303C571.973 83.7146 571.936 84.282 571.57 84.6297C571.368 84.7762 571.148 84.8494 570.947 84.8494ZM440.155 84.8494C440.1 84.8494 440.045 84.8494 439.99 84.8311C439.496 84.7396 439.166 84.2637 439.258 83.7695C439.496 82.525 439.734 81.2987 440.009 80.1091C440.118 79.6149 440.613 79.3038 441.107 79.4136C441.602 79.5234 441.913 80.0176 441.803 80.5117C441.528 81.6831 441.29 82.8727 441.071 84.099C440.961 84.5382 440.576 84.8494 440.155 84.8494ZM564.647 78.0592C564.409 78.0592 564.171 77.9677 563.988 77.7847C563.127 76.9062 562.267 76.0277 561.388 75.1675C561.021 74.8197 561.021 74.234 561.388 73.868C561.736 73.502 562.322 73.502 562.688 73.868C563.567 74.7465 564.446 75.625 565.307 76.5218C565.655 76.8879 565.655 77.4552 565.288 77.8213C565.105 77.9677 564.885 78.0592 564.647 78.0592ZM442.316 75.8446C442.224 75.8446 442.133 75.8263 442.041 75.808C441.565 75.6616 441.29 75.1492 441.437 74.6733C441.803 73.4653 442.206 72.2757 442.627 71.1044C442.792 70.6285 443.323 70.3906 443.799 70.5553C444.275 70.72 444.514 71.2508 444.349 71.7266C443.946 72.8614 443.561 74.0144 443.195 75.2041C443.067 75.5884 442.701 75.8446 442.316 75.8446ZM558.036 71.5802C557.817 71.5802 557.597 71.507 557.414 71.3423C556.516 70.5004 555.601 69.6768 554.685 68.8532C554.3 68.5237 554.282 67.9381 554.612 67.5537C554.941 67.1694 555.527 67.1511 555.912 67.4805C556.828 68.3041 557.762 69.146 558.659 69.9879C559.025 70.3357 559.043 70.903 558.714 71.2874C558.512 71.4704 558.274 71.5802 558.036 71.5802ZM445.576 67.1877C445.447 67.1877 445.319 67.1694 445.191 67.0962C444.733 66.8765 444.532 66.3458 444.733 65.8882C445.264 64.7352 445.814 63.6187 446.4 62.5206C446.638 62.0813 447.187 61.9166 447.645 62.1545C448.085 62.3925 448.268 62.9415 448.011 63.3991C447.444 64.4606 446.894 65.5405 446.381 66.6569C446.253 66.9863 445.924 67.1877 445.576 67.1877ZM551.077 65.4489C550.876 65.4489 550.656 65.3757 550.491 65.2293C549.539 64.4423 548.587 63.6553 547.634 62.9049C547.232 62.5938 547.177 62.0081 547.488 61.6238C547.799 61.2211 548.385 61.1662 548.77 61.4774C549.74 62.246 550.711 63.033 551.663 63.8384C552.048 64.1678 552.103 64.7352 551.773 65.1195C551.59 65.3391 551.334 65.4489 551.077 65.4489ZM543.789 59.7203C543.606 59.7203 543.404 59.6654 543.239 59.5373C542.25 58.8052 541.243 58.0914 540.254 57.3776C539.833 57.0848 539.742 56.5174 540.035 56.0965C540.328 55.6755 540.895 55.584 541.316 55.8769C542.324 56.5906 543.349 57.3227 544.338 58.0548C544.741 58.3477 544.833 58.9333 544.54 59.336C544.338 59.5922 544.063 59.7203 543.789 59.7203ZM450.099 59.0981C449.916 59.0981 449.751 59.0431 449.586 58.9516C449.165 58.6771 449.055 58.0914 449.33 57.6888C450.044 56.6456 450.777 55.6023 451.546 54.6323C451.857 54.2297 452.425 54.1564 452.828 54.4676C453.231 54.7787 453.285 55.3461 452.992 55.7487C452.26 56.6822 451.546 57.6705 450.85 58.6954C450.667 58.9699 450.392 59.0981 450.099 59.0981ZM536.17 54.4493C536.006 54.4493 535.823 54.3944 535.676 54.3029C534.632 53.644 533.588 52.9851 532.544 52.3628C532.105 52.1066 531.977 51.5392 532.233 51.1C532.49 50.6607 533.057 50.5326 533.497 50.7888C534.559 51.4294 535.621 52.0883 536.665 52.7655C537.086 53.04 537.214 53.6074 536.94 54.0283C536.757 54.3029 536.463 54.4493 536.17 54.4493ZM455.941 51.9419C455.703 51.9419 455.483 51.8504 455.3 51.6856C454.934 51.3379 454.934 50.7522 455.3 50.3862C456.179 49.4894 457.113 48.6292 458.065 47.8055C458.45 47.4761 459.017 47.5127 459.365 47.8971C459.695 48.2814 459.658 48.8488 459.274 49.1965C458.358 49.9835 457.479 50.8071 456.618 51.6673C456.399 51.8504 456.179 51.9419 455.941 51.9419ZM528.186 49.7273C528.039 49.7273 527.893 49.6907 527.746 49.6175C526.648 49.0318 525.567 48.4461 524.487 47.9154C524.029 47.6957 523.864 47.1284 524.084 46.6891C524.304 46.2316 524.853 46.0485 525.311 46.2865C526.41 46.8355 527.508 47.4212 528.625 48.0252C529.065 48.2631 529.23 48.8305 528.992 49.2697C528.827 49.5443 528.516 49.7273 528.186 49.7273ZM463.065 46.0668C462.772 46.0668 462.479 45.9204 462.296 45.6642C462.021 45.2432 462.131 44.6759 462.552 44.4013C463.596 43.7058 464.695 43.047 465.793 42.443C466.233 42.205 466.782 42.3698 467.039 42.809C467.277 43.2483 467.112 43.8156 466.672 44.0536C465.61 44.6209 464.566 45.2615 463.577 45.9204C463.431 46.0119 463.248 46.0668 463.065 46.0668ZM519.89 45.6276C519.762 45.6276 519.634 45.6093 519.524 45.5544C518.388 45.0602 517.253 44.5843 516.136 44.1268C515.66 43.9438 515.44 43.413 515.623 42.9371C515.806 42.4613 516.337 42.2417 516.814 42.4247C517.949 42.8822 519.103 43.3581 520.256 43.8706C520.714 44.0719 520.934 44.6209 520.714 45.0785C520.568 45.4262 520.238 45.6276 519.89 45.6276ZM511.246 42.2783C511.155 42.2783 511.063 42.26 510.953 42.2417C509.781 41.8573 508.609 41.4913 507.437 41.1618C506.943 41.0337 506.668 40.5212 506.796 40.0271C506.943 39.5329 507.437 39.2584 507.932 39.3865C509.122 39.7159 510.312 40.082 511.521 40.4846C511.997 40.6494 512.272 41.1618 512.107 41.6377C511.979 42.0403 511.631 42.2783 511.246 42.2783ZM471.269 41.8024C470.903 41.8024 470.555 41.5828 470.408 41.2167C470.225 40.7409 470.463 40.2101 470.921 40.0271C472.075 39.5695 473.283 39.1486 474.492 38.8008C474.968 38.6544 475.481 38.9289 475.627 39.4048C475.774 39.8807 475.499 40.3931 475.023 40.5395C473.851 40.8873 472.697 41.2899 471.599 41.7292C471.507 41.7841 471.397 41.8024 471.269 41.8024ZM502.291 39.8807C502.236 39.8807 502.163 39.8807 502.108 39.8624C500.899 39.6061 499.691 39.4048 498.5 39.2218C498.006 39.1486 497.658 38.6727 497.731 38.1785C497.805 37.6844 498.281 37.3366 498.775 37.4099C500.002 37.5929 501.229 37.8125 502.474 38.0687C502.969 38.1785 503.28 38.6544 503.189 39.1486C503.097 39.5878 502.712 39.8807 502.291 39.8807ZM480.187 39.3133C479.748 39.3133 479.363 39.0021 479.29 38.5629C479.198 38.0687 479.528 37.5929 480.041 37.5014C481.268 37.2817 482.513 37.117 483.777 36.9889C484.271 36.934 484.729 37.3 484.784 37.8125C484.839 38.3067 484.473 38.7642 483.96 38.8191C482.751 38.9472 481.543 39.112 480.352 39.3133C480.297 39.3133 480.242 39.3133 480.187 39.3133ZM493.116 38.6361C493.098 38.6361 493.08 38.6361 493.061 38.6361C491.834 38.5629 490.608 38.5263 489.417 38.5263C488.904 38.5263 488.502 38.1236 488.502 37.6112C488.502 37.0987 488.904 36.6961 489.417 36.6961C490.662 36.6961 491.908 36.7327 493.171 36.8242C493.684 36.8608 494.069 37.2817 494.032 37.7942C493.995 38.2701 493.593 38.6361 493.116 38.6361Z" fill="#A8CFF0"/>
<path d="M612.408 154.654C612.042 154.654 611.675 154.416 611.547 154.05L610.906 152.33C610.723 151.854 610.979 151.323 611.437 151.158C611.895 150.975 612.444 151.232 612.609 151.689L613.25 153.41C613.415 153.886 613.177 154.416 612.701 154.581C612.628 154.636 612.518 154.654 612.408 154.654Z" fill="#A8CFF0"/>
<path d="M579.206 291.189C578.84 291.189 578.51 290.97 578.364 290.622C578.144 290.055 577.906 289.505 577.668 288.938C577.467 288.481 577.686 287.931 578.162 287.748C578.639 287.547 579.17 287.767 579.353 288.243C579.591 288.81 579.829 289.377 580.049 289.945C580.232 290.421 580.012 290.951 579.536 291.134C579.426 291.153 579.316 291.189 579.206 291.189Z" fill="#EB4680"/>
<path d="M553.934 376.386C552.707 376.386 551.462 376.313 550.235 376.203C549.722 376.148 549.356 375.709 549.411 375.215C549.466 374.703 549.942 374.355 550.4 374.391C551.59 374.501 552.78 374.556 553.934 374.574C554.447 374.574 554.85 374.995 554.85 375.49C554.85 375.984 554.429 376.386 553.934 376.386ZM559.355 376.002C558.915 376.002 558.512 375.673 558.457 375.215C558.384 374.721 558.732 374.245 559.227 374.172C560.399 373.989 561.552 373.751 562.669 373.458C563.164 373.33 563.658 373.623 563.786 374.099C563.915 374.593 563.622 375.087 563.146 375.215C561.955 375.526 560.728 375.782 559.501 375.965C559.446 376.002 559.391 376.002 559.355 376.002ZM544.942 375.361C544.887 375.361 544.814 375.361 544.741 375.343C543.569 375.087 542.36 374.794 541.17 374.446C540.675 374.3 540.401 373.806 540.547 373.312C540.694 372.817 541.188 372.543 541.683 372.689C542.855 373.019 544.008 373.312 545.144 373.568C545.638 373.678 545.95 374.153 545.84 374.648C545.748 375.069 545.364 375.361 544.942 375.361ZM567.998 373.403C567.651 373.403 567.321 373.202 567.174 372.872C566.955 372.415 567.156 371.866 567.614 371.646C568.658 371.152 569.702 370.585 570.691 369.962C571.112 369.688 571.679 369.816 571.954 370.237C572.229 370.658 572.101 371.225 571.679 371.5C570.636 372.177 569.518 372.781 568.401 373.293C568.273 373.385 568.127 373.403 567.998 373.403ZM536.28 372.708C536.17 372.708 536.06 372.689 535.951 372.653C534.834 372.213 533.698 371.738 532.563 371.207C532.105 370.987 531.903 370.456 532.105 369.999C532.325 369.541 532.856 369.34 533.314 369.541C534.412 370.054 535.511 370.511 536.61 370.932C537.086 371.115 537.306 371.646 537.123 372.122C536.976 372.488 536.646 372.708 536.28 372.708ZM575.47 368.352C575.232 368.352 574.976 368.26 574.793 368.059C574.445 367.693 574.463 367.107 574.848 366.759C575.69 365.972 576.514 365.112 577.283 364.215C577.613 363.831 578.199 363.776 578.565 364.106C578.95 364.435 579.005 365.002 578.675 365.387C577.869 366.338 576.99 367.235 576.093 368.077C575.928 368.26 575.69 368.352 575.47 368.352ZM581.166 361.324C581.001 361.324 580.836 361.287 580.689 361.195C580.25 360.939 580.122 360.372 580.378 359.933C580.982 358.944 581.55 357.901 582.081 356.84C582.301 356.382 582.869 356.199 583.308 356.419C583.766 356.638 583.949 357.187 583.729 357.645C583.18 358.761 582.576 359.859 581.953 360.903C581.77 361.177 581.477 361.324 581.166 361.324ZM584.975 353.124C584.883 353.124 584.773 353.106 584.682 353.069C584.206 352.905 583.949 352.392 584.114 351.916C584.499 350.818 584.846 349.665 585.139 348.512C585.268 348.018 585.762 347.725 586.257 347.853C586.751 347.981 587.044 348.475 586.916 348.97C586.605 350.178 586.238 351.367 585.854 352.502C585.707 352.886 585.359 353.124 584.975 353.124ZM587.154 344.357C587.099 344.357 587.044 344.357 587.007 344.339C586.513 344.266 586.165 343.79 586.257 343.278C586.44 342.125 586.605 340.953 586.733 339.745C586.788 339.233 587.246 338.867 587.74 338.94C588.234 338.995 588.601 339.452 588.546 339.947C588.418 341.191 588.253 342.399 588.051 343.589C587.978 344.028 587.593 344.357 587.154 344.357ZM588.015 335.334C588.015 335.334 587.996 335.334 587.978 335.334C587.465 335.316 587.081 334.895 587.099 334.383C587.117 333.559 587.136 332.735 587.136 331.875V330.795C587.136 330.283 587.539 329.88 588.033 329.862C588.546 329.935 588.949 330.265 588.967 330.759V331.875C588.967 332.735 588.949 333.596 588.93 334.438C588.912 334.95 588.509 335.334 588.015 335.334ZM587.795 326.275C587.319 326.275 586.916 325.909 586.879 325.433C586.788 324.243 586.678 323.054 586.55 321.846C586.495 321.351 586.861 320.894 587.355 320.839C587.85 320.784 588.308 321.15 588.363 321.644C588.491 322.871 588.619 324.078 588.711 325.286C588.747 325.799 588.363 326.238 587.868 326.275C587.85 326.275 587.832 326.275 587.795 326.275ZM586.714 317.27C586.275 317.27 585.89 316.959 585.817 316.501C585.616 315.33 585.396 314.14 585.158 312.969C585.066 312.475 585.378 311.999 585.872 311.889C586.367 311.798 586.843 312.109 586.953 312.603C587.191 313.811 587.41 315.001 587.612 316.19C587.703 316.684 587.355 317.16 586.861 317.252C586.806 317.27 586.751 317.27 586.714 317.27ZM584.846 308.412C584.444 308.412 584.059 308.137 583.949 307.716C583.656 306.563 583.345 305.392 583.015 304.239C582.869 303.745 583.162 303.25 583.656 303.104C584.132 302.976 584.645 303.25 584.792 303.745C585.121 304.916 585.433 306.106 585.726 307.277C585.854 307.771 585.542 308.265 585.066 308.393C584.993 308.393 584.92 308.412 584.846 308.412ZM582.319 299.7C581.935 299.7 581.568 299.462 581.459 299.078C581.074 297.943 580.689 296.808 580.287 295.673C580.122 295.197 580.36 294.667 580.836 294.502C581.312 294.337 581.843 294.575 582.008 295.051C582.411 296.204 582.814 297.357 583.198 298.51C583.363 298.986 583.088 299.499 582.612 299.663C582.521 299.682 582.411 299.7 582.319 299.7Z" fill="#EB4680"/>
<path d="M528.021 368.828C527.875 368.828 527.728 368.791 527.582 368.718C527.051 368.425 526.501 368.114 525.97 367.803C525.531 367.546 525.384 366.997 525.64 366.558C525.897 366.119 526.446 365.972 526.886 366.229C527.417 366.54 527.948 366.833 528.461 367.125C528.9 367.363 529.065 367.931 528.827 368.37C528.662 368.645 528.332 368.828 528.021 368.828Z" fill="#EB4680"/>
<path d="M577.027 292.086C577.009 292.086 576.99 292.086 576.972 292.086C576.459 292.05 576.075 291.629 576.111 291.116L576.423 286.229C576.441 285.9 576.642 285.607 576.954 285.461C577.265 285.314 577.613 285.351 577.888 285.552L582.008 288.609C582.411 288.902 582.503 289.487 582.191 289.89C581.898 290.293 581.312 290.384 580.909 290.073L578.144 288.023L577.943 291.226C577.924 291.702 577.521 292.086 577.027 292.086Z" fill="#EB4680"/>
<path d="M244.699 129.891C244.663 123.888 236.202 119.001 225.782 118.983C215.362 118.965 206.956 123.815 206.993 129.836C207.029 135.327 214.117 139.884 223.31 140.635L223.328 143.673C221.588 143.947 220.306 144.844 220.306 145.942L220.361 156.338C220.361 157.638 222.211 158.699 224.463 158.699H227.558C229.811 158.699 231.642 157.656 231.624 156.356L231.569 145.961C231.569 144.863 230.269 143.966 228.529 143.691L228.511 140.653C237.686 139.921 244.736 135.4 244.699 129.891Z" fill="white"/>
<path d="M472.935 555.255L145.571 366.229C132.898 358.908 122.624 339.288 122.624 322.413V24.7813C122.624 7.88831 132.898 0.128137 145.571 7.44905L472.954 196.457C485.626 203.778 495.9 223.398 495.9 240.272V537.904C495.9 554.797 485.626 562.557 472.935 555.255Z" fill="#D1EBFF"/>
<path d="M482.019 191.771L154.636 2.74535C149.618 -0.146408 144.985 -0.677174 141.212 0.768707C140.736 0.951729 131.763 5.58221 131.305 5.83844C131.286 5.83844 131.286 5.85674 131.286 5.85674C135.187 3.9533 140.15 4.31935 145.571 7.43074L472.954 196.438C485.626 203.759 495.9 223.379 495.9 240.254V537.904C495.9 548.446 491.889 555.419 485.81 557.414C486.304 557.433 486.927 557.25 487.824 556.737C488.117 556.572 497.621 551.429 497.914 551.228C502.273 548.172 504.983 541.912 504.983 533.219V235.587C504.965 218.694 494.691 199.074 482.019 191.771Z" fill="#3F92D1"/>
<path d="M479.455 192.998L152.072 3.98992C147.054 1.09816 142.421 0.549087 138.648 2.01327C138.172 2.19629 131.763 5.60052 131.323 5.83845C131.305 5.83845 131.305 5.85675 131.305 5.85675C135.205 3.95331 140.168 4.31936 145.589 7.43074L472.972 196.438L479.455 192.998Z" fill="#4F9FDB"/>
<path d="M474.052 195.908L146.67 6.88167C141.469 3.8801 136.689 3.45915 132.843 5.12465C136.121 4.61219 139.894 5.39919 143.904 7.72358L471.287 196.731C483.96 204.052 494.233 223.672 494.233 240.547V538.179C494.233 548.135 490.644 554.889 485.114 557.286C492.201 556.17 496.999 548.904 496.999 537.355V239.723C496.999 222.83 486.725 203.21 474.052 195.908Z" fill="white"/>
<path d="M135.517 51.2464V322.413C135.517 335.664 141.817 348.604 152.017 355.083L475.902 542.059C476.03 542.132 476.213 542.242 476.433 542.37C479.363 544.035 483.008 541.931 483.008 538.563V251.858L135.517 51.2464Z" fill="#03336E"/>
<path d="M482.55 539.917C482.312 539.789 482.129 539.679 482.019 539.606L158.115 352.648C147.915 346.169 141.615 333.23 141.615 319.979V54.7604L135.517 51.2464V322.413C135.517 335.664 141.817 348.604 152.017 355.083L475.902 542.059C476.03 542.132 476.213 542.242 476.433 542.37C478.905 543.779 481.872 542.48 482.733 540.009C482.678 539.972 482.605 539.954 482.55 539.917Z" fill="#001A46"/>
<path d="M464.768 219.298C464.768 223.306 467.588 228.175 471.086 230.188C474.565 232.201 477.404 230.59 477.404 226.582C477.404 222.574 474.584 217.706 471.086 215.692C467.606 213.697 464.768 215.308 464.768 219.298Z" fill="#FFCC00"/>
<path d="M448.487 209.854C448.487 213.862 451.308 218.731 454.806 220.744C458.285 222.757 461.124 221.147 461.124 217.138C461.124 213.13 458.303 208.262 454.806 206.248C451.308 204.235 448.487 205.846 448.487 209.854Z" fill="#EB4680"/>
<path d="M432.189 200.392C432.189 204.4 435.009 209.268 438.507 211.282C441.986 213.295 444.825 211.684 444.825 207.676C444.825 203.668 442.005 198.799 438.507 196.786C435.027 194.773 432.189 196.384 432.189 200.392Z" fill="#0FBAB8"/>
<path d="M349.121 191.35L325.369 177.642C322.97 176.251 321.028 177.367 321.028 180.113C321.028 182.858 322.97 186.226 325.369 187.598L349.121 201.307C351.52 202.698 353.461 201.581 353.461 198.836C353.461 196.091 351.52 192.741 349.121 191.35ZM388.237 213.917L364.485 200.209C362.086 198.818 360.145 199.934 360.145 202.679C360.145 205.425 362.086 208.792 364.485 210.165L388.237 223.874C390.636 225.264 392.578 224.148 392.578 221.403C392.578 218.657 390.636 215.308 388.237 213.917ZM427.336 236.484L403.584 222.775C401.185 221.384 399.244 222.501 399.244 225.246C399.244 227.992 401.185 231.359 403.584 232.732L427.336 246.44C429.735 247.831 431.676 246.715 431.676 243.969C431.676 241.224 429.735 237.875 427.336 236.484ZM466.453 259.051L442.701 245.342C440.302 243.951 438.36 245.068 438.36 247.813C438.36 250.558 440.302 253.926 442.701 255.299L466.453 269.007C468.852 270.398 470.793 269.282 470.793 266.536C470.793 263.791 468.852 260.441 466.453 259.051Z" fill="#72B5E8"/>
<path d="M254.863 210.934V313.115L266.052 306.563V204.107L254.863 210.934Z" fill="#17A32E"/>
<path d="M254.9 210.934V313.115L31.8647 185.274V82.8178L254.9 210.934Z" fill="#17E041"/>
<path d="M31.8647 82.8178L254.9 210.934L266.052 204.107L42.9258 76.0826L31.8647 82.8178Z" fill="#1CF740"/>
<path opacity="0.7" d="M31.8647 82.8178L254.9 210.934L266.052 204.107L254.881 209.378L31.8647 82.8178Z" fill="white"/>
<path d="M222.248 276.053V271.716L151.852 231.725V236.063L222.248 276.053Z" fill="white"/>
<path d="M121.361 151.03V155.368L239.682 223.032V218.694L121.361 151.03Z" fill="white"/>
<path d="M163.023 211.135L121.361 187.086V191.424L163.023 215.473V211.135Z" fill="white"/>
<path d="M191.225 245.434V249.771L208.421 259.069V254.731L191.225 245.434Z" fill="white"/>
<path d="M188.551 207.822L121.361 169.058V173.396L188.551 212.16V207.822Z" fill="white"/>
<path d="M145.974 192.284L121.361 178.081V182.419L145.974 196.621V192.284Z" fill="white"/>
<path d="M139.71 220.048L186.94 247.3V242.963L139.71 215.711V220.048Z" fill="white"/>
<path d="M150.24 194.736V199.074L216.552 236.722V232.384L150.24 194.736Z" fill="white"/>
<path d="M167.29 213.588V217.925L200.455 237.069V232.732L167.29 213.588Z" fill="white"/>
<path d="M135.443 213.24L121.361 205.114V209.451L135.443 217.578V213.24Z" fill="white"/>
<path d="M192.818 214.631L239.682 241.059V236.722L192.818 210.293V214.631Z" fill="white"/>
<path d="M220.819 239.192L239.682 250.064V245.726L220.819 234.855V239.192Z" fill="white"/>
<path d="M121.361 164.391L239.682 232.036V227.699L121.361 160.053V164.391Z" fill="white"/>
<path d="M204.722 239.522L239.682 259.087V254.749L204.722 235.184V239.522Z" fill="white"/>
<path d="M147.567 229.254L121.361 214.137V218.474L147.567 233.592V229.254Z" fill="white"/>
<path d="M226.514 278.524L239.682 286.12V281.782L226.514 274.186V278.524Z" fill="white"/>
<path d="M212.706 261.54L239.682 277.115V272.777L212.706 257.202V261.54Z" fill="white"/>
<path d="M121.361 200.447L239.682 268.092V263.754L121.361 196.109V200.447Z" fill="white"/>
<path d="M96.6381 133.881L57.7411 111.388C50.9469 107.471 45.4347 111.626 45.4347 120.685V165.691C45.4347 174.75 50.9469 185.274 57.7411 189.209L96.6381 211.703C103.432 215.619 108.944 211.465 108.944 202.405V157.4C108.944 148.322 103.432 137.798 96.6381 133.881Z" fill="#2672AB"/>
<path d="M101.436 208.042L62.5391 185.549C55.745 181.632 50.2327 171.09 50.2327 162.03V117.025C50.2327 114.151 50.7821 111.79 51.7527 109.997C47.9802 110.619 45.4164 114.517 45.4164 120.685V165.691C45.4164 174.75 50.9286 185.274 57.7228 189.209L96.6198 211.703C101.271 214.393 105.318 213.277 107.406 209.415C105.648 209.708 103.615 209.287 101.436 208.042Z" fill="#084C94"/>
<path d="M66.4215 146.455L27.5245 123.961C20.7304 120.045 15.2181 124.199 15.2181 133.259V178.264C15.2181 187.324 20.7304 197.848 27.5245 201.783L66.4215 224.276C73.2157 228.193 78.7279 224.038 78.7279 214.979V169.973C78.7279 160.914 73.2157 150.39 66.4215 146.455Z" fill="#0FBAB8"/>
<path d="M72.7578 142.739L33.8608 120.246C30.9491 118.562 28.2753 118.379 26.1693 119.422L26.0961 119.349L19.3569 123.302L19.3752 123.394C21.5361 122.113 24.3747 122.186 27.4879 123.98L66.3849 146.473C73.179 150.39 78.6913 160.932 78.6913 169.992V214.997C78.6913 219.408 77.3727 222.629 75.2667 224.368L79.0209 221.897C82.1708 220.085 85.0459 217.285 85.0459 211.282V166.258C85.0825 157.198 79.5703 146.656 72.7578 142.739Z" fill="#0BA19F"/>
<path opacity="0.7" d="M67.1174 145.887L28.2021 123.394C24.8325 121.436 21.7742 121.491 19.54 123.138C21.5545 122.369 24.0267 122.644 26.7005 124.199L65.5974 146.693C72.3916 150.609 77.9038 161.152 77.9038 170.211V215.217C77.9038 219.774 76.512 223.086 74.2595 224.77C77.3728 223.581 79.4055 219.902 79.4055 214.411V169.406C79.4238 160.328 73.9116 149.804 67.1174 145.887Z" fill="white"/>
<path d="M25.5284 136.389V187.91L67.7217 212.27V160.749L25.5284 136.389ZM65.0114 207.566L28.2387 186.336V141.074L65.0114 162.305V207.566Z" fill="white"/>
<path d="M58.437 169.9C58.437 173.268 56.0563 174.64 53.1079 172.938C50.1595 171.236 47.7788 167.118 47.7788 163.751C47.7788 160.383 50.1595 159.01 53.1079 160.712C56.0563 162.414 58.437 166.514 58.437 169.9Z" fill="white"/>
<path d="M26.9385 174.219L37.9263 160.035L49.079 188.239L57.1917 181.65L66.1468 205.974L65.9637 208.426L27.1033 187.653L26.9385 174.219Z" fill="white"/>
<path d="M541.628 176.159C541.628 183.151 539.21 188.111 535.273 190.527C535.163 190.6 528.552 194.681 528.442 194.755C524.359 197.042 526.977 191.863 520.751 188.276C508.261 181.064 498.134 163.604 498.134 149.273C498.134 142.19 491.578 142.136 495.589 139.756C495.699 139.683 503.079 135.473 503.189 135.419C507.272 133.204 512.84 133.625 518.975 137.157C531.501 144.368 541.628 161.829 541.628 176.159Z" fill="#FFCC00"/>
<path d="M512.693 141.019C506.705 137.56 501.266 137.102 497.219 139.116C500.991 138.054 505.679 138.841 510.752 141.769C523.241 148.981 533.387 166.441 533.387 180.772C533.387 188.239 530.64 193.364 526.245 195.56C531.775 194.022 535.346 188.532 535.346 180.003C535.31 165.691 525.183 148.23 512.693 141.019Z" fill="white"/>
<path d="M527.694 195.024C536.478 189.892 536.39 173.408 527.498 158.207C518.606 143.006 504.277 134.843 495.493 139.975C486.709 145.108 486.797 161.591 495.689 176.792C504.581 191.993 518.911 200.156 527.694 195.024Z" fill="#FFD70F"/>
<path d="M507.547 158.205C507.547 160.218 506.119 161.023 504.361 160.017C502.603 159.01 501.174 156.558 501.174 154.544C501.174 152.531 502.603 151.726 504.361 152.733C506.137 153.739 507.547 156.192 507.547 158.205Z" fill="#D99F00"/>
<path d="M520.403 165.636C520.403 167.649 518.974 168.454 517.216 167.448C515.458 166.441 514.03 163.988 514.03 161.975C514.03 159.962 515.458 159.157 517.216 160.163C518.993 161.17 520.403 163.622 520.403 165.636Z" fill="#D99F00"/>
<path d="M498.793 166.514L501.76 167.008C503.134 172.206 506.778 177.276 510.862 179.619C514.817 181.906 518.443 181.156 519.872 177.752L522.802 180.753C520.897 185.274 516.099 186.262 510.862 183.242C505.441 180.113 500.606 173.396 498.793 166.514Z" fill="#D99F00"/>
<path d="M505.295 159.376C503.537 158.37 502.108 155.917 502.108 153.904C502.108 153.245 502.273 152.733 502.529 152.348C501.705 152.531 501.174 153.318 501.174 154.544C501.174 156.558 502.603 159.01 504.361 160.017C505.551 160.694 506.558 160.529 507.108 159.761C506.613 159.889 505.99 159.761 505.295 159.376Z" fill="#B08100"/>
<path d="M518.169 166.789C516.411 165.782 514.982 163.33 514.982 161.316C514.982 160.657 515.147 160.145 515.403 159.761C514.579 159.944 514.048 160.731 514.048 161.957C514.048 163.97 515.477 166.423 517.235 167.429C518.425 168.107 519.432 167.942 519.982 167.173C519.469 167.301 518.846 167.191 518.169 166.789Z" fill="#B08100"/>
<path d="M520.238 178.118L519.872 177.752C519.542 178.557 519.066 179.198 518.517 179.692C519.176 179.326 519.762 178.813 520.238 178.118Z" fill="#B08100"/>
<path d="M511.777 182.584C506.595 179.6 501.925 173.286 499.947 166.697L498.775 166.496C500.588 173.378 505.441 180.113 510.844 183.224C514.799 185.512 518.48 185.494 520.879 183.425C518.535 184.816 515.257 184.597 511.777 182.584Z" fill="#B08100"/>
<path d="M530.512 400.912V525.678L541.701 519.144V394.085L530.512 400.912Z" fill="#9E9E9E"/>
<path d="M530.548 400.911V525.678L286.453 385.794V260.716L530.548 400.911Z" fill="#E1EFE8"/>
<path d="M286.453 260.716L530.548 400.911L541.701 394.085L297.514 253.999L286.453 260.716Z" fill="white"/>
<path opacity="0.7" d="M286.453 260.716L530.548 400.911L541.701 394.085L530.53 399.356L286.453 260.716Z" fill="white"/>
<path d="M504.688 480.041C519.557 471.353 519.408 443.449 504.355 417.715C489.302 391.981 465.044 378.163 450.175 386.851C435.305 395.539 435.454 423.443 450.507 449.177C465.561 474.911 489.818 488.729 504.688 480.041Z" fill="#2672AB"/>
<path d="M481.085 474.175C459.933 461.968 442.774 432.41 442.774 408.141C442.774 399.081 445.154 392.053 449.257 387.423C442.957 391.614 439.111 399.85 439.111 411.344C439.111 435.613 456.252 465.171 477.422 477.378C490.681 485.029 502.364 484.04 509.25 476.262C502.255 480.929 492.219 480.6 481.085 474.175Z" fill="#084C94"/>
<path d="M369.906 329.24L361.665 324.481V417.237L369.906 421.996V329.24ZM381.773 324.591L373.532 319.832V423.991L381.773 428.749V324.591ZM393.988 345.547L385.747 340.789V430.964L393.988 435.722V345.547ZM337.254 352.081V402.906L345.495 407.665V356.84L337.254 352.081ZM357.709 337.952L349.469 333.193V409.861L357.709 414.62V337.952ZM405.964 371.298L397.724 366.54V437.937L405.964 442.696V371.298ZM417.703 400.728L409.462 395.97V444.782L417.703 449.541V400.728ZM333.28 343.278L325.039 338.519V395.549L333.28 400.308V343.278ZM300.628 346.627V381.182L308.868 385.94V351.386L300.628 346.627ZM321.065 333.083L312.824 328.325V388.155L321.065 392.913V333.083Z" fill="#2672AB"/>
<path d="M369.906 365.661L361.665 360.903V417.255L369.906 422.014V365.661ZM381.773 340.038L373.532 335.279V423.991L381.773 428.749V340.038ZM393.988 362.019L385.747 357.261V430.964L393.988 435.722V362.019ZM337.254 364.417V402.888L345.495 407.647V369.175L337.254 364.417ZM357.709 362.916L349.469 358.157V409.861L357.709 414.62V362.916ZM333.28 347.926L325.039 343.168V395.531L333.28 400.289V347.926ZM300.628 371.189V381.2L308.868 385.959V375.947L300.628 371.189ZM321.065 371.207L312.824 366.448V388.155L321.065 392.913V371.207ZM405.964 384.586L397.724 379.827V437.937L405.964 442.696V384.586ZM417.703 407.976L409.462 403.218V444.782L417.703 449.541V407.976Z" fill="#A8CFF0"/>
<path d="M393.988 363.044L385.747 358.285V357.26L393.988 362.019V363.044Z" fill="white"/>
<path d="M381.773 341.063L373.532 336.304V335.279L381.773 340.038V341.063Z" fill="white"/>
<path d="M417.703 409.001L409.481 404.261V403.218L417.703 407.976V409.001Z" fill="white"/>
<path d="M369.906 366.686L361.683 361.928V360.903L369.906 365.661V366.686Z" fill="white"/>
<path d="M405.964 385.611L397.723 380.871V379.827L405.964 384.586V385.611Z" fill="white"/>
<path d="M321.065 372.232L312.824 367.473V366.448L321.065 371.207V372.232Z" fill="white"/>
<path d="M333.28 348.97L325.039 344.211V343.186L333.28 347.926V348.97Z" fill="white"/>
<path d="M308.85 375.929V376.954L300.628 372.213V371.188L308.85 375.929Z" fill="white"/>
<path d="M357.709 363.941L349.469 359.201V358.157L357.709 362.916V363.941Z" fill="white"/>
<path d="M345.495 370.2L337.254 365.46V364.417L345.495 369.175V370.2Z" fill="white"/>
<path d="M439.734 417.219C440.228 398.88 453.578 391.596 469.932 401.04C478.356 405.908 485.974 414.272 491.468 423.844L497.512 422.325C490.644 409.861 480.828 398.862 469.932 392.584C449.348 380.706 432.573 390.095 432.317 413.503L437.152 417.878L439.734 417.219Z" fill="#FFCC00"/>
<path d="M485.114 474.45C480.645 474.853 475.481 473.608 469.95 470.424C454.458 461.474 441.657 440.646 439.917 422.398L432.537 418.683C432.555 418.811 430.065 419.323 430.083 419.452C432.225 442.165 450.667 467.751 469.95 478.879C476.964 482.924 481.707 485.047 487.329 484.443C487.567 484.425 489.619 483.839 489.857 483.803L485.114 474.45Z" fill="#FFCC00"/>
<path d="M494.344 429.372C498.006 437.223 500.204 445.532 500.204 453.183C500.204 464.146 495.735 471.339 488.795 473.7L493.465 482.961C502.053 480.014 507.584 471.046 507.584 457.447C507.584 447.967 504.892 437.626 500.35 427.871L494.344 429.372Z" fill="#FFCC00"/>
<path d="M480.334 444.581C478.301 442.86 476.47 440.664 475.023 438.23C474.144 436.766 474.181 435.173 475.023 434.679C476.122 434.039 477.092 433.014 477.733 431.659C478.667 431.916 479.821 431.568 479.821 430.305C479.821 429.005 479.253 427.596 478.484 426.882C478.265 421.319 476.36 415.608 469.95 411.911C467.716 410.612 466.031 410.209 464.768 410.447C464.475 410.502 461.929 411.179 461.691 411.289C459.951 412.149 461.545 414.016 461.417 417.036C460.647 416.871 460.08 417.621 460.08 418.921C460.08 420.202 461.233 421.868 462.167 422.691C462.808 424.778 463.779 426.919 464.878 428.841C465.738 430.323 465.757 431.952 464.878 432.41C463.431 433.16 461.6 433.252 459.567 432.629C458.761 432.391 458.01 432.355 457.351 432.538C457.168 432.593 454.879 433.178 454.714 433.27C453.524 433.856 454.879 434.734 454.879 436.747V442.476C454.879 443.592 455.666 444.947 456.637 445.496L481.231 461.767C481.652 462.005 484.07 461.163 484.381 461.034C484.766 460.888 485.022 460.467 485.022 459.845V454.116C485.022 450.785 483.026 446.869 480.334 444.581Z" fill="#FFCC00"/>
<path d="M438.086 417.695C438.58 399.356 451.93 392.071 468.284 401.515C476.708 406.384 484.326 414.748 489.82 424.32L495.863 422.801C488.996 410.337 479.18 399.337 468.284 393.06C447.7 381.182 430.925 390.571 430.669 413.979L438.086 417.695Z" fill="white"/>
<path d="M483.465 474.926C478.997 475.328 473.833 474.084 468.302 470.899C452.809 461.95 440.008 441.122 438.269 422.874L430.889 419.159C432.866 441.963 448.89 468.154 468.302 479.355C475.609 483.565 482.422 485.102 488.209 484.278L483.465 474.926Z" fill="white"/>
<path d="M492.695 429.847C496.358 437.699 498.555 446.008 498.555 453.659C498.555 464.622 494.087 471.815 487.146 474.176L491.816 483.437C500.405 480.49 505.936 471.522 505.936 457.923C505.936 448.442 503.244 438.102 498.702 428.347L492.695 429.847Z" fill="white"/>
<path d="M478.686 445.057C476.653 443.336 474.822 441.14 473.375 438.706C472.496 437.242 472.532 435.649 473.375 435.155C474.474 434.514 475.444 433.49 476.085 432.135C477.019 432.391 478.173 432.044 478.173 430.781C478.173 429.481 477.605 428.072 476.836 427.358C476.616 421.794 474.712 416.084 468.302 412.387C461.893 408.69 460.006 412.222 459.768 417.512C458.999 417.347 458.431 418.097 458.431 419.397C458.431 420.678 459.585 422.343 460.519 423.167C461.16 425.254 462.131 427.395 463.229 429.317C464.09 430.799 464.109 432.428 463.229 432.886C461.783 433.636 459.951 433.727 457.919 433.105C455.227 432.3 453.231 433.911 453.231 437.223V442.952C453.231 444.068 454.018 445.423 454.989 445.972L481.616 461.327C482.586 461.895 483.374 461.437 483.374 460.321V454.592C483.356 451.261 481.359 447.344 478.686 445.057Z" fill="white"/>
<path d="M437.152 417.933C437.646 399.594 450.996 392.309 467.35 401.753C475.774 406.622 483.392 414.986 488.886 424.558L494.929 423.039C488.062 410.575 478.246 399.575 467.35 393.298C446.766 381.42 429.991 390.809 429.735 414.217L437.152 417.933Z" fill="#FFDE17"/>
<path d="M482.513 475.164C478.045 475.566 472.88 474.322 467.35 471.137C451.857 462.188 439.056 441.359 437.316 423.112L429.936 419.397C431.914 442.201 447.938 468.392 467.35 479.593C474.657 483.803 481.469 485.34 487.256 484.516L482.513 475.164Z" fill="#FFDE17"/>
<path d="M491.743 430.085C495.406 437.937 497.603 446.246 497.603 453.897C497.603 464.86 493.135 472.052 486.194 474.413L490.864 483.674C499.453 480.728 504.983 471.76 504.983 458.161C504.983 448.68 502.291 438.34 497.75 428.584L491.743 430.085Z" fill="#FFDE17"/>
<path d="M477.734 445.295C475.701 443.574 473.869 441.378 472.423 438.944C471.544 437.48 471.58 435.887 472.423 435.393C473.522 434.752 474.492 433.728 475.133 432.373C476.067 432.629 477.221 432.282 477.221 431.019C477.221 429.719 476.653 428.31 475.884 427.596C475.664 422.032 473.76 416.322 467.35 412.625C460.94 408.928 459.054 412.46 458.816 417.75C458.047 417.585 457.479 418.335 457.479 419.635C457.479 420.916 458.633 422.581 459.567 423.405C460.208 425.491 461.178 427.633 462.277 429.555C463.138 431.037 463.156 432.666 462.277 433.124C460.831 433.874 458.999 433.965 456.966 433.343C454.274 432.538 452.278 434.148 452.278 437.461V443.19C452.278 444.306 453.066 445.661 454.036 446.21L480.664 461.565C481.634 462.133 482.422 461.675 482.422 460.559V454.83C482.422 451.499 480.426 447.582 477.734 445.295Z" fill="#FFDE17"/>
<path d="M287.808 369.56V421.813L296.562 416.999V364.453L287.808 369.56Z" fill="#0BA19F"/>
<path d="M287.845 369.56V421.813L94.3856 310.187V257.641L287.845 369.56Z" fill="#0FBAB8"/>
<path d="M94.3856 257.641L287.845 369.56L296.562 364.453L103.029 252.645L94.3856 257.641Z" fill="#3ECFCD"/>
<path opacity="0.7" d="M94.3856 257.641L287.845 369.56L296.562 364.453L288.028 368.187L94.3856 257.641Z" fill="white"/>
<path d="M278.011 405.981L103.927 304.44V273.656L278.011 375.197V405.981Z" fill="white"/>
<path d="M111.215 282.368L114.731 284.399L116.361 301.201L116.435 301.237L118.156 286.376L122.148 288.682L123.87 305.538L123.943 305.575L125.573 290.64L128.723 292.452L126.36 313.134L121.819 310.517L120.152 296.204L120.079 296.168L118.412 308.558L113.559 305.758L111.215 282.368Z" fill="#084C94"/>
<path d="M132.056 294.465L135.572 296.497L137.202 313.298L137.275 313.335L138.996 298.474L142.989 300.78L144.71 317.636L144.783 317.673L146.413 302.738L149.563 304.55L147.201 325.232L142.659 322.614L140.992 308.302L140.919 308.265L139.253 320.656L134.4 317.856L132.056 294.465Z" fill="#084C94"/>
<path d="M153.061 306.417L156.577 308.448L158.207 325.25L158.28 325.286L160.001 310.425L163.994 312.731L165.715 329.587L165.788 329.624L167.418 314.689L170.568 316.501L168.206 337.183L163.664 334.566L161.997 320.253L161.924 320.217L160.258 332.607L155.405 329.807L153.061 306.417Z" fill="#084C94"/>
<path d="M182.215 100.663V137.102L187.709 134.064V97.3498L182.215 100.663Z" fill="#FFCC00"/>
<path d="M182.252 100.663V137.102L149.801 118.361V81.6465L182.252 100.663Z" fill="#FFD70F"/>
<path d="M149.801 81.6465L182.252 100.663L187.709 97.3498L155.185 78.4253L149.801 81.6465Z" fill="#FFDE17"/>
<path d="M149.801 81.6465L182.252 100.663L187.709 97.3498L181.977 98.9055L149.801 81.6465Z" fill="white"/>
<path d="M210.747 88.5098V147.516L219.647 142.611V83.1472L210.747 88.5098Z" fill="#D62D69"/>
<path d="M158.262 57.7071L210.82 88.5098L219.647 83.1473L166.979 52.5092L158.262 57.7071Z" fill="#F76195"/>
<path opacity="0.7" d="M158.262 57.7071L210.82 88.5098L219.647 83.1473L211.058 87.247L158.262 57.7071Z" fill="white"/>
<path d="M158.262 57.7071V82.1772L186.079 98.4846V133.222L210.82 147.516V88.5098L158.262 57.7071Z" fill="#EB4680"/>
<path d="M323.079 230.975V271.716L329.233 268.33V227.278L323.079 230.975Z" fill="#0BA19F"/>
<path d="M323.116 230.975V271.716L286.838 250.76V209.708L323.116 230.975Z" fill="#0FBAB8"/>
<path d="M286.838 209.708L323.116 230.975L329.233 227.278L292.863 206.12L286.838 209.708Z" fill="#3ECFCD"/>
<path opacity="0.7" d="M286.838 209.708L323.116 230.975L329.233 227.278L322.823 229.017L286.838 209.708Z" fill="white"/>
<path d="M370.693 258.428V299.169L376.847 295.783V254.731L370.693 258.428Z" fill="#0BA19F"/>
<path d="M370.73 258.428V299.169L334.452 278.213V237.161L370.73 258.428Z" fill="#0FBAB8"/>
<path d="M334.452 237.161L370.73 258.428L376.847 254.731L340.477 233.574L334.452 237.161Z" fill="#3ECFCD"/>
<path opacity="0.7" d="M334.452 237.161L370.73 258.428L376.847 254.731L370.437 256.47L334.452 237.161Z" fill="white"/>
<path d="M417.996 285.571V326.311L424.149 322.926V281.873L417.996 285.571Z" fill="#0BA19F"/>
<path d="M418.051 285.571V326.311L381.773 305.355V264.322L418.051 285.571Z" fill="#0FBAB8"/>
<path d="M381.773 264.322L418.051 285.571L424.149 281.873L387.78 260.716L381.773 264.322Z" fill="#3ECFCD"/>
<path opacity="0.7" d="M381.773 264.322L418.051 285.571L424.149 281.873L417.74 283.612L381.773 264.322Z" fill="white"/>
<path d="M464.695 312.109V352.85L470.848 349.464V308.412L464.695 312.109Z" fill="#0BA19F"/>
<path d="M464.749 312.109V352.85L428.471 331.894V290.86L464.749 312.109Z" fill="#0FBAB8"/>
<path d="M428.471 290.86L464.749 312.109L470.848 308.412L434.478 287.254L428.471 290.86Z" fill="#3ECFCD"/>
<path opacity="0.7" d="M428.471 290.86L464.749 312.109L470.848 308.412L464.438 310.151L428.471 290.86Z" fill="white"/>
<path d="M407.136 302.83C405.855 301.731 404.701 300.34 403.785 298.821C403.236 297.888 403.254 296.881 403.785 296.57C404.481 296.168 405.104 295.509 405.507 294.667C406.093 294.831 406.825 294.612 406.825 293.807C406.825 292.983 406.459 292.086 405.983 291.629C405.836 288.114 404.628 284.491 400.58 282.148C396.533 279.805 395.325 282.038 395.178 285.387C394.684 285.278 394.336 285.754 394.336 286.577C394.336 287.382 395.068 288.444 395.654 288.956C396.057 290.274 396.661 291.629 397.376 292.836C397.907 293.77 397.943 294.795 397.376 295.088C396.46 295.564 395.306 295.618 394.024 295.234C392.321 294.722 391.058 295.747 391.058 297.833V301.457C391.058 302.152 391.552 303.013 392.175 303.379L409.023 313.097C409.627 313.445 410.14 313.17 410.14 312.457V308.833C410.103 306.765 408.84 304.275 407.136 302.83Z" fill="white"/>
<path d="M435.027 329.038L440.906 332.424V321.882L435.027 318.496V329.038ZM444.33 334.401L450.209 337.787V318.46L444.33 315.074V334.401ZM453.633 311.688V339.782L459.512 343.168V315.074L453.633 311.688Z" fill="white"/>
<path d="M362.068 274.113C362.068 273.564 362.013 273.015 361.958 272.448L364.742 272.1C364.467 270.709 364.028 269.281 363.478 267.89L360.31 266.939C359.761 265.749 359.101 264.614 358.332 263.535L359.083 260.35C358.149 259.179 357.124 258.099 356.043 257.165L354.34 259.362C353.882 259.014 353.424 258.703 352.948 258.428C352.472 258.154 352.014 257.934 351.556 257.751L349.853 253.578C348.773 253.285 347.766 253.194 346.813 253.267L347.564 257.33C346.813 257.531 346.154 257.916 345.586 258.447L342.418 255.756C341.869 256.506 341.448 257.44 341.155 258.501L343.938 262.052C343.865 262.528 343.828 263.04 343.828 263.589C343.828 264.139 343.883 264.688 343.938 265.255L341.155 265.603C341.429 266.994 341.869 268.421 342.418 269.812L345.586 270.764C346.136 271.954 346.795 273.088 347.564 274.168L346.813 277.353C347.747 278.524 348.773 279.604 349.853 280.537L351.556 278.341C352.014 278.689 352.472 279 352.948 279.275C353.424 279.549 353.882 279.769 354.34 279.952L356.043 284.125C357.124 284.417 358.131 284.509 359.083 284.436L358.332 280.373C359.083 280.171 359.742 279.787 360.31 279.256L363.478 281.947C364.028 281.196 364.449 280.263 364.742 279.201L361.958 275.651C362.013 275.157 362.068 274.662 362.068 274.113ZM352.967 273.052C350.952 271.88 349.304 269.062 349.304 266.756C349.304 264.431 350.934 263.498 352.967 264.669C354.981 265.841 356.629 268.659 356.629 270.965C356.611 273.29 354.981 274.223 352.967 273.052Z" fill="white"/>
<path d="M293.559 225.905L305.242 244.134L316.926 239.376C316.926 239.376 316.926 239.394 316.944 239.394C316.56 238.826 316.084 238.351 315.553 238.039L294.95 226.143C294.419 225.868 293.943 225.795 293.559 225.905C293.559 225.923 293.559 225.905 293.559 225.905Z" fill="white"/>
<path d="M316.963 239.45L305.242 246.13L301.928 240.42L293.559 243.824C293.54 243.806 293.54 243.787 293.522 243.769L301.305 239.34L293.522 225.943C292.991 226.126 292.643 226.656 292.643 227.48V241.426C292.643 242.872 293.669 244.648 294.932 245.38L315.534 257.276C316.798 258.008 317.824 257.423 317.824 255.977V242.03C317.842 241.17 317.494 240.237 316.963 239.45ZM316.926 257.294L308.557 244.245L309.18 243.897L316.963 257.294C316.944 257.276 316.944 257.294 316.926 257.294Z" fill="white"/>
<path d="M140.351 350.068V402.321L148.611 397.635V345.09L140.351 350.068Z" fill="#2672AB"/>
<path d="M140.406 350.068V402.321L0 321.333V268.806L140.406 350.068Z" fill="#3F92D1"/>
<path d="M0 268.806L140.406 350.068L148.611 345.09L8.13101 263.919L0 268.806Z" fill="#72B5E8"/>
<path opacity="0.7" d="M0 268.806L140.406 350.068L148.611 345.09L140.058 348.53L0 268.806Z" fill="white"/>
<path d="M54.2616 308.741L28.5867 293.935C27.0117 293.02 25.7298 293.752 25.7298 295.564V312.932C25.7298 314.744 27.0117 316.941 28.5867 317.856L44.6289 327.117L52.6501 340.935V331.729L54.2616 332.662C55.8365 333.577 57.1185 332.845 57.1185 331.033V313.665C57.1001 311.853 55.8365 309.638 54.2616 308.741ZM36.1683 311.999C35.3259 312.475 33.9707 311.688 33.1466 310.26C32.3042 308.814 32.3042 307.259 33.1466 306.783C33.989 306.307 35.3442 307.094 36.1683 308.522C36.9924 309.968 36.9924 311.523 36.1683 311.999ZM43.109 316.007C42.2666 316.483 40.9114 315.696 40.0873 314.269C39.2449 312.823 39.2449 311.267 40.0873 310.791C40.9297 310.315 42.2849 311.102 43.109 312.53C43.9514 313.976 43.9514 315.531 43.109 316.007ZM50.0679 320.015C49.2255 320.491 47.8704 319.704 47.0463 318.277C46.2039 316.831 46.2039 315.275 47.0463 314.799C47.8887 314.323 49.2438 315.11 50.0679 316.538C50.892 317.984 50.892 319.54 50.0679 320.015ZM23.5872 311.688V297.577L13.7897 291.921C12.2148 291.006 10.9329 291.738 10.9329 293.55V310.919C10.9329 312.731 12.2148 314.927 13.7897 315.843L15.4013 316.776V325.982L23.4224 321.406L39.4646 330.667C41.0396 331.582 42.3215 330.85 42.3215 329.038V328.215L28.5867 320.29C25.8397 318.716 23.5872 314.854 23.5872 311.688Z" fill="white"/>
<path d="M62.942 317.471V321.809L130.023 360.518V356.181L62.942 317.471Z" fill="white"/>
<path d="M108.816 362.001L62.942 335.499V339.837L108.816 366.339V362.001Z" fill="white"/>
<path d="M62.942 330.832L130.023 369.541V365.204L62.942 326.494V330.832Z" fill="white"/>
<path d="M233.766 454.482C236.385 459.332 234.572 465.372 229.719 467.989C224.866 470.607 218.823 468.795 216.204 463.945C213.585 459.095 215.398 453.055 220.251 450.438C225.104 447.82 231.148 449.632 233.766 454.482Z" fill="#001A46"/>
<path d="M202.195 391.779L180.585 403.419L212.816 462.828C212.835 462.865 212.835 462.883 212.853 462.92C214.721 466.397 221.076 466.598 227.046 463.396C233.016 460.174 236.33 454.757 234.462 451.298C234.444 451.261 234.426 451.243 234.407 451.206L202.195 391.779Z" fill="#084C94"/>
<path d="M202.213 391.815C204.081 395.293 200.766 400.71 194.796 403.913C188.826 407.134 182.472 406.915 180.604 403.437C178.736 399.96 182.05 394.542 188.02 391.339C193.991 388.137 200.345 388.338 202.213 391.815Z" fill="#2672AB"/>
<path d="M188.039 376.02L175.183 382.939L184.321 399.887C184.321 399.905 184.34 399.923 184.34 399.941C185.457 402.01 189.229 402.138 192.782 400.216C196.335 398.313 198.312 395.073 197.195 393.023C197.177 393.005 197.177 392.987 197.159 392.968L188.039 376.02Z" fill="#001A46"/>
<path d="M151.76 239.778C135.755 230.554 121.251 229.492 110.629 235.239C110.336 235.404 95.0998 243.896 94.6237 244.628C105.428 236.484 121.416 236.612 139.271 246.898C171.813 265.676 198.184 311.139 198.184 348.457C198.184 367.492 191.317 380.724 180.274 386.636C181.061 386.416 181.995 386.013 183.149 385.373C183.46 385.19 193.844 378.912 194.155 378.711C204.392 372.47 210.674 359.548 210.674 341.319C210.674 304.019 184.303 258.556 151.76 239.778Z" fill="#72B5E8"/>
<path d="M139.271 246.916C106.729 228.138 80.3578 243.164 80.3578 280.482C80.3578 317.801 106.729 363.264 139.271 382.042C171.813 400.82 198.184 385.794 198.184 348.475C198.184 311.157 171.813 265.676 139.271 246.916ZM138.392 373.129C110.776 357.206 88.3972 318.606 88.3972 286.943C88.3972 255.28 110.776 242.524 138.392 258.465C166.008 274.388 188.387 312.987 188.387 344.65C188.387 376.295 166.008 389.052 138.392 373.129Z" fill="#D1EBFF"/>
<path d="M148.739 367.345C121.123 351.422 98.7441 312.823 98.7441 281.16C98.7441 268.238 102.462 258.483 108.761 252.517C96.4183 255.829 88.3972 268 88.3972 286.943C88.3972 318.606 110.776 357.187 138.392 373.129C154.746 382.554 169.249 381.932 178.369 373.293C170.074 375.508 159.837 373.751 148.739 367.345Z" fill="#72B5E8"/>
<path d="M142.091 245.489C126.488 236.484 112.332 235.276 101.784 240.547C111.6 237.802 126.067 239.284 139.271 246.898C171.813 265.676 198.184 311.139 198.184 348.457C198.184 367.876 188.771 381.822 177.307 387.533C191.683 383.506 201.004 369.212 201.004 347.048C201.004 309.73 174.633 264.267 142.091 245.489Z" fill="white"/>
</g>
<defs>
<clipPath id="clip0">
<rect width="624" height="558" fill="white"/>
</clipPath>
</defs>
</svg>
