<svg width="380" height="199" viewBox="0 0 380 199" fill="none" xmlns="http://www.w3.org/2000/svg">
<path d="M2.36 122H12.6V123.26H3.82V127.84H8.4C10.0533 127.84 11.3067 128.18 12.16 128.86C13.0267 129.54 13.46 130.527 13.46 131.82C13.46 133.167 12.9933 134.2 12.06 134.92C11.14 135.64 9.81333 136 8.08 136H2.36V122ZM8.06 134.82C9.35333 134.82 10.3267 134.573 10.98 134.08C11.6467 133.587 11.98 132.853 11.98 131.88C11.98 130.92 11.6533 130.207 11 129.74C10.36 129.26 9.38 129.02 8.06 129.02H3.82V134.82H8.06ZM25.7513 131.18H16.9513C17.0313 132.273 17.4513 133.16 18.2113 133.84C18.9713 134.507 19.9313 134.84 21.0913 134.84C21.7446 134.84 22.3446 134.727 22.8913 134.5C23.4379 134.26 23.9113 133.913 24.3113 133.46L25.1113 134.38C24.6446 134.94 24.0579 135.367 23.3513 135.66C22.6579 135.953 21.8913 136.1 21.0513 136.1C19.9713 136.1 19.0113 135.873 18.1713 135.42C17.3446 134.953 16.6979 134.313 16.2313 133.5C15.7646 132.687 15.5313 131.767 15.5313 130.74C15.5313 129.713 15.7513 128.793 16.1913 127.98C16.6446 127.167 17.2579 126.533 18.0313 126.08C18.8179 125.627 19.6979 125.4 20.6713 125.4C21.6446 125.4 22.5179 125.627 23.2913 126.08C24.0646 126.533 24.6713 127.167 25.1113 127.98C25.5513 128.78 25.7713 129.7 25.7713 130.74L25.7513 131.18ZM20.6713 126.62C19.6579 126.62 18.8046 126.947 18.1113 127.6C17.4313 128.24 17.0446 129.08 16.9513 130.12H24.4113C24.3179 129.08 23.9246 128.24 23.2313 127.6C22.5513 126.947 21.6979 126.62 20.6713 126.62ZM33.3145 136.1C32.2745 136.1 31.3412 135.873 30.5145 135.42C29.7012 134.967 29.0612 134.333 28.5945 133.52C28.1279 132.693 27.8945 131.767 27.8945 130.74C27.8945 129.713 28.1279 128.793 28.5945 127.98C29.0612 127.167 29.7012 126.533 30.5145 126.08C31.3412 125.627 32.2745 125.4 33.3145 125.4C34.2212 125.4 35.0279 125.58 35.7345 125.94C36.4545 126.287 37.0212 126.8 37.4345 127.48L36.3745 128.2C36.0279 127.68 35.5879 127.293 35.0545 127.04C34.5212 126.773 33.9412 126.64 33.3145 126.64C32.5545 126.64 31.8679 126.813 31.2545 127.16C30.6545 127.493 30.1812 127.973 29.8345 128.6C29.5012 129.227 29.3345 129.94 29.3345 130.74C29.3345 131.553 29.5012 132.273 29.8345 132.9C30.1812 133.513 30.6545 133.993 31.2545 134.34C31.8679 134.673 32.5545 134.84 33.3145 134.84C33.9412 134.84 34.5212 134.713 35.0545 134.46C35.5879 134.207 36.0279 133.82 36.3745 133.3L37.4345 134.02C37.0212 134.7 36.4545 135.22 35.7345 135.58C35.0145 135.927 34.2079 136.1 33.3145 136.1ZM49.6241 125.48V136H48.2041V126.74H41.6041V136H40.1841V125.48H49.6241ZM62.2606 125.48V136H60.8406V126.74H55.8006L55.6606 129.34C55.554 131.527 55.3006 133.207 54.9006 134.38C54.5006 135.553 53.7873 136.14 52.7606 136.14C52.4806 136.14 52.1406 136.087 51.7406 135.98L51.8406 134.76C52.0806 134.813 52.2473 134.84 52.3406 134.84C52.8873 134.84 53.3006 134.587 53.5806 134.08C53.8606 133.573 54.0473 132.947 54.1406 132.2C54.234 131.453 54.314 130.467 54.3806 129.24L54.5606 125.48H62.2606ZM69.9173 125.4C71.2907 125.4 72.344 125.747 73.0773 126.44C73.8107 127.12 74.1773 128.133 74.1773 129.48V136H72.8173V134.36C72.4973 134.907 72.024 135.333 71.3973 135.64C70.784 135.947 70.0507 136.1 69.1973 136.1C68.024 136.1 67.0907 135.82 66.3973 135.26C65.704 134.7 65.3573 133.96 65.3573 133.04C65.3573 132.147 65.6773 131.427 66.3173 130.88C66.9707 130.333 68.004 130.06 69.4173 130.06H72.7573V129.42C72.7573 128.513 72.504 127.827 71.9973 127.36C71.4907 126.88 70.7507 126.64 69.7773 126.64C69.1107 126.64 68.4707 126.753 67.8573 126.98C67.244 127.193 66.7173 127.493 66.2773 127.88L65.6373 126.82C66.1707 126.367 66.8107 126.02 67.5573 125.78C68.304 125.527 69.0907 125.4 69.9173 125.4ZM69.4173 134.98C70.2173 134.98 70.904 134.8 71.4773 134.44C72.0507 134.067 72.4773 133.533 72.7573 132.84V131.12H69.4573C67.6573 131.12 66.7573 131.747 66.7573 133C66.7573 133.613 66.9907 134.1 67.4573 134.46C67.924 134.807 68.5773 134.98 69.4173 134.98ZM85.3575 126.74H81.3775V136H79.9575V126.74H75.9775V125.48H85.3575V126.74ZM87.4106 125.48H88.8306V130.14H95.4506V125.48H96.8706V136H95.4506V131.36H88.8306V136H87.4106V125.48ZM104.527 125.4C105.9 125.4 106.953 125.747 107.687 126.44C108.42 127.12 108.787 128.133 108.787 129.48V136H107.427V134.36C107.107 134.907 106.633 135.333 106.007 135.64C105.393 135.947 104.66 136.1 103.807 136.1C102.633 136.1 101.7 135.82 101.007 135.26C100.313 134.7 99.9667 133.96 99.9667 133.04C99.9667 132.147 100.287 131.427 100.927 130.88C101.58 130.333 102.613 130.06 104.027 130.06H107.367V129.42C107.367 128.513 107.113 127.827 106.607 127.36C106.1 126.88 105.36 126.64 104.387 126.64C103.72 126.64 103.08 126.753 102.467 126.98C101.853 127.193 101.327 127.493 100.887 127.88L100.247 126.82C100.78 126.367 101.42 126.02 102.167 125.78C102.913 125.527 103.7 125.4 104.527 125.4ZM104.027 134.98C104.827 134.98 105.513 134.8 106.087 134.44C106.66 134.067 107.087 133.533 107.367 132.84V131.12H104.067C102.267 131.12 101.367 131.747 101.367 133C101.367 133.613 101.6 134.1 102.067 134.46C102.533 134.807 103.187 134.98 104.027 134.98ZM120.647 125.48V136H119.347V132.52H116.047H115.647L113.207 136H111.667L114.287 132.32C113.474 132.093 112.847 131.707 112.407 131.16C111.967 130.613 111.747 129.92 111.747 129.08C111.747 127.907 112.147 127.013 112.947 126.4C113.747 125.787 114.84 125.48 116.227 125.48H120.647ZM113.187 129.12C113.187 130.68 114.18 131.46 116.167 131.46H119.347V126.74H116.267C114.214 126.74 113.187 127.533 113.187 129.12ZM139.37 125.48V136H137.95V126.74H131.35V136H129.93V125.48H139.37ZM147.747 136.1C146.733 136.1 145.82 135.873 145.007 135.42C144.193 134.953 143.553 134.313 143.087 133.5C142.62 132.687 142.387 131.767 142.387 130.74C142.387 129.713 142.62 128.793 143.087 127.98C143.553 127.167 144.193 126.533 145.007 126.08C145.82 125.627 146.733 125.4 147.747 125.4C148.76 125.4 149.673 125.627 150.487 126.08C151.3 126.533 151.933 127.167 152.387 127.98C152.853 128.793 153.087 129.713 153.087 130.74C153.087 131.767 152.853 132.687 152.387 133.5C151.933 134.313 151.3 134.953 150.487 135.42C149.673 135.873 148.76 136.1 147.747 136.1ZM147.747 134.84C148.493 134.84 149.16 134.673 149.747 134.34C150.347 133.993 150.813 133.507 151.147 132.88C151.48 132.253 151.647 131.54 151.647 130.74C151.647 129.94 151.48 129.227 151.147 128.6C150.813 127.973 150.347 127.493 149.747 127.16C149.16 126.813 148.493 126.64 147.747 126.64C147 126.64 146.327 126.813 145.727 127.16C145.14 127.493 144.673 127.973 144.327 128.6C143.993 129.227 143.827 129.94 143.827 130.74C143.827 131.54 143.993 132.253 144.327 132.88C144.673 133.507 145.14 133.993 145.727 134.34C146.327 134.673 147 134.84 147.747 134.84ZM166.323 134.76V138.54H164.983V136H155.563V138.54H154.223V134.76H154.823C155.53 134.72 156.01 134.2 156.263 133.2C156.516 132.2 156.69 130.8 156.783 129L156.923 125.48H164.683V134.76H166.323ZM158.083 129.08C158.016 130.573 157.89 131.807 157.703 132.78C157.516 133.74 157.183 134.4 156.703 134.76H163.263V126.74H158.203L158.083 129.08ZM179.35 134.76V138.54H178.01V136H168.59V138.54H167.25V134.76H167.85C168.557 134.72 169.037 134.2 169.29 133.2C169.544 132.2 169.717 130.8 169.81 129L169.95 125.48H177.71V134.76H179.35ZM171.11 129.08C171.044 130.573 170.917 131.807 170.73 132.78C170.544 133.74 170.21 134.4 169.73 134.76H176.29V126.74H171.23L171.11 129.08ZM191.318 131.18H182.518C182.598 132.273 183.018 133.16 183.778 133.84C184.538 134.507 185.498 134.84 186.658 134.84C187.311 134.84 187.911 134.727 188.458 134.5C189.004 134.26 189.478 133.913 189.878 133.46L190.678 134.38C190.211 134.94 189.624 135.367 188.918 135.66C188.224 135.953 187.458 136.1 186.618 136.1C185.538 136.1 184.578 135.873 183.738 135.42C182.911 134.953 182.264 134.313 181.798 133.5C181.331 132.687 181.098 131.767 181.098 130.74C181.098 129.713 181.318 128.793 181.758 127.98C182.211 127.167 182.824 126.533 183.598 126.08C184.384 125.627 185.264 125.4 186.238 125.4C187.211 125.4 188.084 125.627 188.858 126.08C189.631 126.533 190.238 127.167 190.678 127.98C191.118 128.78 191.338 129.7 191.338 130.74L191.318 131.18ZM186.238 126.62C185.224 126.62 184.371 126.947 183.678 127.6C182.998 128.24 182.611 129.08 182.518 130.12H189.978C189.884 129.08 189.491 128.24 188.798 127.6C188.118 126.947 187.264 126.62 186.238 126.62ZM199.901 125.4C200.888 125.4 201.781 125.627 202.581 126.08C203.381 126.52 204.008 127.147 204.461 127.96C204.914 128.773 205.141 129.7 205.141 130.74C205.141 131.793 204.914 132.727 204.461 133.54C204.008 134.353 203.381 134.987 202.581 135.44C201.794 135.88 200.901 136.1 199.901 136.1C199.048 136.1 198.274 135.927 197.581 135.58C196.901 135.22 196.341 134.7 195.901 134.02V139.88H194.481V125.48H195.841V127.56C196.268 126.867 196.828 126.333 197.521 125.96C198.228 125.587 199.021 125.4 199.901 125.4ZM199.801 134.84C200.534 134.84 201.201 134.673 201.801 134.34C202.401 133.993 202.868 133.507 203.201 132.88C203.548 132.253 203.721 131.54 203.721 130.74C203.721 129.94 203.548 129.233 203.201 128.62C202.868 127.993 202.401 127.507 201.801 127.16C201.201 126.813 200.534 126.64 199.801 126.64C199.054 126.64 198.381 126.813 197.781 127.16C197.194 127.507 196.728 127.993 196.381 128.62C196.048 129.233 195.881 129.94 195.881 130.74C195.881 131.54 196.048 132.253 196.381 132.88C196.728 133.507 197.194 133.993 197.781 134.34C198.381 134.673 199.054 134.84 199.801 134.84ZM217.041 131.32H214.761V136H213.341V131.32H211.061L207.841 136H206.141L209.921 130.58L206.441 125.48H207.981L211.061 130.1H213.341V125.48H214.761V130.1H217.041L220.141 125.48H221.681L218.201 130.6L221.981 136H220.281L217.041 131.32ZM228.164 131.32H225.764V136H224.344V125.48H225.764V130.1H228.184L231.884 125.48H233.424L229.284 130.58L233.724 136H232.044L228.164 131.32ZM239.39 125.4C240.763 125.4 241.817 125.747 242.55 126.44C243.283 127.12 243.65 128.133 243.65 129.48V136H242.29V134.36C241.97 134.907 241.497 135.333 240.87 135.64C240.257 135.947 239.523 136.1 238.67 136.1C237.497 136.1 236.563 135.82 235.87 135.26C235.177 134.7 234.83 133.96 234.83 133.04C234.83 132.147 235.15 131.427 235.79 130.88C236.443 130.333 237.477 130.06 238.89 130.06H242.23V129.42C242.23 128.513 241.977 127.827 241.47 127.36C240.963 126.88 240.223 126.64 239.25 126.64C238.583 126.64 237.943 126.753 237.33 126.98C236.717 127.193 236.19 127.493 235.75 127.88L235.11 126.82C235.643 126.367 236.283 126.02 237.03 125.78C237.777 125.527 238.563 125.4 239.39 125.4ZM238.89 134.98C239.69 134.98 240.377 134.8 240.95 134.44C241.523 134.067 241.95 133.533 242.23 132.84V131.12H238.93C237.13 131.12 236.23 131.747 236.23 133C236.23 133.613 236.463 134.1 236.93 134.46C237.397 134.807 238.05 134.98 238.89 134.98ZM7.44 153.4C8.42667 153.4 9.32 153.627 10.12 154.08C10.92 154.52 11.5467 155.147 12 155.96C12.4533 156.773 12.68 157.7 12.68 158.74C12.68 159.793 12.4533 160.727 12 161.54C11.5467 162.353 10.92 162.987 10.12 163.44C9.33333 163.88 8.44 164.1 7.44 164.1C6.58667 164.1 5.81333 163.927 5.12 163.58C4.44 163.22 3.88 162.7 3.44 162.02V167.88H2.02V153.48H3.38V155.56C3.80667 154.867 4.36667 154.333 5.06 153.96C5.76667 153.587 6.56 153.4 7.44 153.4ZM7.34 162.84C8.07333 162.84 8.74 162.673 9.34 162.34C9.94 161.993 10.4067 161.507 10.74 160.88C11.0867 160.253 11.26 159.54 11.26 158.74C11.26 157.94 11.0867 157.233 10.74 156.62C10.4067 155.993 9.94 155.507 9.34 155.16C8.74 154.813 8.07333 154.64 7.34 154.64C6.59333 154.64 5.92 154.813 5.32 155.16C4.73333 155.507 4.26667 155.993 3.92 156.62C3.58667 157.233 3.42 157.94 3.42 158.74C3.42 159.54 3.58667 160.253 3.92 160.88C4.26667 161.507 4.73333 161.993 5.32 162.34C5.92 162.673 6.59333 162.84 7.34 162.84ZM19.2923 153.4C20.6657 153.4 21.719 153.747 22.4523 154.44C23.1857 155.12 23.5523 156.133 23.5523 157.48V164H22.1923V162.36C21.8723 162.907 21.399 163.333 20.7723 163.64C20.159 163.947 19.4257 164.1 18.5723 164.1C17.399 164.1 16.4657 163.82 15.7723 163.26C15.079 162.7 14.7323 161.96 14.7323 161.04C14.7323 160.147 15.0523 159.427 15.6923 158.88C16.3457 158.333 17.379 158.06 18.7923 158.06H22.1323V157.42C22.1323 156.513 21.879 155.827 21.3723 155.36C20.8657 154.88 20.1257 154.64 19.1523 154.64C18.4857 154.64 17.8457 154.753 17.2323 154.98C16.619 155.193 16.0923 155.493 15.6523 155.88L15.0123 154.82C15.5457 154.367 16.1857 154.02 16.9323 153.78C17.679 153.527 18.4657 153.4 19.2923 153.4ZM18.7923 162.98C19.5923 162.98 20.279 162.8 20.8523 162.44C21.4257 162.067 21.8523 161.533 22.1323 160.84V159.12H18.8323C17.0323 159.12 16.1323 159.747 16.1323 161C16.1323 161.613 16.3657 162.1 16.8323 162.46C17.299 162.807 17.9523 162.98 18.7923 162.98ZM32.4325 153.74C33.4058 153.74 34.2725 153.96 35.0325 154.4C35.8058 154.827 36.4058 155.433 36.8325 156.22C37.2592 156.993 37.4725 157.88 37.4725 158.88C37.4725 159.907 37.2458 160.82 36.7925 161.62C36.3525 162.407 35.7325 163.02 34.9325 163.46C34.1325 163.9 33.2125 164.12 32.1725 164.12C30.4258 164.12 29.0725 163.507 28.1125 162.28C27.1525 161.053 26.6725 159.36 26.6725 157.2C26.6725 154.947 27.0992 153.22 27.9525 152.02C28.8192 150.82 30.1658 150.007 31.9925 149.58L36.7125 148.5L36.9525 149.8L32.5125 150.82C31.0058 151.153 29.8992 151.747 29.1925 152.6C28.4858 153.44 28.0992 154.687 28.0325 156.34C28.4592 155.527 29.0525 154.893 29.8125 154.44C30.5725 153.973 31.4458 153.74 32.4325 153.74ZM32.2125 162.94C32.9458 162.94 33.5992 162.773 34.1725 162.44C34.7592 162.093 35.2125 161.613 35.5325 161C35.8658 160.387 36.0325 159.693 36.0325 158.92C36.0325 158.147 35.8725 157.467 35.5525 156.88C35.2325 156.293 34.7792 155.84 34.1925 155.52C33.6192 155.187 32.9592 155.02 32.2125 155.02C31.4658 155.02 30.7992 155.187 30.2125 155.52C29.6392 155.84 29.1858 156.293 28.8525 156.88C28.5325 157.467 28.3725 158.147 28.3725 158.92C28.3725 159.693 28.5325 160.387 28.8525 161C29.1858 161.613 29.6458 162.093 30.2325 162.44C30.8192 162.773 31.4792 162.94 32.2125 162.94ZM44.8561 164.1C43.8428 164.1 42.9294 163.873 42.1161 163.42C41.3028 162.953 40.6628 162.313 40.1961 161.5C39.7294 160.687 39.4961 159.767 39.4961 158.74C39.4961 157.713 39.7294 156.793 40.1961 155.98C40.6628 155.167 41.3028 154.533 42.1161 154.08C42.9294 153.627 43.8428 153.4 44.8561 153.4C45.8694 153.4 46.7828 153.627 47.5961 154.08C48.4094 154.533 49.0428 155.167 49.4961 155.98C49.9628 156.793 50.1961 157.713 50.1961 158.74C50.1961 159.767 49.9628 160.687 49.4961 161.5C49.0428 162.313 48.4094 162.953 47.5961 163.42C46.7828 163.873 45.8694 164.1 44.8561 164.1ZM44.8561 162.84C45.6028 162.84 46.2694 162.673 46.8561 162.34C47.4561 161.993 47.9228 161.507 48.2561 160.88C48.5894 160.253 48.7561 159.54 48.7561 158.74C48.7561 157.94 48.5894 157.227 48.2561 156.6C47.9228 155.973 47.4561 155.493 46.8561 155.16C46.2694 154.813 45.6028 154.64 44.8561 154.64C44.1094 154.64 43.4361 154.813 42.8361 155.16C42.2494 155.493 41.7828 155.973 41.4361 156.6C41.1028 157.227 40.9361 157.94 40.9361 158.74C40.9361 159.54 41.1028 160.253 41.4361 160.88C41.7828 161.507 42.2494 161.993 42.8361 162.34C43.4361 162.673 44.1094 162.84 44.8561 162.84ZM60.2403 154.74H56.2603V164H54.8403V154.74H50.8603V153.48H60.2403V154.74ZM66.1452 164.1C65.1318 164.1 64.2185 163.873 63.4052 163.42C62.5918 162.953 61.9518 162.313 61.4852 161.5C61.0185 160.687 60.7852 159.767 60.7852 158.74C60.7852 157.713 61.0185 156.793 61.4852 155.98C61.9518 155.167 62.5918 154.533 63.4052 154.08C64.2185 153.627 65.1318 153.4 66.1452 153.4C67.1585 153.4 68.0718 153.627 68.8852 154.08C69.6985 154.533 70.3318 155.167 70.7852 155.98C71.2518 156.793 71.4852 157.713 71.4852 158.74C71.4852 159.767 71.2518 160.687 70.7852 161.5C70.3318 162.313 69.6985 162.953 68.8852 163.42C68.0718 163.873 67.1585 164.1 66.1452 164.1ZM66.1452 162.84C66.8918 162.84 67.5585 162.673 68.1452 162.34C68.7452 161.993 69.2118 161.507 69.5452 160.88C69.8785 160.253 70.0452 159.54 70.0452 158.74C70.0452 157.94 69.8785 157.227 69.5452 156.6C69.2118 155.973 68.7452 155.493 68.1452 155.16C67.5585 154.813 66.8918 154.64 66.1452 154.64C65.3985 154.64 64.7252 154.813 64.1252 155.16C63.5385 155.493 63.0718 155.973 62.7252 156.6C62.3918 157.227 62.2252 157.94 62.2252 158.74C62.2252 159.54 62.3918 160.253 62.7252 160.88C63.0718 161.507 63.5385 161.993 64.1252 162.34C64.7252 162.673 65.3985 162.84 66.1452 162.84ZM78.92 164.1C77.88 164.1 76.9467 163.873 76.12 163.42C75.3067 162.967 74.6667 162.333 74.2 161.52C73.7333 160.693 73.5 159.767 73.5 158.74C73.5 157.713 73.7333 156.793 74.2 155.98C74.6667 155.167 75.3067 154.533 76.12 154.08C76.9467 153.627 77.88 153.4 78.92 153.4C79.8267 153.4 80.6333 153.58 81.34 153.94C82.06 154.287 82.6267 154.8 83.04 155.48L81.98 156.2C81.6333 155.68 81.1933 155.293 80.66 155.04C80.1267 154.773 79.5467 154.64 78.92 154.64C78.16 154.64 77.4733 154.813 76.86 155.16C76.26 155.493 75.7867 155.973 75.44 156.6C75.1067 157.227 74.94 157.94 74.94 158.74C74.94 159.553 75.1067 160.273 75.44 160.9C75.7867 161.513 76.26 161.993 76.86 162.34C77.4733 162.673 78.16 162.84 78.92 162.84C79.5467 162.84 80.1267 162.713 80.66 162.46C81.1933 162.207 81.6333 161.82 81.98 161.3L83.04 162.02C82.6267 162.7 82.06 163.22 81.34 163.58C80.62 163.927 79.8133 164.1 78.92 164.1ZM95.2295 153.48V164H93.8095V154.74H87.2095V164H85.7895V153.48H95.2295ZM103.606 164.1C102.593 164.1 101.679 163.873 100.866 163.42C100.053 162.953 99.4128 162.313 98.9461 161.5C98.4794 160.687 98.2461 159.767 98.2461 158.74C98.2461 157.713 98.4794 156.793 98.9461 155.98C99.4128 155.167 100.053 154.533 100.866 154.08C101.679 153.627 102.593 153.4 103.606 153.4C104.619 153.4 105.533 153.627 106.346 154.08C107.159 154.533 107.793 155.167 108.246 155.98C108.713 156.793 108.946 157.713 108.946 158.74C108.946 159.767 108.713 160.687 108.246 161.5C107.793 162.313 107.159 162.953 106.346 163.42C105.533 163.873 104.619 164.1 103.606 164.1ZM103.606 162.84C104.353 162.84 105.019 162.673 105.606 162.34C106.206 161.993 106.673 161.507 107.006 160.88C107.339 160.253 107.506 159.54 107.506 158.74C107.506 157.94 107.339 157.227 107.006 156.6C106.673 155.973 106.206 155.493 105.606 155.16C105.019 154.813 104.353 154.64 103.606 154.64C102.859 154.64 102.186 154.813 101.586 155.16C100.999 155.493 100.533 155.973 100.186 156.6C99.8528 157.227 99.6861 157.94 99.6861 158.74C99.6861 159.54 99.8528 160.253 100.186 160.88C100.533 161.507 100.999 161.993 101.586 162.34C102.186 162.673 102.859 162.84 103.606 162.84ZM116.381 164.1C115.341 164.1 114.408 163.873 113.581 163.42C112.768 162.967 112.128 162.333 111.661 161.52C111.194 160.693 110.961 159.767 110.961 158.74C110.961 157.713 111.194 156.793 111.661 155.98C112.128 155.167 112.768 154.533 113.581 154.08C114.408 153.627 115.341 153.4 116.381 153.4C117.288 153.4 118.094 153.58 118.801 153.94C119.521 154.287 120.088 154.8 120.501 155.48L119.441 156.2C119.094 155.68 118.654 155.293 118.121 155.04C117.588 154.773 117.008 154.64 116.381 154.64C115.621 154.64 114.934 154.813 114.321 155.16C113.721 155.493 113.248 155.973 112.901 156.6C112.568 157.227 112.401 157.94 112.401 158.74C112.401 159.553 112.568 160.273 112.901 160.9C113.248 161.513 113.721 161.993 114.321 162.34C114.934 162.673 115.621 162.84 116.381 162.84C117.008 162.84 117.588 162.713 118.121 162.46C118.654 162.207 119.094 161.82 119.441 161.3L120.501 162.02C120.088 162.7 119.521 163.22 118.801 163.58C118.081 163.927 117.274 164.1 116.381 164.1ZM127.415 164.1C126.401 164.1 125.488 163.873 124.675 163.42C123.861 162.953 123.221 162.313 122.755 161.5C122.288 160.687 122.055 159.767 122.055 158.74C122.055 157.713 122.288 156.793 122.755 155.98C123.221 155.167 123.861 154.533 124.675 154.08C125.488 153.627 126.401 153.4 127.415 153.4C128.428 153.4 129.341 153.627 130.155 154.08C130.968 154.533 131.601 155.167 132.055 155.98C132.521 156.793 132.755 157.713 132.755 158.74C132.755 159.767 132.521 160.687 132.055 161.5C131.601 162.313 130.968 162.953 130.155 163.42C129.341 163.873 128.428 164.1 127.415 164.1ZM127.415 162.84C128.161 162.84 128.828 162.673 129.415 162.34C130.015 161.993 130.481 161.507 130.815 160.88C131.148 160.253 131.315 159.54 131.315 158.74C131.315 157.94 131.148 157.227 130.815 156.6C130.481 155.973 130.015 155.493 129.415 155.16C128.828 154.813 128.161 154.64 127.415 154.64C126.668 154.64 125.995 154.813 125.395 155.16C124.808 155.493 124.341 155.973 123.995 156.6C123.661 157.227 123.495 157.94 123.495 158.74C123.495 159.54 123.661 160.253 123.995 160.88C124.341 161.507 124.808 161.993 125.395 162.34C125.995 162.673 126.668 162.84 127.415 162.84ZM140.89 153.74C141.863 153.74 142.73 153.96 143.49 154.4C144.263 154.827 144.863 155.433 145.29 156.22C145.716 156.993 145.93 157.88 145.93 158.88C145.93 159.907 145.703 160.82 145.25 161.62C144.81 162.407 144.19 163.02 143.39 163.46C142.59 163.9 141.67 164.12 140.63 164.12C138.883 164.12 137.53 163.507 136.57 162.28C135.61 161.053 135.13 159.36 135.13 157.2C135.13 154.947 135.556 153.22 136.41 152.02C137.276 150.82 138.623 150.007 140.45 149.58L145.17 148.5L145.41 149.8L140.97 150.82C139.463 151.153 138.356 151.747 137.65 152.6C136.943 153.44 136.556 154.687 136.49 156.34C136.916 155.527 137.51 154.893 138.27 154.44C139.03 153.973 139.903 153.74 140.89 153.74ZM140.67 162.94C141.403 162.94 142.056 162.773 142.63 162.44C143.216 162.093 143.67 161.613 143.99 161C144.323 160.387 144.49 159.693 144.49 158.92C144.49 158.147 144.33 157.467 144.01 156.88C143.69 156.293 143.236 155.84 142.65 155.52C142.076 155.187 141.416 155.02 140.67 155.02C139.923 155.02 139.256 155.187 138.67 155.52C138.096 155.84 137.643 156.293 137.31 156.88C136.99 157.467 136.83 158.147 136.83 158.92C136.83 159.693 136.99 160.387 137.31 161C137.643 161.613 138.103 162.093 138.69 162.44C139.276 162.773 139.936 162.94 140.67 162.94ZM148.973 153.48H150.393V158.14H157.013V153.48H158.433V164H157.013V159.36H150.393V164H148.973V153.48ZM166.809 164.1C165.796 164.1 164.883 163.873 164.069 163.42C163.256 162.953 162.616 162.313 162.149 161.5C161.683 160.687 161.449 159.767 161.449 158.74C161.449 157.713 161.683 156.793 162.149 155.98C162.616 155.167 163.256 154.533 164.069 154.08C164.883 153.627 165.796 153.4 166.809 153.4C167.823 153.4 168.736 153.627 169.549 154.08C170.363 154.533 170.996 155.167 171.449 155.98C171.916 156.793 172.149 157.713 172.149 158.74C172.149 159.767 171.916 160.687 171.449 161.5C170.996 162.313 170.363 162.953 169.549 163.42C168.736 163.873 167.823 164.1 166.809 164.1ZM166.809 162.84C167.556 162.84 168.223 162.673 168.809 162.34C169.409 161.993 169.876 161.507 170.209 160.88C170.543 160.253 170.709 159.54 170.709 158.74C170.709 157.94 170.543 157.227 170.209 156.6C169.876 155.973 169.409 155.493 168.809 155.16C168.223 154.813 167.556 154.64 166.809 154.64C166.063 154.64 165.389 154.813 164.789 155.16C164.203 155.493 163.736 155.973 163.389 156.6C163.056 157.227 162.889 157.94 162.889 158.74C162.889 159.54 163.056 160.253 163.389 160.88C163.736 161.507 164.203 161.993 164.789 162.34C165.389 162.673 166.063 162.84 166.809 162.84ZM179.584 164.1C178.544 164.1 177.611 163.873 176.784 163.42C175.971 162.967 175.331 162.333 174.864 161.52C174.397 160.693 174.164 159.767 174.164 158.74C174.164 157.713 174.397 156.793 174.864 155.98C175.331 155.167 175.971 154.533 176.784 154.08C177.611 153.627 178.544 153.4 179.584 153.4C180.491 153.4 181.297 153.58 182.004 153.94C182.724 154.287 183.291 154.8 183.704 155.48L182.644 156.2C182.297 155.68 181.857 155.293 181.324 155.04C180.791 154.773 180.211 154.64 179.584 154.64C178.824 154.64 178.137 154.813 177.524 155.16C176.924 155.493 176.451 155.973 176.104 156.6C175.771 157.227 175.604 157.94 175.604 158.74C175.604 159.553 175.771 160.273 176.104 160.9C176.451 161.513 176.924 161.993 177.524 162.34C178.137 162.673 178.824 162.84 179.584 162.84C180.211 162.84 180.791 162.713 181.324 162.46C181.857 162.207 182.297 161.82 182.644 161.3L183.704 162.02C183.291 162.7 182.724 163.22 182.004 163.58C181.284 163.927 180.477 164.1 179.584 164.1ZM193.658 154.74H189.678V164H188.258V154.74H184.278V153.48H193.658V154.74ZM195.711 153.48H197.131V161.84L204.151 153.48H205.411V164H203.991V155.64L196.991 164H195.711V153.48ZM214.715 153.48H216.135V161.84L223.155 153.48H224.415V164H222.995V155.64L215.995 164H214.715V153.48ZM238.059 164.1C237.046 164.1 236.133 163.873 235.319 163.42C234.506 162.953 233.866 162.313 233.399 161.5C232.933 160.687 232.699 159.767 232.699 158.74C232.699 157.713 232.933 156.793 233.399 155.98C233.866 155.167 234.506 154.533 235.319 154.08C236.133 153.627 237.046 153.4 238.059 153.4C239.073 153.4 239.986 153.627 240.799 154.08C241.613 154.533 242.246 155.167 242.699 155.98C243.166 156.793 243.399 157.713 243.399 158.74C243.399 159.767 243.166 160.687 242.699 161.5C242.246 162.313 241.613 162.953 240.799 163.42C239.986 163.873 239.073 164.1 238.059 164.1ZM238.059 162.84C238.806 162.84 239.473 162.673 240.059 162.34C240.659 161.993 241.126 161.507 241.459 160.88C241.793 160.253 241.959 159.54 241.959 158.74C241.959 157.94 241.793 157.227 241.459 156.6C241.126 155.973 240.659 155.493 240.059 155.16C239.473 154.813 238.806 154.64 238.059 154.64C237.313 154.64 236.639 154.813 236.039 155.16C235.453 155.493 234.986 155.973 234.639 156.6C234.306 157.227 234.139 157.94 234.139 158.74C234.139 159.54 234.306 160.253 234.639 160.88C234.986 161.507 235.453 161.993 236.039 162.34C236.639 162.673 237.313 162.84 238.059 162.84ZM251.534 153.74C252.507 153.74 253.374 153.96 254.134 154.4C254.907 154.827 255.507 155.433 255.934 156.22C256.361 156.993 256.574 157.88 256.574 158.88C256.574 159.907 256.347 160.82 255.894 161.62C255.454 162.407 254.834 163.02 254.034 163.46C253.234 163.9 252.314 164.12 251.274 164.12C249.527 164.12 248.174 163.507 247.214 162.28C246.254 161.053 245.774 159.36 245.774 157.2C245.774 154.947 246.201 153.22 247.054 152.02C247.921 150.82 249.267 150.007 251.094 149.58L255.814 148.5L256.054 149.8L251.614 150.82C250.107 151.153 249.001 151.747 248.294 152.6C247.587 153.44 247.201 154.687 247.134 156.34C247.561 155.527 248.154 154.893 248.914 154.44C249.674 153.973 250.547 153.74 251.534 153.74ZM251.314 162.94C252.047 162.94 252.701 162.773 253.274 162.44C253.861 162.093 254.314 161.613 254.634 161C254.967 160.387 255.134 159.693 255.134 158.92C255.134 158.147 254.974 157.467 254.654 156.88C254.334 156.293 253.881 155.84 253.294 155.52C252.721 155.187 252.061 155.02 251.314 155.02C250.567 155.02 249.901 155.187 249.314 155.52C248.741 155.84 248.287 156.293 247.954 156.88C247.634 157.467 247.474 158.147 247.474 158.92C247.474 159.693 247.634 160.387 247.954 161C248.287 161.613 248.747 162.093 249.334 162.44C249.921 162.773 250.581 162.94 251.314 162.94ZM259.618 153.48H261.038V158.14H267.658V153.48H269.078V164H267.658V159.36H261.038V164H259.618V153.48ZM277.454 164.1C276.44 164.1 275.527 163.873 274.714 163.42C273.9 162.953 273.26 162.313 272.794 161.5C272.327 160.687 272.094 159.767 272.094 158.74C272.094 157.713 272.327 156.793 272.794 155.98C273.26 155.167 273.9 154.533 274.714 154.08C275.527 153.627 276.44 153.4 277.454 153.4C278.467 153.4 279.38 153.627 280.194 154.08C281.007 154.533 281.64 155.167 282.094 155.98C282.56 156.793 282.794 157.713 282.794 158.74C282.794 159.767 282.56 160.687 282.094 161.5C281.64 162.313 281.007 162.953 280.194 163.42C279.38 163.873 278.467 164.1 277.454 164.1ZM277.454 162.84C278.2 162.84 278.867 162.673 279.454 162.34C280.054 161.993 280.52 161.507 280.854 160.88C281.187 160.253 281.354 159.54 281.354 158.74C281.354 157.94 281.187 157.227 280.854 156.6C280.52 155.973 280.054 155.493 279.454 155.16C278.867 154.813 278.2 154.64 277.454 154.64C276.707 154.64 276.034 154.813 275.434 155.16C274.847 155.493 274.38 155.973 274.034 156.6C273.7 157.227 273.534 157.94 273.534 158.74C273.534 159.54 273.7 160.253 274.034 160.88C274.38 161.507 274.847 161.993 275.434 162.34C276.034 162.673 276.707 162.84 277.454 162.84ZM292.529 158.56C293.955 158.893 294.669 159.753 294.669 161.14C294.669 162.06 294.329 162.767 293.649 163.26C292.969 163.753 291.955 164 290.609 164H285.829V153.48H290.469C291.669 153.48 292.609 153.713 293.289 154.18C293.969 154.647 294.309 155.313 294.309 156.18C294.309 156.753 294.149 157.247 293.829 157.66C293.522 158.06 293.089 158.36 292.529 158.56ZM287.209 158.16H290.369C291.182 158.16 291.802 158.007 292.229 157.7C292.669 157.393 292.889 156.947 292.889 156.36C292.889 155.773 292.669 155.333 292.229 155.04C291.802 154.747 291.182 154.6 290.369 154.6H287.209V158.16ZM290.549 162.88C291.455 162.88 292.135 162.733 292.589 162.44C293.042 162.147 293.269 161.687 293.269 161.06C293.269 160.433 293.062 159.973 292.649 159.68C292.235 159.373 291.582 159.22 290.689 159.22H287.209V162.88H290.549ZM306.597 153.48V164H305.177V154.74H300.137L299.997 157.34C299.89 159.527 299.637 161.207 299.237 162.38C298.837 163.553 298.123 164.14 297.097 164.14C296.817 164.14 296.477 164.087 296.077 163.98L296.177 162.76C296.417 162.813 296.583 162.84 296.677 162.84C297.223 162.84 297.637 162.587 297.917 162.08C298.197 161.573 298.383 160.947 298.477 160.2C298.57 159.453 298.65 158.467 298.717 157.24L298.897 153.48H306.597ZM319.833 159.18H311.033C311.113 160.273 311.533 161.16 312.293 161.84C313.053 162.507 314.013 162.84 315.173 162.84C315.827 162.84 316.427 162.727 316.973 162.5C317.52 162.26 317.993 161.913 318.393 161.46L319.193 162.38C318.727 162.94 318.14 163.367 317.433 163.66C316.74 163.953 315.973 164.1 315.133 164.1C314.053 164.1 313.093 163.873 312.253 163.42C311.427 162.953 310.78 162.313 310.313 161.5C309.847 160.687 309.613 159.767 309.613 158.74C309.613 157.713 309.833 156.793 310.273 155.98C310.727 155.167 311.34 154.533 312.113 154.08C312.9 153.627 313.78 153.4 314.753 153.4C315.727 153.4 316.6 153.627 317.373 154.08C318.147 154.533 318.753 155.167 319.193 155.98C319.633 156.78 319.853 157.7 319.853 158.74L319.833 159.18ZM314.753 154.62C313.74 154.62 312.887 154.947 312.193 155.6C311.513 156.24 311.127 157.08 311.033 158.12H318.493C318.4 157.08 318.007 156.24 317.313 155.6C316.633 154.947 315.78 154.62 314.753 154.62ZM322.997 153.48H324.417V158.14H331.037V153.48H332.457V164H331.037V159.36H324.417V164H322.997V153.48ZM336.493 153.48H337.913V161.84L344.933 153.48H346.193V164H344.773V155.64L337.773 164H336.493V153.48ZM358.342 153.48V164H357.042V160.52H353.742H353.342L350.902 164H349.362L351.982 160.32C351.169 160.093 350.542 159.707 350.102 159.16C349.662 158.613 349.442 157.92 349.442 157.08C349.442 155.907 349.842 155.013 350.642 154.4C351.442 153.787 352.536 153.48 353.922 153.48H358.342ZM350.882 157.12C350.882 158.68 351.876 159.46 353.862 159.46H357.042V154.74H353.962C351.909 154.74 350.882 155.533 350.882 157.12ZM6.42 192.1C5.38 192.1 4.44667 191.873 3.62 191.42C2.80667 190.967 2.16667 190.333 1.7 189.52C1.23333 188.693 1 187.767 1 186.74C1 185.713 1.23333 184.793 1.7 183.98C2.16667 183.167 2.80667 182.533 3.62 182.08C4.44667 181.627 5.38 181.4 6.42 181.4C7.32667 181.4 8.13333 181.58 8.84 181.94C9.56 182.287 10.1267 182.8 10.54 183.48L9.48 184.2C9.13333 183.68 8.69333 183.293 8.16 183.04C7.62667 182.773 7.04667 182.64 6.42 182.64C5.66 182.64 4.97333 182.813 4.36 183.16C3.76 183.493 3.28667 183.973 2.94 184.6C2.60667 185.227 2.44 185.94 2.44 186.74C2.44 187.553 2.60667 188.273 2.94 188.9C3.28667 189.513 3.76 189.993 4.36 190.34C4.97333 190.673 5.66 190.84 6.42 190.84C7.04667 190.84 7.62667 190.713 8.16 190.46C8.69333 190.207 9.13333 189.82 9.48 189.3L10.54 190.02C10.1267 190.7 9.56 191.22 8.84 191.58C8.12 191.927 7.31333 192.1 6.42 192.1ZM16.9095 181.4C18.2829 181.4 19.3362 181.747 20.0695 182.44C20.8029 183.12 21.1695 184.133 21.1695 185.48V192H19.8095V190.36C19.4895 190.907 19.0162 191.333 18.3895 191.64C17.7762 191.947 17.0429 192.1 16.1895 192.1C15.0162 192.1 14.0829 191.82 13.3895 191.26C12.6962 190.7 12.3495 189.96 12.3495 189.04C12.3495 188.147 12.6695 187.427 13.3095 186.88C13.9629 186.333 14.9962 186.06 16.4095 186.06H19.7495V185.42C19.7495 184.513 19.4962 183.827 18.9895 183.36C18.4829 182.88 17.7429 182.64 16.7695 182.64C16.1029 182.64 15.4629 182.753 14.8495 182.98C14.2362 183.193 13.7095 183.493 13.2695 183.88L12.6295 182.82C13.1629 182.367 13.8029 182.02 14.5495 181.78C15.2962 181.527 16.0829 181.4 16.9095 181.4ZM16.4095 190.98C17.2095 190.98 17.8962 190.8 18.4695 190.44C19.0429 190.067 19.4695 189.533 19.7495 188.84V187.12H16.4495C14.6495 187.12 13.7495 187.747 13.7495 189C13.7495 189.613 13.9829 190.1 14.4495 190.46C14.9162 190.807 15.5695 190.98 16.4095 190.98ZM24.9497 181.48H26.3697V189.84L33.3897 181.48H34.6497V192H33.2297V183.64L26.2297 192H24.9497V181.48ZM29.7297 179.96C28.823 179.96 28.103 179.733 27.5697 179.28C27.0364 178.827 26.763 178.187 26.7497 177.36H27.7697C27.783 177.88 27.9697 178.3 28.3297 178.62C28.6897 178.927 29.1564 179.08 29.7297 179.08C30.303 179.08 30.7697 178.927 31.1297 178.62C31.503 178.3 31.6964 177.88 31.7097 177.36H32.7297C32.7164 178.187 32.4364 178.827 31.8897 179.28C31.3564 179.733 30.6364 179.96 29.7297 179.96ZM46.1192 182.74H42.1392V192H40.7192V182.74H36.7392V181.48H46.1192V182.74ZM51.7923 181.4C53.1657 181.4 54.219 181.747 54.9523 182.44C55.6857 183.12 56.0523 184.133 56.0523 185.48V192H54.6923V190.36C54.3723 190.907 53.899 191.333 53.2723 191.64C52.659 191.947 51.9257 192.1 51.0723 192.1C49.899 192.1 48.9657 191.82 48.2723 191.26C47.579 190.7 47.2323 189.96 47.2323 189.04C47.2323 188.147 47.5523 187.427 48.1923 186.88C48.8457 186.333 49.879 186.06 51.2923 186.06H54.6323V185.42C54.6323 184.513 54.379 183.827 53.8723 183.36C53.3657 182.88 52.6257 182.64 51.6523 182.64C50.9857 182.64 50.3457 182.753 49.7323 182.98C49.119 183.193 48.5923 183.493 48.1523 183.88L47.5123 182.82C48.0457 182.367 48.6857 182.02 49.4323 181.78C50.179 181.527 50.9657 181.4 51.7923 181.4ZM51.2923 190.98C52.0923 190.98 52.779 190.8 53.3523 190.44C53.9257 190.067 54.3523 189.533 54.6323 188.84V187.12H51.3323C49.5323 187.12 48.6323 187.747 48.6323 189C48.6323 189.613 48.8657 190.1 49.3323 190.46C49.799 190.807 50.4523 190.98 51.2923 190.98ZM65.0669 181.48H66.4869V186.14H73.1069V181.48H74.5269V192H73.1069V187.36H66.4869V192H65.0669V181.48ZM82.183 181.4C83.5563 181.4 84.6096 181.747 85.343 182.44C86.0763 183.12 86.443 184.133 86.443 185.48V192H85.083V190.36C84.763 190.907 84.2896 191.333 83.663 191.64C83.0496 191.947 82.3163 192.1 81.463 192.1C80.2896 192.1 79.3563 191.82 78.663 191.26C77.9696 190.7 77.623 189.96 77.623 189.04C77.623 188.147 77.943 187.427 78.583 186.88C79.2363 186.333 80.2696 186.06 81.683 186.06H85.023V185.42C85.023 184.513 84.7696 183.827 84.263 183.36C83.7563 182.88 83.0163 182.64 82.043 182.64C81.3763 182.64 80.7363 182.753 80.123 182.98C79.5096 183.193 78.983 183.493 78.543 183.88L77.903 182.82C78.4363 182.367 79.0763 182.02 79.823 181.78C80.5696 181.527 81.3563 181.4 82.183 181.4ZM81.683 190.98C82.483 190.98 83.1696 190.8 83.743 190.44C84.3163 190.067 84.743 189.533 85.023 188.84V187.12H81.723C79.923 187.12 79.023 187.747 79.023 189C79.023 189.613 79.2563 190.1 79.723 190.46C80.1896 190.807 80.843 190.98 81.683 190.98ZM104.898 181.48V192H103.478V182.74H96.8775V192H95.4575V181.48H104.898ZM114.354 181.4C115.341 181.4 116.234 181.627 117.034 182.08C117.834 182.52 118.461 183.147 118.914 183.96C119.367 184.773 119.594 185.7 119.594 186.74C119.594 187.793 119.367 188.727 118.914 189.54C118.461 190.353 117.834 190.987 117.034 191.44C116.247 191.88 115.354 192.1 114.354 192.1C113.501 192.1 112.727 191.927 112.034 191.58C111.354 191.22 110.794 190.7 110.354 190.02V195.88H108.934V181.48H110.294V183.56C110.721 182.867 111.281 182.333 111.974 181.96C112.681 181.587 113.474 181.4 114.354 181.4ZM114.254 190.84C114.987 190.84 115.654 190.673 116.254 190.34C116.854 189.993 117.321 189.507 117.654 188.88C118.001 188.253 118.174 187.54 118.174 186.74C118.174 185.94 118.001 185.233 117.654 184.62C117.321 183.993 116.854 183.507 116.254 183.16C115.654 182.813 114.987 182.64 114.254 182.64C113.507 182.64 112.834 182.813 112.234 183.16C111.647 183.507 111.181 183.993 110.834 184.62C110.501 185.233 110.334 185.94 110.334 186.74C110.334 187.54 110.501 188.253 110.834 188.88C111.181 189.507 111.647 189.993 112.234 190.34C112.834 190.673 113.507 190.84 114.254 190.84ZM126.985 192.1C125.972 192.1 125.058 191.873 124.245 191.42C123.432 190.953 122.792 190.313 122.325 189.5C121.858 188.687 121.625 187.767 121.625 186.74C121.625 185.713 121.858 184.793 122.325 183.98C122.792 183.167 123.432 182.533 124.245 182.08C125.058 181.627 125.972 181.4 126.985 181.4C127.998 181.4 128.912 181.627 129.725 182.08C130.538 182.533 131.172 183.167 131.625 183.98C132.092 184.793 132.325 185.713 132.325 186.74C132.325 187.767 132.092 188.687 131.625 189.5C131.172 190.313 130.538 190.953 129.725 191.42C128.912 191.873 127.998 192.1 126.985 192.1ZM126.985 190.84C127.732 190.84 128.398 190.673 128.985 190.34C129.585 189.993 130.052 189.507 130.385 188.88C130.718 188.253 130.885 187.54 130.885 186.74C130.885 185.94 130.718 185.227 130.385 184.6C130.052 183.973 129.585 183.493 128.985 183.16C128.398 182.813 127.732 182.64 126.985 182.64C126.238 182.64 125.565 182.813 124.965 183.16C124.378 183.493 123.912 183.973 123.565 184.6C123.232 185.227 123.065 185.94 123.065 186.74C123.065 187.54 123.232 188.253 123.565 188.88C123.912 189.507 124.378 189.993 124.965 190.34C125.565 190.673 126.238 190.84 126.985 190.84ZM142.369 182.74H138.389V192H136.969V182.74H132.989V181.48H142.369V182.74ZM152.287 181.48V192H150.988V188.52H147.688H147.288L144.848 192H143.308L145.928 188.32C145.114 188.093 144.488 187.707 144.048 187.16C143.608 186.613 143.388 185.92 143.388 185.08C143.388 183.907 143.788 183.013 144.588 182.4C145.388 181.787 146.481 181.48 147.868 181.48H152.287ZM144.827 185.12C144.827 186.68 145.821 187.46 147.808 187.46H150.988V182.74H147.908C145.854 182.74 144.827 183.533 144.827 185.12ZM165.556 187.32H163.276V192H161.856V187.32H159.576L156.356 192H154.656L158.436 186.58L154.956 181.48H156.496L159.576 186.1H161.856V181.48H163.276V186.1H165.556L168.656 181.48H170.196L166.716 186.6L170.496 192H168.796L165.556 187.32ZM181.689 187.18H172.889C172.969 188.273 173.389 189.16 174.149 189.84C174.909 190.507 175.869 190.84 177.029 190.84C177.682 190.84 178.282 190.727 178.829 190.5C179.375 190.26 179.849 189.913 180.249 189.46L181.049 190.38C180.582 190.94 179.995 191.367 179.289 191.66C178.595 191.953 177.829 192.1 176.989 192.1C175.909 192.1 174.949 191.873 174.109 191.42C173.282 190.953 172.635 190.313 172.169 189.5C171.702 188.687 171.469 187.767 171.469 186.74C171.469 185.713 171.689 184.793 172.129 183.98C172.582 183.167 173.195 182.533 173.969 182.08C174.755 181.627 175.635 181.4 176.609 181.4C177.582 181.4 178.455 181.627 179.229 182.08C180.002 182.533 180.609 183.167 181.049 183.98C181.489 184.78 181.709 185.7 181.709 186.74L181.689 187.18ZM176.609 182.62C175.595 182.62 174.742 182.947 174.049 183.6C173.369 184.24 172.982 185.08 172.889 186.12H180.349C180.255 185.08 179.862 184.24 179.169 183.6C178.489 182.947 177.635 182.62 176.609 182.62ZM184.852 181.48H186.272V186.14H192.892V181.48H194.312V192H192.892V187.36H186.272V192H184.852V181.48ZM198.348 181.48H199.768V189.84L206.788 181.48H208.048V192H206.628V183.64L199.628 192H198.348V181.48ZM212.118 181.48H213.538V189.84L220.558 181.48H221.818V192H220.398V183.64L213.398 192H212.118V181.48ZM234.022 178V192H232.582V179.28H229.282V178H234.022ZM249.268 188.32H246.468V192H245.028V188.32H237.128V187.28L244.548 178H246.148L238.988 187.04H245.068V183.8H246.468V187.04H249.268V188.32ZM267.065 190.76V194.54H265.725V192H256.305V194.54H254.965V190.76H255.565C256.272 190.72 256.752 190.2 257.005 189.2C257.258 188.2 257.432 186.8 257.525 185L257.665 181.48H265.425V190.76H267.065ZM258.825 185.08C258.758 186.573 258.632 187.807 258.445 188.78C258.258 189.74 257.925 190.4 257.445 190.76H264.005V182.74H258.945L258.825 185.08ZM269.833 181.48H271.253V186.14H277.873V181.48H279.293V192H277.873V187.36H271.253V192H269.833V181.48ZM292.529 187.18H283.729C283.809 188.273 284.229 189.16 284.989 189.84C285.749 190.507 286.709 190.84 287.869 190.84C288.522 190.84 289.122 190.727 289.669 190.5C290.215 190.26 290.689 189.913 291.089 189.46L291.889 190.38C291.422 190.94 290.835 191.367 290.129 191.66C289.435 191.953 288.669 192.1 287.829 192.1C286.749 192.1 285.789 191.873 284.949 191.42C284.122 190.953 283.475 190.313 283.009 189.5C282.542 188.687 282.309 187.767 282.309 186.74C282.309 185.713 282.529 184.793 282.969 183.98C283.422 183.167 284.035 182.533 284.809 182.08C285.595 181.627 286.475 181.4 287.449 181.4C288.422 181.4 289.295 181.627 290.069 182.08C290.842 182.533 291.449 183.167 291.889 183.98C292.329 184.78 292.549 185.7 292.549 186.74L292.529 187.18ZM287.449 182.62C286.435 182.62 285.582 182.947 284.889 183.6C284.209 184.24 283.822 185.08 283.729 186.12H291.189C291.095 185.08 290.702 184.24 290.009 183.6C289.329 182.947 288.475 182.62 287.449 182.62ZM295.692 181.48H297.112V189.84L304.132 181.48H305.392V192H303.972V183.64L296.972 192H295.692V181.48ZM300.472 179.96C299.565 179.96 298.845 179.733 298.312 179.28C297.779 178.827 297.505 178.187 297.492 177.36H298.512C298.525 177.88 298.712 178.3 299.072 178.62C299.432 178.927 299.899 179.08 300.472 179.08C301.045 179.08 301.512 178.927 301.872 178.62C302.245 178.3 302.439 177.88 302.452 177.36H303.472C303.459 178.187 303.179 178.827 302.632 179.28C302.099 179.733 301.379 179.96 300.472 179.96Z" fill="black"/>
<path d="M2.83339 42.5C2.83339 20.6281 20.6266 2.83339 42.5 2.83339C54.7782 2.83339 66.2675 8.61488 73.7475 18.4168H65.1668C64.3833 18.4168 63.7502 19.0515 63.7502 19.8334C63.7502 20.6153 64.3833 21.25 65.1668 21.25H76.5C76.5438 21.25 76.5822 21.2288 76.6247 21.2244C76.7196 21.2173 76.8088 21.196 76.9009 21.1692C76.9959 21.1408 77.0809 21.1069 77.1659 21.0614C77.2041 21.0417 77.2466 21.0387 77.2834 21.0133C77.3231 20.9877 77.3444 20.9467 77.3797 20.917C77.4563 20.856 77.5228 20.7895 77.5837 20.7144C77.6404 20.6435 77.69 20.5728 77.7312 20.4948C77.7737 20.4154 77.8062 20.3361 77.8318 20.2498C77.8615 20.1563 77.8814 20.0656 77.8884 19.9664C77.894 19.921 77.9168 19.8799 77.9168 19.8332V8.5C77.9168 7.71807 77.2836 7.08339 76.5002 7.08339C75.7167 7.08339 75.0836 7.71807 75.0836 8.5V15.5578C67.0635 5.75443 55.1791 0 42.5 0C19.0656 0 0 19.0656 0 42.5C0 47.0093 0.70125 51.4448 2.08399 55.6835C2.27807 56.2828 2.83488 56.6625 3.43121 56.6625C3.57564 56.6625 3.72439 56.6384 3.87032 56.5916C4.61407 56.3479 5.02064 55.5488 4.77843 54.8052C3.48782 50.8498 2.83339 46.7103 2.83339 42.5Z" fill="url(#paint0_linear)"/>
<path d="M82.8354 29.0742C82.5875 28.3319 81.7885 27.9295 81.0419 28.1789C80.301 28.4254 79.8987 29.2273 80.1451 29.9695C81.4867 33.9957 82.1667 38.2117 82.1667 42.4999C82.1667 64.3718 64.3733 82.1665 42.5 82.1665C30.2247 82.1665 18.7354 76.3865 11.2526 66.5831H19.8333C20.6167 66.5831 21.2499 65.9484 21.2499 65.1665C21.2499 64.3846 20.6167 63.7499 19.8333 63.7499H8.50005C8.45755 63.7499 8.41936 63.7711 8.37819 63.7754C8.2819 63.7826 8.18976 63.8038 8.0948 63.8321C8.00266 63.8604 7.91766 63.893 7.83416 63.9368C7.7973 63.9581 7.7548 63.9609 7.71662 63.9865C7.67694 64.012 7.65569 64.053 7.62033 64.0827C7.5438 64.1437 7.47722 64.2102 7.4163 64.2853C7.35969 64.3562 7.31005 64.4269 7.26904 64.5049C7.22654 64.5843 7.194 64.6636 7.16844 64.7514C7.13872 64.8436 7.1188 64.9342 7.11033 65.032C7.10601 65.0788 7.08344 65.1185 7.08344 65.1667V76.4999C7.08344 77.2818 7.71662 77.9165 8.50005 77.9165C9.28347 77.9165 9.91666 77.2818 9.91666 76.4999V69.4392C17.9379 79.2454 29.8223 84.9999 42.5 84.9999C65.9345 84.9999 85 65.9343 85 42.4999C85 37.9071 84.2704 33.3893 82.8354 29.0742Z" fill="url(#paint1_linear)"/>
<path d="M43.5607 21.729C42.9749 21.1432 42.0251 21.1432 41.4393 21.729L31.8934 31.275C31.3076 31.8607 31.3076 32.8105 31.8934 33.3963C32.4792 33.9821 33.4289 33.9821 34.0147 33.3963L42.5 24.911L50.9853 33.3963C51.5711 33.9821 52.5208 33.9821 53.1066 33.3963C53.6924 32.8105 53.6924 31.8607 53.1066 31.275L43.5607 21.729ZM44 62.21L44 22.7897L41 22.7897L41 62.21L44 62.21Z" fill="url(#paint2_linear)"/>
<defs>
<linearGradient id="paint0_linear" x1="-9.5" y1="61.5" x2="43.3144" y2="-23.8858" gradientUnits="userSpaceOnUse">
<stop stop-color="#DBFF00"/>
<stop offset="1" stop-color="#00FF47" stop-opacity="0.62"/>
</linearGradient>
<linearGradient id="paint1_linear" x1="7" y1="85" x2="53.8385" y2="6.94427" gradientUnits="userSpaceOnUse">
<stop stop-color="#DBFF00"/>
<stop offset="1" stop-color="#00FF47" stop-opacity="0.62"/>
</linearGradient>
<linearGradient id="paint2_linear" x1="29.5" y1="56.5" x2="66" y2="13.5" gradientUnits="userSpaceOnUse">
<stop stop-color="#DBFF00"/>
<stop offset="1" stop-color="#00FF47" stop-opacity="0.62"/>
</linearGradient>
</defs>
</svg>
