<svg width="273" height="199" viewBox="0 0 273 199" fill="none" xmlns="http://www.w3.org/2000/svg">
<g clip-path="url(#clip0)">
<path d="M54.6218 10.5033C53.7675 4.51576 48.5557 0 42.4994 0C38.6045 0 34.9055 1.87949 32.6056 5.02942C32.1358 5.67182 32.2764 6.57294 32.9188 7.04271C33.5591 7.51079 34.4623 7.37193 34.9312 6.72869C36.6917 4.31992 39.5204 2.88149 42.499 2.88149C47.1308 2.88149 51.1156 6.3332 51.769 10.9097C51.872 11.6285 52.4886 12.1473 53.1939 12.1473C53.261 12.1473 53.3302 12.1422 53.399 12.1329C54.1866 12.0202 54.734 11.2905 54.6218 10.5033Z" fill="url(#paint0_linear)"/>
<path d="M75.4295 26.6309L71.1074 19.4274C70.8474 18.9931 70.3785 18.728 69.872 18.728H65.7302C64.935 18.728 64.2897 19.3734 64.2897 20.1686C64.2897 20.9637 64.935 21.6091 65.7302 21.6091H69.0566L71.6498 25.9311H13.3484L15.9417 21.6091H17.4675C18.2626 21.6091 18.908 20.9637 18.908 20.1686C18.908 19.3734 18.2626 18.728 17.4675 18.728H15.1262C14.6197 18.728 14.1508 18.9931 13.8908 19.4274L9.56878 26.6309C9.3016 27.0766 9.29527 27.6308 9.55063 28.0824C9.80598 28.534 10.2846 28.8135 10.8042 28.8135H74.1941C74.7136 28.8135 75.1918 28.534 75.4476 28.0824C75.7034 27.6308 75.6966 27.0758 75.4295 26.6309Z" fill="url(#paint1_linear)"/>
<path d="M68.2483 13.3474C68.0466 13.022 67.7245 12.7911 67.3523 12.7041L47.7128 8.11072C47.3409 8.02336 46.9493 8.08835 46.6243 8.28926C46.3001 8.49101 46.0688 8.81305 45.9819 9.18532L44.5008 15.5164C44.3193 16.2909 44.8005 17.0658 45.5754 17.2465C46.3499 17.428 47.1257 16.9468 47.3063 16.1719L48.4594 11.2442L65.293 15.1817L62.6478 26.4912C62.4663 27.2657 62.9475 28.0406 63.7224 28.2212C63.8334 28.247 63.9436 28.2592 64.0525 28.2592C64.7067 28.2592 65.2989 27.811 65.4529 27.1471L68.4264 14.4351C68.5142 14.0632 68.4501 13.6715 68.2483 13.3474Z" fill="url(#paint2_linear)"/>
<path d="M43.2612 16.753L41.9485 5.65032C41.9038 5.27088 41.7101 4.92435 41.4095 4.68799C41.109 4.45163 40.7296 4.34358 40.3485 4.38832L16.2523 7.23647C15.4626 7.33017 14.8979 8.04601 14.9912 8.83655L17.1796 27.3542C17.2666 28.0873 17.8883 28.6263 18.6087 28.6263C18.6649 28.6263 18.7227 28.6225 18.7801 28.6162C19.5694 28.5225 20.1341 27.8066 20.0413 27.0161L18.0216 9.92803L39.2565 7.41838L40.3995 17.0902C40.4932 17.8803 41.2057 18.4417 41.9996 18.3522C42.7893 18.2593 43.354 17.5431 43.2612 16.753Z" fill="url(#paint3_linear)"/>
<path d="M54.6551 26.8252L51.7955 14.9337C51.706 14.5627 51.4726 14.2415 51.1472 14.0419C50.8218 13.844 50.4314 13.7819 50.0578 13.8705L26.8493 19.452C26.0757 19.6377 25.5996 20.416 25.7853 21.1897L27.2144 27.1333C27.4001 27.9078 28.1784 28.3844 28.9517 28.1974C29.7253 28.0117 30.2014 27.2334 30.0157 26.4597L28.923 21.9165L49.3302 17.0095L51.8529 27.4997C52.0112 28.1602 52.6021 28.6034 53.2525 28.6034C53.3644 28.6034 53.4775 28.5903 53.591 28.5629C54.3647 28.3768 54.8408 27.5989 54.6551 26.8252Z" fill="url(#paint4_linear)"/>
<path d="M75.6342 27.2993C75.5946 26.5336 74.9623 25.9326 74.195 25.9326H10.8051C10.0378 25.9326 9.40549 26.5332 9.36581 27.2993L6.48432 83.4856C6.46406 83.8799 6.60672 84.2656 6.87854 84.5518C7.15077 84.8375 7.52811 85 7.92317 85H77.0756C77.4702 85 77.848 84.838 78.1215 84.5518C78.3929 84.2656 78.5356 83.8803 78.5157 83.4856L75.6342 27.2993ZM9.43925 82.1185L12.173 28.8137H72.8253L75.5591 82.1185H9.43925Z" fill="url(#paint5_linear)"/>
<path d="M53.3045 31.6948C50.921 31.6948 48.9824 33.6334 48.9824 36.0168C48.9824 38.4003 50.921 40.3389 53.3045 40.3389C55.6879 40.3389 57.6265 38.4003 57.6265 36.0168C57.6265 33.6334 55.6879 31.6948 53.3045 31.6948ZM53.3045 37.4578C52.5097 37.4578 51.8639 36.8116 51.8639 36.0173C51.8639 35.2229 52.5101 34.5767 53.3045 34.5767C54.0988 34.5767 54.745 35.2229 54.745 36.0173C54.745 36.8116 54.0988 37.4578 53.3045 37.4578Z" fill="url(#paint6_linear)"/>
<path d="M31.6942 31.6948C29.3108 31.6948 27.3722 33.6334 27.3722 36.0168C27.3722 38.4003 29.3108 40.3389 31.6942 40.3389C34.0777 40.3389 36.0162 38.4003 36.0162 36.0168C36.0162 33.6334 34.0777 31.6948 31.6942 31.6948ZM31.6942 37.4578C30.8999 37.4578 30.2537 36.8116 30.2537 36.0173C30.2537 35.2229 30.8999 34.5767 31.6942 34.5767C32.4886 34.5767 33.1348 35.2229 33.1348 36.0173C33.1348 36.8116 32.4886 37.4578 31.6942 37.4578Z" fill="url(#paint7_linear)"/>
<path d="M53.3045 36.0166H53.1934C52.3983 36.0166 51.7529 36.662 51.7529 37.4571C51.7529 37.6538 51.7917 37.8416 51.8639 38.0126V45.3807C51.8639 50.5439 47.663 54.7452 42.4994 54.7452C37.3357 54.7452 33.1349 50.5443 33.1349 45.3807V37.4576C33.1349 36.6624 32.4895 36.017 31.6943 36.017C30.8991 36.017 30.2538 36.6624 30.2538 37.4576V45.3811C30.2538 52.1335 35.7471 57.6267 42.4994 57.6267C49.2517 57.6267 54.745 52.1335 54.745 45.3811V37.4576C54.745 36.6624 54.0996 36.0166 53.3045 36.0166Z" fill="url(#paint8_linear)"/>
</g>
<path d="M8.48 136.12C7.09333 136.12 5.84 135.813 4.72 135.2C3.61333 134.587 2.74 133.74 2.1 132.66C1.47333 131.567 1.16 130.347 1.16 129C1.16 127.653 1.47333 126.44 2.1 125.36C2.74 124.267 3.62 123.413 4.74 122.8C5.86 122.187 7.11333 121.88 8.5 121.88C9.54 121.88 10.5 122.053 11.38 122.4C12.26 122.747 13.0067 123.253 13.62 123.92L12.68 124.86C11.5867 123.753 10.2067 123.2 8.54 123.2C7.43333 123.2 6.42667 123.453 5.52 123.96C4.61333 124.467 3.9 125.16 3.38 126.04C2.87333 126.92 2.62 127.907 2.62 129C2.62 130.093 2.87333 131.08 3.38 131.96C3.9 132.84 4.61333 133.533 5.52 134.04C6.42667 134.547 7.43333 134.8 8.54 134.8C10.22 134.8 11.6 134.24 12.68 133.12L13.62 134.06C13.0067 134.727 12.2533 135.24 11.36 135.6C10.48 135.947 9.52 136.12 8.48 136.12ZM20.1564 131.32H17.7564V136H16.3364V125.48H17.7564V130.1H20.1764L23.8764 125.48H25.4164L21.2764 130.58L25.7164 136H24.0364L20.1564 131.32ZM27.9575 125.48H29.3775V133.84L36.3975 125.48H37.6575V136H36.2375V127.64L29.2375 136H27.9575V125.48ZM51.987 134.76V138.54H50.647V136H41.227V138.54H39.887V134.76H40.487C41.1937 134.72 41.6737 134.2 41.927 133.2C42.1804 132.2 42.3537 130.8 42.447 129L42.587 125.48H50.347V134.76H51.987ZM43.747 129.08C43.6804 130.573 43.5537 131.807 43.367 132.78C43.1804 133.74 42.847 134.4 42.367 134.76H48.927V126.74H43.867L43.747 129.08ZM58.5744 131.32H56.1744V136H54.7544V125.48H56.1744V130.1H58.5944L62.2944 125.48H63.8344L59.6944 130.58L64.1344 136H62.4544L58.5744 131.32ZM69.8002 125.4C71.1735 125.4 72.2268 125.747 72.9602 126.44C73.6935 127.12 74.0602 128.133 74.0602 129.48V136H72.7002V134.36C72.3802 134.907 71.9068 135.333 71.2802 135.64C70.6668 135.947 69.9335 136.1 69.0802 136.1C67.9068 136.1 66.9735 135.82 66.2802 135.26C65.5868 134.7 65.2402 133.96 65.2402 133.04C65.2402 132.147 65.5602 131.427 66.2002 130.88C66.8535 130.333 67.8868 130.06 69.3002 130.06H72.6402V129.42C72.6402 128.513 72.3868 127.827 71.8802 127.36C71.3735 126.88 70.6335 126.64 69.6602 126.64C68.9935 126.64 68.3535 126.753 67.7402 126.98C67.1268 127.193 66.6002 127.493 66.1602 127.88L65.5202 126.82C66.0535 126.367 66.6935 126.02 67.4402 125.78C68.1868 125.527 68.9735 125.4 69.8002 125.4ZM69.3002 134.98C70.1002 134.98 70.7868 134.8 71.3602 134.44C71.9335 134.067 72.3602 133.533 72.6402 132.84V131.12H69.3402C67.5402 131.12 66.6402 131.747 66.6402 133C66.6402 133.613 66.8735 134.1 67.3402 134.46C67.8068 134.807 68.4602 134.98 69.3002 134.98ZM83.0747 125.48H84.4947V130.14H91.1147V125.48H92.5347V136H91.1147V131.36H84.4947V136H83.0747V125.48ZM100.191 125.4C101.564 125.4 102.617 125.747 103.351 126.44C104.084 127.12 104.451 128.133 104.451 129.48V136H103.091V134.36C102.771 134.907 102.297 135.333 101.671 135.64C101.057 135.947 100.324 136.1 99.4708 136.1C98.2974 136.1 97.3641 135.82 96.6708 135.26C95.9774 134.7 95.6308 133.96 95.6308 133.04C95.6308 132.147 95.9508 131.427 96.5908 130.88C97.2441 130.333 98.2774 130.06 99.6908 130.06H103.031V129.42C103.031 128.513 102.777 127.827 102.271 127.36C101.764 126.88 101.024 126.64 100.051 126.64C99.3841 126.64 98.7441 126.753 98.1308 126.98C97.5174 127.193 96.9908 127.493 96.5508 127.88L95.9108 126.82C96.4441 126.367 97.0841 126.02 97.8308 125.78C98.5774 125.527 99.3641 125.4 100.191 125.4ZM99.6908 134.98C100.491 134.98 101.177 134.8 101.751 134.44C102.324 134.067 102.751 133.533 103.031 132.84V131.12H99.7308C97.9308 131.12 97.0308 131.747 97.0308 133C97.0308 133.613 97.2641 134.1 97.7308 134.46C98.1974 134.807 98.8508 134.98 99.6908 134.98ZM117.865 136.1C116.825 136.1 115.892 135.873 115.065 135.42C114.252 134.967 113.612 134.333 113.145 133.52C112.679 132.693 112.445 131.767 112.445 130.74C112.445 129.713 112.679 128.793 113.145 127.98C113.612 127.167 114.252 126.533 115.065 126.08C115.892 125.627 116.825 125.4 117.865 125.4C118.772 125.4 119.579 125.58 120.285 125.94C121.005 126.287 121.572 126.8 121.985 127.48L120.925 128.2C120.579 127.68 120.139 127.293 119.605 127.04C119.072 126.773 118.492 126.64 117.865 126.64C117.105 126.64 116.419 126.813 115.805 127.16C115.205 127.493 114.732 127.973 114.385 128.6C114.052 129.227 113.885 129.94 113.885 130.74C113.885 131.553 114.052 132.273 114.385 132.9C114.732 133.513 115.205 133.993 115.805 134.34C116.419 134.673 117.105 134.84 117.865 134.84C118.492 134.84 119.072 134.713 119.605 134.46C120.139 134.207 120.579 133.82 120.925 133.3L121.985 134.02C121.572 134.7 121.005 135.22 120.285 135.58C119.565 135.927 118.759 136.1 117.865 136.1ZM128.899 136.1C127.886 136.1 126.972 135.873 126.159 135.42C125.346 134.953 124.706 134.313 124.239 133.5C123.772 132.687 123.539 131.767 123.539 130.74C123.539 129.713 123.772 128.793 124.239 127.98C124.706 127.167 125.346 126.533 126.159 126.08C126.972 125.627 127.886 125.4 128.899 125.4C129.912 125.4 130.826 125.627 131.639 126.08C132.452 126.533 133.086 127.167 133.539 127.98C134.006 128.793 134.239 129.713 134.239 130.74C134.239 131.767 134.006 132.687 133.539 133.5C133.086 134.313 132.452 134.953 131.639 135.42C130.826 135.873 129.912 136.1 128.899 136.1ZM128.899 134.84C129.646 134.84 130.312 134.673 130.899 134.34C131.499 133.993 131.966 133.507 132.299 132.88C132.632 132.253 132.799 131.54 132.799 130.74C132.799 129.94 132.632 129.227 132.299 128.6C131.966 127.973 131.499 127.493 130.899 127.16C130.312 126.813 129.646 126.64 128.899 126.64C128.152 126.64 127.479 126.813 126.879 127.16C126.292 127.493 125.826 127.973 125.479 128.6C125.146 129.227 124.979 129.94 124.979 130.74C124.979 131.54 125.146 132.253 125.479 132.88C125.826 133.507 126.292 133.993 126.879 134.34C127.479 134.673 128.152 134.84 128.899 134.84ZM142.316 130.52C143.062 130.693 143.636 130.993 144.036 131.42C144.449 131.847 144.656 132.367 144.656 132.98C144.656 133.593 144.442 134.14 144.016 134.62C143.602 135.1 143.036 135.473 142.316 135.74C141.596 135.993 140.802 136.12 139.936 136.12C139.176 136.12 138.429 136.013 137.696 135.8C136.962 135.573 136.322 135.247 135.776 134.82L136.256 133.76C136.736 134.12 137.296 134.4 137.936 134.6C138.576 134.8 139.222 134.9 139.876 134.9C140.849 134.9 141.642 134.72 142.256 134.36C142.882 133.987 143.196 133.487 143.196 132.86C143.196 132.3 142.942 131.867 142.436 131.56C141.929 131.24 141.236 131.08 140.356 131.08H138.556V130.04H140.276C141.062 130.04 141.696 129.893 142.176 129.6C142.656 129.293 142.896 128.887 142.896 128.38C142.896 127.82 142.622 127.38 142.076 127.06C141.542 126.74 140.842 126.58 139.976 126.58C138.842 126.58 137.722 126.867 136.616 127.44L136.216 126.34C137.469 125.687 138.769 125.36 140.116 125.36C140.916 125.36 141.636 125.48 142.276 125.72C142.929 125.947 143.436 126.273 143.796 126.7C144.169 127.127 144.356 127.62 144.356 128.18C144.356 128.713 144.169 129.187 143.796 129.6C143.436 130.013 142.942 130.32 142.316 130.52ZM158.139 134.76V138.54H156.799V136H147.379V138.54H146.039V134.76H146.639C147.346 134.72 147.826 134.2 148.079 133.2C148.333 132.2 148.506 130.8 148.599 129L148.739 125.48H156.499V134.76H158.139ZM149.899 129.08C149.833 130.573 149.706 131.807 149.519 132.78C149.333 133.74 148.999 134.4 148.519 134.76H155.079V126.74H150.019L149.899 129.08ZM164.527 125.4C165.9 125.4 166.953 125.747 167.687 126.44C168.42 127.12 168.787 128.133 168.787 129.48V136H167.427V134.36C167.107 134.907 166.633 135.333 166.007 135.64C165.393 135.947 164.66 136.1 163.807 136.1C162.633 136.1 161.7 135.82 161.007 135.26C160.313 134.7 159.967 133.96 159.967 133.04C159.967 132.147 160.287 131.427 160.927 130.88C161.58 130.333 162.613 130.06 164.027 130.06H167.367V129.42C167.367 128.513 167.113 127.827 166.607 127.36C166.1 126.88 165.36 126.64 164.387 126.64C163.72 126.64 163.08 126.753 162.467 126.98C161.853 127.193 161.327 127.493 160.887 127.88L160.247 126.82C160.78 126.367 161.42 126.02 162.167 125.78C162.913 125.527 163.7 125.4 164.527 125.4ZM164.027 134.98C164.827 134.98 165.513 134.8 166.087 134.44C166.66 134.067 167.087 133.533 167.367 132.84V131.12H164.067C162.267 131.12 161.367 131.747 161.367 133C161.367 133.613 161.6 134.1 162.067 134.46C162.533 134.807 163.187 134.98 164.027 134.98ZM172.567 125.48H173.987V130.14H180.607V125.48H182.027V136H180.607V131.36H173.987V136H172.567V125.48ZM186.063 125.48H187.483V133.84L194.503 125.48H195.763V136H194.343V127.64L187.343 136H186.063V125.48ZM209.033 131.18H200.233C200.313 132.273 200.733 133.16 201.493 133.84C202.253 134.507 203.213 134.84 204.373 134.84C205.026 134.84 205.626 134.727 206.173 134.5C206.719 134.26 207.193 133.913 207.593 133.46L208.393 134.38C207.926 134.94 207.339 135.367 206.633 135.66C205.939 135.953 205.173 136.1 204.333 136.1C203.253 136.1 202.293 135.873 201.453 135.42C200.626 134.953 199.979 134.313 199.513 133.5C199.046 132.687 198.813 131.767 198.813 130.74C198.813 129.713 199.033 128.793 199.473 127.98C199.926 127.167 200.539 126.533 201.313 126.08C202.099 125.627 202.979 125.4 203.953 125.4C204.926 125.4 205.799 125.627 206.573 126.08C207.346 126.533 207.953 127.167 208.393 127.98C208.833 128.78 209.053 129.7 209.053 130.74L209.033 131.18ZM203.953 126.62C202.939 126.62 202.086 126.947 201.393 127.6C200.713 128.24 200.326 129.08 200.233 130.12H207.693C207.599 129.08 207.206 128.24 206.513 127.6C205.833 126.947 204.979 126.62 203.953 126.62ZM8.72 158.56C10.1467 158.893 10.86 159.753 10.86 161.14C10.86 162.06 10.52 162.767 9.84 163.26C9.16 163.753 8.14667 164 6.8 164H2.02V153.48H6.66C7.86 153.48 8.8 153.713 9.48 154.18C10.16 154.647 10.5 155.313 10.5 156.18C10.5 156.753 10.34 157.247 10.02 157.66C9.71333 158.06 9.28 158.36 8.72 158.56ZM3.4 158.16H6.56C7.37333 158.16 7.99333 158.007 8.42 157.7C8.86 157.393 9.08 156.947 9.08 156.36C9.08 155.773 8.86 155.333 8.42 155.04C7.99333 154.747 7.37333 154.6 6.56 154.6H3.4V158.16ZM6.74 162.88C7.64667 162.88 8.32667 162.733 8.78 162.44C9.23333 162.147 9.46 161.687 9.46 161.06C9.46 160.433 9.25333 159.973 8.84 159.68C8.42667 159.373 7.77333 159.22 6.88 159.22H3.4V162.88H6.74ZM17.808 153.4C19.1813 153.4 20.2346 153.747 20.968 154.44C21.7013 155.12 22.068 156.133 22.068 157.48V164H20.708V162.36C20.388 162.907 19.9146 163.333 19.288 163.64C18.6746 163.947 17.9413 164.1 17.088 164.1C15.9146 164.1 14.9813 163.82 14.288 163.26C13.5946 162.7 13.248 161.96 13.248 161.04C13.248 160.147 13.568 159.427 14.208 158.88C14.8613 158.333 15.8946 158.06 17.308 158.06H20.648V157.42C20.648 156.513 20.3946 155.827 19.888 155.36C19.3813 154.88 18.6413 154.64 17.668 154.64C17.0013 154.64 16.3613 154.753 15.748 154.98C15.1346 155.193 14.608 155.493 14.168 155.88L13.528 154.82C14.0613 154.367 14.7013 154.02 15.448 153.78C16.1946 153.527 16.9813 153.4 17.808 153.4ZM17.308 162.98C18.108 162.98 18.7946 162.8 19.368 162.44C19.9413 162.067 20.368 161.533 20.648 160.84V159.12H17.348C15.548 159.12 14.648 159.747 14.648 161C14.648 161.613 14.8813 162.1 15.348 162.46C15.8146 162.807 16.468 162.98 17.308 162.98ZM40.3681 153.48V164H25.8481V153.48H27.2681V162.76H32.4281V153.48H33.8481V162.76H38.9481V153.48H40.3681ZM53.6223 159.18H44.8223C44.9023 160.273 45.3223 161.16 46.0823 161.84C46.8423 162.507 47.8023 162.84 48.9623 162.84C49.6157 162.84 50.2157 162.727 50.7623 162.5C51.309 162.26 51.7823 161.913 52.1823 161.46L52.9823 162.38C52.5157 162.94 51.929 163.367 51.2223 163.66C50.529 163.953 49.7623 164.1 48.9223 164.1C47.8423 164.1 46.8823 163.873 46.0423 163.42C45.2157 162.953 44.569 162.313 44.1023 161.5C43.6357 160.687 43.4023 159.767 43.4023 158.74C43.4023 157.713 43.6223 156.793 44.0623 155.98C44.5157 155.167 45.129 154.533 45.9023 154.08C46.689 153.627 47.569 153.4 48.5423 153.4C49.5157 153.4 50.389 153.627 51.1623 154.08C51.9357 154.533 52.5423 155.167 52.9823 155.98C53.4223 156.78 53.6423 157.7 53.6423 158.74L53.6223 159.18ZM48.5423 154.62C47.529 154.62 46.6757 154.947 45.9823 155.6C45.3023 156.24 44.9157 157.08 44.8223 158.12H52.2823C52.189 157.08 51.7957 156.24 51.1023 155.6C50.4223 154.947 49.569 154.62 48.5423 154.62ZM64.2256 154.74H58.2056V164H56.7856V153.48H64.2256V154.74ZM70.1295 164.1C69.1162 164.1 68.2029 163.873 67.3895 163.42C66.5762 162.953 65.9362 162.313 65.4695 161.5C65.0029 160.687 64.7695 159.767 64.7695 158.74C64.7695 157.713 65.0029 156.793 65.4695 155.98C65.9362 155.167 66.5762 154.533 67.3895 154.08C68.2029 153.627 69.1162 153.4 70.1295 153.4C71.1429 153.4 72.0562 153.627 72.8695 154.08C73.6829 154.533 74.3162 155.167 74.7695 155.98C75.2362 156.793 75.4695 157.713 75.4695 158.74C75.4695 159.767 75.2362 160.687 74.7695 161.5C74.3162 162.313 73.6829 162.953 72.8695 163.42C72.0562 163.873 71.1429 164.1 70.1295 164.1ZM70.1295 162.84C70.8762 162.84 71.5429 162.673 72.1295 162.34C72.7295 161.993 73.1962 161.507 73.5295 160.88C73.8629 160.253 74.0295 159.54 74.0295 158.74C74.0295 157.94 73.8629 157.227 73.5295 156.6C73.1962 155.973 72.7295 155.493 72.1295 155.16C71.5429 154.813 70.8762 154.64 70.1295 154.64C69.3829 154.64 68.7095 154.813 68.1095 155.16C67.5229 155.493 67.0562 155.973 66.7095 156.6C66.3762 157.227 66.2095 157.94 66.2095 158.74C66.2095 159.54 66.3762 160.253 66.7095 160.88C67.0562 161.507 67.5229 161.993 68.1095 162.34C68.7095 162.673 69.3829 162.84 70.1295 162.84ZM83.7388 153.48H85.1588V161.84L92.1788 153.48H93.4388V164H92.0188V155.64L85.0188 164H83.7388V153.48ZM97.5083 153.48H98.9283V158.14H105.548V153.48H106.968V164H105.548V159.36H98.9283V164H97.5083V153.48ZM121.264 162.76V166.54H119.924V164H110.504V166.54H109.164V162.76H109.764C110.471 162.72 110.951 162.2 111.204 161.2C111.458 160.2 111.631 158.8 111.724 157L111.864 153.48H119.624V162.76H121.264ZM113.024 157.08C112.958 158.573 112.831 159.807 112.644 160.78C112.458 161.74 112.124 162.4 111.644 162.76H118.204V154.74H113.144L113.024 157.08ZM124.032 153.48H125.452V161.84L132.472 153.48H133.732V164H132.312V155.64L125.312 164H124.032V153.48ZM144.501 158.56C145.928 158.893 146.641 159.753 146.641 161.14C146.641 162.06 146.301 162.767 145.621 163.26C144.941 163.753 143.928 164 142.581 164H137.801V153.48H142.441C143.641 153.48 144.581 153.713 145.261 154.18C145.941 154.647 146.281 155.313 146.281 156.18C146.281 156.753 146.121 157.247 145.801 157.66C145.495 158.06 145.061 158.36 144.501 158.56ZM139.181 158.16H142.341C143.155 158.16 143.775 158.007 144.201 157.7C144.641 157.393 144.861 156.947 144.861 156.36C144.861 155.773 144.641 155.333 144.201 155.04C143.775 154.747 143.155 154.6 142.341 154.6H139.181V158.16ZM142.521 162.88C143.428 162.88 144.108 162.733 144.561 162.44C145.015 162.147 145.241 161.687 145.241 161.06C145.241 160.433 145.035 159.973 144.621 159.68C144.208 159.373 143.555 159.22 142.661 159.22H139.181V162.88H142.521ZM149.969 153.48H151.389V161.84L158.409 153.48H159.669V164H158.249V155.64L151.249 164H149.969V153.48ZM173.999 162.76V166.54H172.659V164H163.239V166.54H161.899V162.76H162.499C163.205 162.72 163.685 162.2 163.939 161.2C164.192 160.2 164.365 158.8 164.459 157L164.599 153.48H172.359V162.76H173.999ZM165.759 157.08C165.692 158.573 165.565 159.807 165.379 160.78C165.192 161.74 164.859 162.4 164.379 162.76H170.939V154.74H165.879L165.759 157.08ZM185.706 153.48L180.446 165.26C180.019 166.247 179.526 166.947 178.966 167.36C178.406 167.773 177.733 167.98 176.946 167.98C176.439 167.98 175.966 167.9 175.526 167.74C175.086 167.58 174.706 167.34 174.386 167.02L175.046 165.96C175.579 166.493 176.219 166.76 176.966 166.76C177.446 166.76 177.853 166.627 178.186 166.36C178.533 166.093 178.853 165.64 179.146 165L179.606 163.98L174.906 153.48H176.386L180.346 162.42L184.306 153.48H185.706ZM191.226 153.4C192.599 153.4 193.653 153.747 194.386 154.44C195.119 155.12 195.486 156.133 195.486 157.48V164H194.126V162.36C193.806 162.907 193.333 163.333 192.706 163.64C192.093 163.947 191.359 164.1 190.506 164.1C189.333 164.1 188.399 163.82 187.706 163.26C187.013 162.7 186.666 161.96 186.666 161.04C186.666 160.147 186.986 159.427 187.626 158.88C188.279 158.333 189.313 158.06 190.726 158.06H194.066V157.42C194.066 156.513 193.813 155.827 193.306 155.36C192.799 154.88 192.059 154.64 191.086 154.64C190.419 154.64 189.779 154.753 189.166 154.98C188.553 155.193 188.026 155.493 187.586 155.88L186.946 154.82C187.479 154.367 188.119 154.02 188.866 153.78C189.613 153.527 190.399 153.4 191.226 153.4ZM190.726 162.98C191.526 162.98 192.213 162.8 192.786 162.44C193.359 162.067 193.786 161.533 194.066 160.84V159.12H190.766C188.966 159.12 188.066 159.747 188.066 161C188.066 161.613 188.299 162.1 188.766 162.46C189.233 162.807 189.886 162.98 190.726 162.98ZM207.866 153.48V164H206.446V154.74H201.406L201.266 157.34C201.159 159.527 200.906 161.207 200.506 162.38C200.106 163.553 199.393 164.14 198.366 164.14C198.086 164.14 197.746 164.087 197.346 163.98L197.446 162.76C197.686 162.813 197.853 162.84 197.946 162.84C198.493 162.84 198.906 162.587 199.186 162.08C199.466 161.573 199.653 160.947 199.746 160.2C199.839 159.453 199.919 158.467 199.986 157.24L200.166 153.48H207.866ZM216.423 157.2C217.743 157.213 218.743 157.507 219.423 158.08C220.116 158.653 220.463 159.48 220.463 160.56C220.463 161.68 220.089 162.54 219.343 163.14C218.609 163.74 217.543 164.033 216.143 164.02L211.903 164V153.48H213.323V157.16L216.423 157.2ZM216.063 162.94C217.036 162.953 217.769 162.76 218.263 162.36C218.769 161.947 219.023 161.347 219.023 160.56C219.023 159.787 218.776 159.213 218.283 158.84C217.789 158.467 217.049 158.273 216.063 158.26L213.323 158.22V162.9L216.063 162.94ZM223.172 153.48H224.592V158.14H231.212V153.48H232.632V164H231.212V159.36H224.592V164H223.172V153.48ZM241.008 164.1C239.995 164.1 239.082 163.873 238.268 163.42C237.455 162.953 236.815 162.313 236.348 161.5C235.882 160.687 235.648 159.767 235.648 158.74C235.648 157.713 235.882 156.793 236.348 155.98C236.815 155.167 237.455 154.533 238.268 154.08C239.082 153.627 239.995 153.4 241.008 153.4C242.022 153.4 242.935 153.627 243.748 154.08C244.562 154.533 245.195 155.167 245.648 155.98C246.115 156.793 246.348 157.713 246.348 158.74C246.348 159.767 246.115 160.687 245.648 161.5C245.195 162.313 244.562 162.953 243.748 163.42C242.935 163.873 242.022 164.1 241.008 164.1ZM241.008 162.84C241.755 162.84 242.422 162.673 243.008 162.34C243.608 161.993 244.075 161.507 244.408 160.88C244.742 160.253 244.908 159.54 244.908 158.74C244.908 157.94 244.742 157.227 244.408 156.6C244.075 155.973 243.608 155.493 243.008 155.16C242.422 154.813 241.755 154.64 241.008 154.64C240.262 154.64 239.588 154.813 238.988 155.16C238.402 155.493 237.935 155.973 237.588 156.6C237.255 157.227 237.088 157.94 237.088 158.74C237.088 159.54 237.255 160.253 237.588 160.88C237.935 161.507 238.402 161.993 238.988 162.34C239.588 162.673 240.262 162.84 241.008 162.84ZM256.823 154.74H250.803V164H249.383V153.48H256.823V154.74ZM262.727 164.1C261.714 164.1 260.801 163.873 259.987 163.42C259.174 162.953 258.534 162.313 258.067 161.5C257.601 160.687 257.367 159.767 257.367 158.74C257.367 157.713 257.601 156.793 258.067 155.98C258.534 155.167 259.174 154.533 259.987 154.08C260.801 153.627 261.714 153.4 262.727 153.4C263.741 153.4 264.654 153.627 265.467 154.08C266.281 154.533 266.914 155.167 267.367 155.98C267.834 156.793 268.067 157.713 268.067 158.74C268.067 159.767 267.834 160.687 267.367 161.5C266.914 162.313 266.281 162.953 265.467 163.42C264.654 163.873 263.741 164.1 262.727 164.1ZM262.727 162.84C263.474 162.84 264.141 162.673 264.727 162.34C265.327 161.993 265.794 161.507 266.127 160.88C266.461 160.253 266.627 159.54 266.627 158.74C266.627 157.94 266.461 157.227 266.127 156.6C265.794 155.973 265.327 155.493 264.727 155.16C264.141 154.813 263.474 154.64 262.727 154.64C261.981 154.64 261.307 154.813 260.707 155.16C260.121 155.493 259.654 155.973 259.307 156.6C258.974 157.227 258.807 157.94 258.807 158.74C258.807 159.54 258.974 160.253 259.307 160.88C259.654 161.507 260.121 161.993 260.707 162.34C261.307 162.673 261.981 162.84 262.727 162.84ZM10.62 181.48V192H9.2V182.74H4.16L4.02 185.34C3.91333 187.527 3.66 189.207 3.26 190.38C2.86 191.553 2.14667 192.14 1.12 192.14C0.84 192.14 0.5 192.087 0.1 191.98L0.2 190.76C0.44 190.813 0.606667 190.84 0.7 190.84C1.24667 190.84 1.66 190.587 1.94 190.08C2.22 189.573 2.40667 188.947 2.5 188.2C2.59333 187.453 2.67333 186.467 2.74 185.24L2.92 181.48H10.62ZM18.9967 192.1C17.9834 192.1 17.0701 191.873 16.2567 191.42C15.4434 190.953 14.8034 190.313 14.3367 189.5C13.8701 188.687 13.6367 187.767 13.6367 186.74C13.6367 185.713 13.8701 184.793 14.3367 183.98C14.8034 183.167 15.4434 182.533 16.2567 182.08C17.0701 181.627 17.9834 181.4 18.9967 181.4C20.0101 181.4 20.9234 181.627 21.7367 182.08C22.5501 182.533 23.1834 183.167 23.6367 183.98C24.1034 184.793 24.3367 185.713 24.3367 186.74C24.3367 187.767 24.1034 188.687 23.6367 189.5C23.1834 190.313 22.5501 190.953 21.7367 191.42C20.9234 191.873 20.0101 192.1 18.9967 192.1ZM18.9967 190.84C19.7434 190.84 20.4101 190.673 20.9967 190.34C21.5967 189.993 22.0634 189.507 22.3967 188.88C22.7301 188.253 22.8967 187.54 22.8967 186.74C22.8967 185.94 22.7301 185.227 22.3967 184.6C22.0634 183.973 21.5967 183.493 20.9967 183.16C20.4101 182.813 19.7434 182.64 18.9967 182.64C18.2501 182.64 17.5767 182.813 16.9767 183.16C16.3901 183.493 15.9234 183.973 15.5767 184.6C15.2434 185.227 15.0767 185.94 15.0767 186.74C15.0767 187.54 15.2434 188.253 15.5767 188.88C15.9234 189.507 16.3901 189.993 16.9767 190.34C17.5767 190.673 18.2501 190.84 18.9967 190.84ZM34.8116 182.74H28.7916V192H27.3716V181.48H34.8116V182.74ZM40.7155 192.1C39.7021 192.1 38.7888 191.873 37.9755 191.42C37.1621 190.953 36.5221 190.313 36.0555 189.5C35.5888 188.687 35.3555 187.767 35.3555 186.74C35.3555 185.713 35.5888 184.793 36.0555 183.98C36.5221 183.167 37.1621 182.533 37.9755 182.08C38.7888 181.627 39.7021 181.4 40.7155 181.4C41.7288 181.4 42.6421 181.627 43.4555 182.08C44.2688 182.533 44.9021 183.167 45.3555 183.98C45.8221 184.793 46.0555 185.713 46.0555 186.74C46.0555 187.767 45.8221 188.687 45.3555 189.5C44.9021 190.313 44.2688 190.953 43.4555 191.42C42.6421 191.873 41.7288 192.1 40.7155 192.1ZM40.7155 190.84C41.4621 190.84 42.1288 190.673 42.7155 190.34C43.3155 189.993 43.7821 189.507 44.1155 188.88C44.4488 188.253 44.6155 187.54 44.6155 186.74C44.6155 185.94 44.4488 185.227 44.1155 184.6C43.7821 183.973 43.3155 183.493 42.7155 183.16C42.1288 182.813 41.4621 182.64 40.7155 182.64C39.9688 182.64 39.2955 182.813 38.6955 183.16C38.1088 183.493 37.6421 183.973 37.2955 184.6C36.9621 185.227 36.7955 185.94 36.7955 186.74C36.7955 187.54 36.9621 188.253 37.2955 188.88C37.6421 189.507 38.1088 189.993 38.6955 190.34C39.2955 190.673 39.9688 190.84 40.7155 190.84ZM56.0997 182.74H52.1197V192H50.6997V182.74H46.7197V181.48H56.0997V182.74ZM58.1528 181.48H59.5728V189.84L66.5928 181.48H67.8528V192H66.4328V183.64L59.4328 192H58.1528V181.48ZM81.3623 181.48V192H79.9423V182.74H73.3423V192H71.9223V181.48H81.3623ZM89.0189 181.4C90.3922 181.4 91.4456 181.747 92.1789 182.44C92.9122 183.12 93.2789 184.133 93.2789 185.48V192H91.9189V190.36C91.5989 190.907 91.1256 191.333 90.4989 191.64C89.8856 191.947 89.1522 192.1 88.2989 192.1C87.1256 192.1 86.1922 191.82 85.4989 191.26C84.8056 190.7 84.4589 189.96 84.4589 189.04C84.4589 188.147 84.7789 187.427 85.4189 186.88C86.0722 186.333 87.1056 186.06 88.5189 186.06H91.8589V185.42C91.8589 184.513 91.6056 183.827 91.0989 183.36C90.5922 182.88 89.8522 182.64 88.8789 182.64C88.2122 182.64 87.5722 182.753 86.9589 182.98C86.3456 183.193 85.8189 183.493 85.3789 183.88L84.7389 182.82C85.2722 182.367 85.9122 182.02 86.6589 181.78C87.4056 181.527 88.1922 181.4 89.0189 181.4ZM88.5189 190.98C89.3189 190.98 90.0056 190.8 90.5789 190.44C91.1522 190.067 91.5789 189.533 91.8589 188.84V187.12H88.5589C86.7589 187.12 85.8589 187.747 85.8589 189C85.8589 189.613 86.0922 190.1 86.5589 190.46C87.0256 190.807 87.6789 190.98 88.5189 190.98Z" fill="black"/>
<defs>
<linearGradient id="paint0_linear" x1="39.7246" y1="8.6455" x2="45.1739" y2="-4.44979" gradientUnits="userSpaceOnUse">
<stop stop-color="#DBFF00"/>
<stop offset="1" stop-color="#00FF47" stop-opacity="0.62"/>
</linearGradient>
<linearGradient id="paint1_linear" x1="5.5" y1="30.5" x2="7.69706" y2="10.7511" gradientUnits="userSpaceOnUse">
<stop stop-color="#DBFF00"/>
<stop offset="1" stop-color="#00FF47" stop-opacity="0.62"/>
</linearGradient>
<linearGradient id="paint2_linear" x1="52.4209" y1="22.44" x2="64.0329" y2="4.373" gradientUnits="userSpaceOnUse">
<stop stop-color="#DBFF00"/>
<stop offset="1" stop-color="#00FF47" stop-opacity="0.62"/>
</linearGradient>
<linearGradient id="paint3_linear" x1="18" y1="25.5" x2="37.126" y2="-1.09762" gradientUnits="userSpaceOnUse">
<stop stop-color="#DBFF00"/>
<stop offset="1" stop-color="#00FF47" stop-opacity="0.62"/>
</linearGradient>
<linearGradient id="paint4_linear" x1="35.344" y1="24.3449" x2="41.6678" y2="8.12804" gradientUnits="userSpaceOnUse">
<stop stop-color="#DBFF00"/>
<stop offset="1" stop-color="#00FF47" stop-opacity="0.62"/>
</linearGradient>
<linearGradient id="paint5_linear" x1="-1.5" y1="91.5" x2="54.9869" y2="7.54606" gradientUnits="userSpaceOnUse">
<stop stop-color="#DBFF00"/>
<stop offset="1" stop-color="#00FF47" stop-opacity="0.62"/>
</linearGradient>
<linearGradient id="paint6_linear" x1="51.8485" y1="37.847" x2="57.1228" y2="30.9454" gradientUnits="userSpaceOnUse">
<stop stop-color="#DBFF00"/>
<stop offset="1" stop-color="#00FF47" stop-opacity="0.62"/>
</linearGradient>
<linearGradient id="paint7_linear" x1="30.2383" y1="37.847" x2="35.5126" y2="30.9454" gradientUnits="userSpaceOnUse">
<stop stop-color="#DBFF00"/>
<stop offset="1" stop-color="#00FF47" stop-opacity="0.62"/>
</linearGradient>
<linearGradient id="paint8_linear" x1="30" y1="58" x2="49.2535" y2="31.1478" gradientUnits="userSpaceOnUse">
<stop stop-color="#DBFF00"/>
<stop offset="1" stop-color="#00FF47" stop-opacity="0.62"/>
</linearGradient>
<clipPath id="clip0">
<rect width="85" height="85" fill="white"/>
</clipPath>
</defs>
</svg>
