<svg width="283" height="199" viewBox="0 0 283 199" fill="none" xmlns="http://www.w3.org/2000/svg">
<path d="M9.5 136.12C8.11333 136.12 6.85333 135.813 5.72 135.2C4.6 134.573 3.72 133.72 3.08 132.64C2.45333 131.56 2.14 130.347 2.14 129C2.14 127.653 2.45333 126.44 3.08 125.36C3.72 124.28 4.6 123.433 5.72 122.82C6.85333 122.193 8.11333 121.88 9.5 121.88C10.8867 121.88 12.1333 122.187 13.24 122.8C14.36 123.413 15.24 124.267 15.88 125.36C16.52 126.44 16.84 127.653 16.84 129C16.84 130.347 16.52 131.567 15.88 132.66C15.24 133.74 14.36 134.587 13.24 135.2C12.1333 135.813 10.8867 136.12 9.5 136.12ZM9.5 134.8C10.6067 134.8 11.6067 134.553 12.5 134.06C13.3933 133.553 14.0933 132.86 14.6 131.98C15.1067 131.087 15.36 130.093 15.36 129C15.36 127.907 15.1067 126.92 14.6 126.04C14.0933 125.147 13.3933 124.453 12.5 123.96C11.6067 123.453 10.6067 123.2 9.5 123.2C8.39333 123.2 7.38667 123.453 6.48 123.96C5.58667 124.453 4.88 125.147 4.36 126.04C3.85333 126.92 3.6 127.907 3.6 129C3.6 130.093 3.85333 131.087 4.36 131.98C4.88 132.86 5.58667 133.553 6.48 134.06C7.38667 134.553 8.39333 134.8 9.5 134.8ZM27.1388 126.74H23.1588V136H21.7388V126.74H17.7588V125.48H27.1388V126.74ZM35.8919 130.56C37.3185 130.893 38.0319 131.753 38.0319 133.14C38.0319 134.06 37.6919 134.767 37.0119 135.26C36.3319 135.753 35.3185 136 33.9719 136H29.1919V125.48H33.8319C35.0319 125.48 35.9719 125.713 36.6519 126.18C37.3319 126.647 37.6719 127.313 37.6719 128.18C37.6719 128.753 37.5119 129.247 37.1919 129.66C36.8852 130.06 36.4519 130.36 35.8919 130.56ZM30.5719 130.16H33.7319C34.5452 130.16 35.1652 130.007 35.5919 129.7C36.0319 129.393 36.2519 128.947 36.2519 128.36C36.2519 127.773 36.0319 127.333 35.5919 127.04C35.1652 126.747 34.5452 126.6 33.7319 126.6H30.5719V130.16ZM33.9119 134.88C34.8185 134.88 35.4985 134.733 35.9519 134.44C36.4052 134.147 36.6319 133.687 36.6319 133.06C36.6319 132.433 36.4252 131.973 36.0119 131.68C35.5985 131.373 34.9452 131.22 34.0519 131.22H30.5719V134.88H33.9119ZM50.5598 131.18H41.7598C41.8398 132.273 42.2598 133.16 43.0198 133.84C43.7798 134.507 44.7398 134.84 45.8998 134.84C46.5532 134.84 47.1532 134.727 47.6998 134.5C48.2465 134.26 48.7198 133.913 49.1198 133.46L49.9198 134.38C49.4532 134.94 48.8665 135.367 48.1598 135.66C47.4665 135.953 46.6998 136.1 45.8598 136.1C44.7798 136.1 43.8198 135.873 42.9798 135.42C42.1532 134.953 41.5065 134.313 41.0398 133.5C40.5732 132.687 40.3398 131.767 40.3398 130.74C40.3398 129.713 40.5598 128.793 40.9998 127.98C41.4532 127.167 42.0665 126.533 42.8398 126.08C43.6265 125.627 44.5065 125.4 45.4798 125.4C46.4532 125.4 47.3265 125.627 48.0998 126.08C48.8732 126.533 49.4798 127.167 49.9198 127.98C50.3598 128.78 50.5798 129.7 50.5798 130.74L50.5598 131.18ZM45.4798 126.62C44.4665 126.62 43.6132 126.947 42.9198 127.6C42.2398 128.24 41.8532 129.08 41.7598 130.12H49.2198C49.1265 129.08 48.7332 128.24 48.0398 127.6C47.3598 126.947 46.5065 126.62 45.4798 126.62ZM61.6631 125.48V136H60.2431V131.62C59.0298 132.153 57.8365 132.42 56.6631 132.42C55.3965 132.42 54.4098 132.133 53.7031 131.56C52.9965 130.973 52.6431 130.1 52.6431 128.94V125.48H54.0631V128.86C54.0631 129.647 54.3165 130.247 54.8231 130.66C55.3298 131.06 56.0298 131.26 56.9231 131.26C57.9098 131.26 59.0165 131 60.2431 130.48V125.48H61.6631ZM69.3158 125.4C70.6891 125.4 71.7424 125.747 72.4758 126.44C73.2091 127.12 73.5758 128.133 73.5758 129.48V136H72.2158V134.36C71.8958 134.907 71.4224 135.333 70.7958 135.64C70.1824 135.947 69.4491 136.1 68.5958 136.1C67.4224 136.1 66.4891 135.82 65.7958 135.26C65.1024 134.7 64.7558 133.96 64.7558 133.04C64.7558 132.147 65.0758 131.427 65.7158 130.88C66.3691 130.333 67.4024 130.06 68.8158 130.06H72.1558V129.42C72.1558 128.513 71.9024 127.827 71.3958 127.36C70.8891 126.88 70.1491 126.64 69.1758 126.64C68.5091 126.64 67.8691 126.753 67.2558 126.98C66.6424 127.193 66.1158 127.493 65.6758 127.88L65.0358 126.82C65.5691 126.367 66.2091 126.02 66.9558 125.78C67.7024 125.527 68.4891 125.4 69.3158 125.4ZM68.8158 134.98C69.6158 134.98 70.3024 134.8 70.8758 134.44C71.4491 134.067 71.8758 133.533 72.1558 132.84V131.12H68.8558C67.0558 131.12 66.1558 131.747 66.1558 133C66.1558 133.613 66.3891 134.1 66.8558 134.46C67.3224 134.807 67.9758 134.98 68.8158 134.98ZM86.5559 131.18H77.7559C77.8359 132.273 78.2559 133.16 79.0159 133.84C79.7759 134.507 80.7359 134.84 81.8959 134.84C82.5493 134.84 83.1493 134.727 83.6959 134.5C84.2426 134.26 84.7159 133.913 85.1159 133.46L85.9159 134.38C85.4493 134.94 84.8626 135.367 84.1559 135.66C83.4626 135.953 82.6959 136.1 81.8559 136.1C80.7759 136.1 79.8159 135.873 78.9759 135.42C78.1493 134.953 77.5026 134.313 77.0359 133.5C76.5693 132.687 76.3359 131.767 76.3359 130.74C76.3359 129.713 76.5559 128.793 76.9959 127.98C77.4493 127.167 78.0626 126.533 78.8359 126.08C79.6226 125.627 80.5026 125.4 81.4759 125.4C82.4493 125.4 83.3226 125.627 84.0959 126.08C84.8693 126.533 85.4759 127.167 85.9159 127.98C86.3559 128.78 86.5759 129.7 86.5759 130.74L86.5559 131.18ZM81.4759 126.62C80.4626 126.62 79.6093 126.947 78.9159 127.6C78.2359 128.24 77.8493 129.08 77.7559 130.12H85.2159C85.1226 129.08 84.7293 128.24 84.0359 127.6C83.3559 126.947 82.5026 126.62 81.4759 126.62ZM101.479 125.48V136H100.179V127.68L95.9192 134.72H95.2792L91.0192 127.66V136H89.7192V125.48H91.1592L95.6192 133.06L100.159 125.48H101.479ZM110.754 125.48H112.174V130.14H118.794V125.48H120.214V136H118.794V131.36H112.174V136H110.754V125.48ZM127.87 125.4C129.244 125.4 130.297 125.747 131.03 126.44C131.764 127.12 132.13 128.133 132.13 129.48V136H130.77V134.36C130.45 134.907 129.977 135.333 129.35 135.64C128.737 135.947 128.004 136.1 127.15 136.1C125.977 136.1 125.044 135.82 124.35 135.26C123.657 134.7 123.31 133.96 123.31 133.04C123.31 132.147 123.63 131.427 124.27 130.88C124.924 130.333 125.957 130.06 127.37 130.06H130.71V129.42C130.71 128.513 130.457 127.827 129.95 127.36C129.444 126.88 128.704 126.64 127.73 126.64C127.064 126.64 126.424 126.753 125.81 126.98C125.197 127.193 124.67 127.493 124.23 127.88L123.59 126.82C124.124 126.367 124.764 126.02 125.51 125.78C126.257 125.527 127.044 125.4 127.87 125.4ZM127.37 134.98C128.17 134.98 128.857 134.8 129.43 134.44C130.004 134.067 130.43 133.533 130.71 132.84V131.12H127.41C125.61 131.12 124.71 131.747 124.71 133C124.71 133.613 124.944 134.1 125.41 134.46C125.877 134.807 126.53 134.98 127.37 134.98ZM147.845 130.56C149.272 130.893 149.985 131.753 149.985 133.14C149.985 134.06 149.645 134.767 148.965 135.26C148.285 135.753 147.272 136 145.925 136H141.145V125.48H145.785C146.985 125.48 147.925 125.713 148.605 126.18C149.285 126.647 149.625 127.313 149.625 128.18C149.625 128.753 149.465 129.247 149.145 129.66C148.838 130.06 148.405 130.36 147.845 130.56ZM142.525 130.16H145.685C146.498 130.16 147.118 130.007 147.545 129.7C147.985 129.393 148.205 128.947 148.205 128.36C148.205 127.773 147.985 127.333 147.545 127.04C147.118 126.747 146.498 126.6 145.685 126.6H142.525V130.16ZM145.865 134.88C146.772 134.88 147.452 134.733 147.905 134.44C148.358 134.147 148.585 133.687 148.585 133.06C148.585 132.433 148.378 131.973 147.965 131.68C147.552 131.373 146.898 131.22 146.005 131.22H142.525V134.88H145.865ZM157.713 136.1C156.673 136.1 155.74 135.873 154.913 135.42C154.1 134.967 153.46 134.333 152.993 133.52C152.526 132.693 152.293 131.767 152.293 130.74C152.293 129.713 152.526 128.793 152.993 127.98C153.46 127.167 154.1 126.533 154.913 126.08C155.74 125.627 156.673 125.4 157.713 125.4C158.62 125.4 159.426 125.58 160.133 125.94C160.853 126.287 161.42 126.8 161.833 127.48L160.773 128.2C160.426 127.68 159.986 127.293 159.453 127.04C158.92 126.773 158.34 126.64 157.713 126.64C156.953 126.64 156.266 126.813 155.653 127.16C155.053 127.493 154.58 127.973 154.233 128.6C153.9 129.227 153.733 129.94 153.733 130.74C153.733 131.553 153.9 132.273 154.233 132.9C154.58 133.513 155.053 133.993 155.653 134.34C156.266 134.673 156.953 134.84 157.713 134.84C158.34 134.84 158.92 134.713 159.453 134.46C159.986 134.207 160.426 133.82 160.773 133.3L161.833 134.02C161.42 134.7 160.853 135.22 160.133 135.58C159.413 135.927 158.606 136.1 157.713 136.1ZM173.607 131.18H164.807C164.887 132.273 165.307 133.16 166.067 133.84C166.827 134.507 167.787 134.84 168.947 134.84C169.6 134.84 170.2 134.727 170.747 134.5C171.293 134.26 171.767 133.913 172.167 133.46L172.967 134.38C172.5 134.94 171.913 135.367 171.207 135.66C170.513 135.953 169.747 136.1 168.907 136.1C167.827 136.1 166.867 135.873 166.027 135.42C165.2 134.953 164.553 134.313 164.087 133.5C163.62 132.687 163.387 131.767 163.387 130.74C163.387 129.713 163.607 128.793 164.047 127.98C164.5 127.167 165.113 126.533 165.887 126.08C166.673 125.627 167.553 125.4 168.527 125.4C169.5 125.4 170.373 125.627 171.147 126.08C171.92 126.533 172.527 127.167 172.967 127.98C173.407 128.78 173.627 129.7 173.627 130.74L173.607 131.18ZM168.527 126.62C167.513 126.62 166.66 126.947 165.967 127.6C165.287 128.24 164.9 129.08 164.807 130.12H172.267C172.173 129.08 171.78 128.24 171.087 127.6C170.407 126.947 169.553 126.62 168.527 126.62ZM188.704 130.56C190.131 130.893 190.844 131.753 190.844 133.14C190.844 134.06 190.504 134.767 189.824 135.26C189.144 135.753 188.131 136 186.784 136H182.004V125.48H186.644C187.844 125.48 188.784 125.713 189.464 126.18C190.144 126.647 190.484 127.313 190.484 128.18C190.484 128.753 190.324 129.247 190.004 129.66C189.698 130.06 189.264 130.36 188.704 130.56ZM183.384 130.16H186.544C187.358 130.16 187.978 130.007 188.404 129.7C188.844 129.393 189.064 128.947 189.064 128.36C189.064 127.773 188.844 127.333 188.404 127.04C187.978 126.747 187.358 126.6 186.544 126.6H183.384V130.16ZM186.724 134.88C187.631 134.88 188.311 134.733 188.764 134.44C189.218 134.147 189.444 133.687 189.444 133.06C189.444 132.433 189.238 131.973 188.824 131.68C188.411 131.373 187.758 131.22 186.864 131.22H183.384V134.88H186.724ZM197.792 125.4C199.166 125.4 200.219 125.747 200.952 126.44C201.686 127.12 202.052 128.133 202.052 129.48V136H200.692V134.36C200.372 134.907 199.899 135.333 199.272 135.64C198.659 135.947 197.926 136.1 197.072 136.1C195.899 136.1 194.966 135.82 194.272 135.26C193.579 134.7 193.232 133.96 193.232 133.04C193.232 132.147 193.552 131.427 194.192 130.88C194.846 130.333 195.879 130.06 197.292 130.06H200.632V129.42C200.632 128.513 200.379 127.827 199.872 127.36C199.366 126.88 198.626 126.64 197.652 126.64C196.986 126.64 196.346 126.753 195.732 126.98C195.119 127.193 194.592 127.493 194.152 127.88L193.512 126.82C194.046 126.367 194.686 126.02 195.432 125.78C196.179 125.527 196.966 125.4 197.792 125.4ZM197.292 134.98C198.092 134.98 198.779 134.8 199.352 134.44C199.926 134.067 200.352 133.533 200.632 132.84V131.12H197.332C195.532 131.12 194.632 131.747 194.632 133C194.632 133.613 194.866 134.1 195.332 134.46C195.799 134.807 196.452 134.98 197.292 134.98ZM220.353 125.48V136H205.833V125.48H207.253V134.76H212.413V125.48H213.833V134.76H218.933V125.48H220.353ZM224.407 125.48H225.827V133.84L232.847 125.48H234.107V136H232.687V127.64L225.687 136H224.407V125.48ZM9.72 158.56C11.1467 158.893 11.86 159.753 11.86 161.14C11.86 162.06 11.52 162.767 10.84 163.26C10.16 163.753 9.14667 164 7.8 164H3.02V153.48H7.66C8.86 153.48 9.8 153.713 10.48 154.18C11.16 154.647 11.5 155.313 11.5 156.18C11.5 156.753 11.34 157.247 11.02 157.66C10.7133 158.06 10.28 158.36 9.72 158.56ZM4.4 158.16H7.56C8.37333 158.16 8.99333 158.007 9.42 157.7C9.86 157.393 10.08 156.947 10.08 156.36C10.08 155.773 9.86 155.333 9.42 155.04C8.99333 154.747 8.37333 154.6 7.56 154.6H4.4V158.16ZM7.74 162.88C8.64667 162.88 9.32667 162.733 9.78 162.44C10.2333 162.147 10.46 161.687 10.46 161.06C10.46 160.433 10.2533 159.973 9.84 159.68C9.42667 159.373 8.77333 159.22 7.88 159.22H4.4V162.88H7.74ZM19.528 164.1C18.5146 164.1 17.6013 163.873 16.788 163.42C15.9746 162.953 15.3346 162.313 14.868 161.5C14.4013 160.687 14.168 159.767 14.168 158.74C14.168 157.713 14.4013 156.793 14.868 155.98C15.3346 155.167 15.9746 154.533 16.788 154.08C17.6013 153.627 18.5146 153.4 19.528 153.4C20.5413 153.4 21.4546 153.627 22.268 154.08C23.0813 154.533 23.7146 155.167 24.168 155.98C24.6346 156.793 24.868 157.713 24.868 158.74C24.868 159.767 24.6346 160.687 24.168 161.5C23.7146 162.313 23.0813 162.953 22.268 163.42C21.4546 163.873 20.5413 164.1 19.528 164.1ZM19.528 162.84C20.2746 162.84 20.9413 162.673 21.528 162.34C22.128 161.993 22.5946 161.507 22.928 160.88C23.2613 160.253 23.428 159.54 23.428 158.74C23.428 157.94 23.2613 157.227 22.928 156.6C22.5946 155.973 22.128 155.493 21.528 155.16C20.9413 154.813 20.2746 154.64 19.528 154.64C18.7813 154.64 18.108 154.813 17.508 155.16C16.9213 155.493 16.4546 155.973 16.108 156.6C15.7746 157.227 15.608 157.94 15.608 158.74C15.608 159.54 15.7746 160.253 16.108 160.88C16.4546 161.507 16.9213 161.993 17.508 162.34C18.108 162.673 18.7813 162.84 19.528 162.84ZM37.3428 153.48V164H35.9228V154.74H29.3228V164H27.9028V153.48H37.3428ZM46.7994 153.4C47.786 153.4 48.6794 153.627 49.4794 154.08C50.2794 154.52 50.906 155.147 51.3594 155.96C51.8127 156.773 52.0394 157.7 52.0394 158.74C52.0394 159.793 51.8127 160.727 51.3594 161.54C50.906 162.353 50.2794 162.987 49.4794 163.44C48.6927 163.88 47.7994 164.1 46.7994 164.1C45.946 164.1 45.1727 163.927 44.4794 163.58C43.7994 163.22 43.2394 162.7 42.7994 162.02V167.88H41.3794V153.48H42.7394V155.56C43.166 154.867 43.726 154.333 44.4194 153.96C45.126 153.587 45.9194 153.4 46.7994 153.4ZM46.6994 162.84C47.4327 162.84 48.0994 162.673 48.6994 162.34C49.2994 161.993 49.766 161.507 50.0994 160.88C50.446 160.253 50.6194 159.54 50.6194 158.74C50.6194 157.94 50.446 157.233 50.0994 156.62C49.766 155.993 49.2994 155.507 48.6994 155.16C48.0994 154.813 47.4327 154.64 46.6994 154.64C45.9527 154.64 45.2794 154.813 44.6794 155.16C44.0927 155.507 43.626 155.993 43.2794 156.62C42.946 157.233 42.7794 157.94 42.7794 158.74C42.7794 159.54 42.946 160.253 43.2794 160.88C43.626 161.507 44.0927 161.993 44.6794 162.34C45.2794 162.673 45.9527 162.84 46.6994 162.84ZM59.4303 164.1C58.417 164.1 57.5036 163.873 56.6903 163.42C55.877 162.953 55.237 162.313 54.7703 161.5C54.3036 160.687 54.0703 159.767 54.0703 158.74C54.0703 157.713 54.3036 156.793 54.7703 155.98C55.237 155.167 55.877 154.533 56.6903 154.08C57.5036 153.627 58.417 153.4 59.4303 153.4C60.4436 153.4 61.357 153.627 62.1703 154.08C62.9836 154.533 63.617 155.167 64.0703 155.98C64.537 156.793 64.7703 157.713 64.7703 158.74C64.7703 159.767 64.537 160.687 64.0703 161.5C63.617 162.313 62.9836 162.953 62.1703 163.42C61.357 163.873 60.4436 164.1 59.4303 164.1ZM59.4303 162.84C60.177 162.84 60.8436 162.673 61.4303 162.34C62.0303 161.993 62.497 161.507 62.8303 160.88C63.1636 160.253 63.3303 159.54 63.3303 158.74C63.3303 157.94 63.1636 157.227 62.8303 156.6C62.497 155.973 62.0303 155.493 61.4303 155.16C60.8436 154.813 60.177 154.64 59.4303 154.64C58.6836 154.64 58.0103 154.813 57.4103 155.16C56.8236 155.493 56.357 155.973 56.0103 156.6C55.677 157.227 55.5103 157.94 55.5103 158.74C55.5103 159.54 55.677 160.253 56.0103 160.88C56.357 161.507 56.8236 161.993 57.4103 162.34C58.0103 162.673 58.6836 162.84 59.4303 162.84ZM72.2052 164.1C71.1652 164.1 70.2318 163.873 69.4052 163.42C68.5918 162.967 67.9518 162.333 67.4852 161.52C67.0185 160.693 66.7852 159.767 66.7852 158.74C66.7852 157.713 67.0185 156.793 67.4852 155.98C67.9518 155.167 68.5918 154.533 69.4052 154.08C70.2318 153.627 71.1652 153.4 72.2052 153.4C73.1118 153.4 73.9185 153.58 74.6252 153.94C75.3452 154.287 75.9118 154.8 76.3252 155.48L75.2652 156.2C74.9185 155.68 74.4785 155.293 73.9452 155.04C73.4118 154.773 72.8318 154.64 72.2052 154.64C71.4452 154.64 70.7585 154.813 70.1452 155.16C69.5452 155.493 69.0718 155.973 68.7252 156.6C68.3918 157.227 68.2252 157.94 68.2252 158.74C68.2252 159.553 68.3918 160.273 68.7252 160.9C69.0718 161.513 69.5452 161.993 70.1452 162.34C70.7585 162.673 71.4452 162.84 72.2052 162.84C72.8318 162.84 73.4118 162.713 73.9452 162.46C74.4785 162.207 74.9185 161.82 75.2652 161.3L76.3252 162.02C75.9118 162.7 75.3452 163.22 74.6252 163.58C73.9052 163.927 73.0985 164.1 72.2052 164.1ZM83.4947 157.2C84.8147 157.213 85.8214 157.507 86.5147 158.08C87.208 158.653 87.5547 159.48 87.5547 160.56C87.5547 161.68 87.1814 162.54 86.4347 163.14C85.688 163.74 84.6214 164.033 83.2347 164.02L79.0747 164V153.48H80.4947V157.16L83.4947 157.2ZM89.3147 153.48H90.7347V164H89.3147V153.48ZM83.1547 162.94C84.128 162.953 84.8614 162.76 85.3547 162.36C85.8614 161.947 86.1147 161.347 86.1147 160.56C86.1147 159.787 85.868 159.213 85.3747 158.84C84.8814 158.467 84.1414 158.273 83.1547 158.26L80.4947 158.22V162.9L83.1547 162.94ZM106.712 158.56C108.139 158.893 108.852 159.753 108.852 161.14C108.852 162.06 108.512 162.767 107.832 163.26C107.152 163.753 106.139 164 104.792 164H100.012V153.48H104.652C105.852 153.48 106.792 153.713 107.472 154.18C108.152 154.647 108.492 155.313 108.492 156.18C108.492 156.753 108.332 157.247 108.012 157.66C107.706 158.06 107.272 158.36 106.712 158.56ZM101.392 158.16H104.552C105.366 158.16 105.986 158.007 106.412 157.7C106.852 157.393 107.072 156.947 107.072 156.36C107.072 155.773 106.852 155.333 106.412 155.04C105.986 154.747 105.366 154.6 104.552 154.6H101.392V158.16ZM104.732 162.88C105.639 162.88 106.319 162.733 106.772 162.44C107.226 162.147 107.452 161.687 107.452 161.06C107.452 160.433 107.246 159.973 106.832 159.68C106.419 159.373 105.766 159.22 104.872 159.22H101.392V162.88H104.732ZM121.235 159.32H118.835V164H117.415V153.48H118.835V158.1H121.255L124.955 153.48H126.495L122.355 158.58L126.795 164H125.115L121.235 159.32ZM133.005 164.1C131.991 164.1 131.078 163.873 130.265 163.42C129.451 162.953 128.811 162.313 128.345 161.5C127.878 160.687 127.645 159.767 127.645 158.74C127.645 157.713 127.878 156.793 128.345 155.98C128.811 155.167 129.451 154.533 130.265 154.08C131.078 153.627 131.991 153.4 133.005 153.4C134.018 153.4 134.931 153.627 135.745 154.08C136.558 154.533 137.191 155.167 137.645 155.98C138.111 156.793 138.345 157.713 138.345 158.74C138.345 159.767 138.111 160.687 137.645 161.5C137.191 162.313 136.558 162.953 135.745 163.42C134.931 163.873 134.018 164.1 133.005 164.1ZM133.005 162.84C133.751 162.84 134.418 162.673 135.005 162.34C135.605 161.993 136.071 161.507 136.405 160.88C136.738 160.253 136.905 159.54 136.905 158.74C136.905 157.94 136.738 157.227 136.405 156.6C136.071 155.973 135.605 155.493 135.005 155.16C134.418 154.813 133.751 154.64 133.005 154.64C132.258 154.64 131.585 154.813 130.985 155.16C130.398 155.493 129.931 155.973 129.585 156.6C129.251 157.227 129.085 157.94 129.085 158.74C129.085 159.54 129.251 160.253 129.585 160.88C129.931 161.507 130.398 161.993 130.985 162.34C131.585 162.673 132.258 162.84 133.005 162.84ZM146.799 153.4C147.786 153.4 148.679 153.627 149.479 154.08C150.279 154.52 150.906 155.147 151.359 155.96C151.813 156.773 152.039 157.7 152.039 158.74C152.039 159.793 151.813 160.727 151.359 161.54C150.906 162.353 150.279 162.987 149.479 163.44C148.693 163.88 147.799 164.1 146.799 164.1C145.946 164.1 145.173 163.927 144.479 163.58C143.799 163.22 143.239 162.7 142.799 162.02V167.88H141.379V153.48H142.739V155.56C143.166 154.867 143.726 154.333 144.419 153.96C145.126 153.587 145.919 153.4 146.799 153.4ZM146.699 162.84C147.433 162.84 148.099 162.673 148.699 162.34C149.299 161.993 149.766 161.507 150.099 160.88C150.446 160.253 150.619 159.54 150.619 158.74C150.619 157.94 150.446 157.233 150.099 156.62C149.766 155.993 149.299 155.507 148.699 155.16C148.099 154.813 147.433 154.64 146.699 154.64C145.953 154.64 145.279 154.813 144.679 155.16C144.093 155.507 143.626 155.993 143.279 156.62C142.946 157.233 142.779 157.94 142.779 158.74C142.779 159.54 142.946 160.253 143.279 160.88C143.626 161.507 144.093 161.993 144.679 162.34C145.279 162.673 145.953 162.84 146.699 162.84ZM159.43 164.1C158.417 164.1 157.504 163.873 156.69 163.42C155.877 162.953 155.237 162.313 154.77 161.5C154.304 160.687 154.07 159.767 154.07 158.74C154.07 157.713 154.304 156.793 154.77 155.98C155.237 155.167 155.877 154.533 156.69 154.08C157.504 153.627 158.417 153.4 159.43 153.4C160.444 153.4 161.357 153.627 162.17 154.08C162.984 154.533 163.617 155.167 164.07 155.98C164.537 156.793 164.77 157.713 164.77 158.74C164.77 159.767 164.537 160.687 164.07 161.5C163.617 162.313 162.984 162.953 162.17 163.42C161.357 163.873 160.444 164.1 159.43 164.1ZM159.43 162.84C160.177 162.84 160.844 162.673 161.43 162.34C162.03 161.993 162.497 161.507 162.83 160.88C163.164 160.253 163.33 159.54 163.33 158.74C163.33 157.94 163.164 157.227 162.83 156.6C162.497 155.973 162.03 155.493 161.43 155.16C160.844 154.813 160.177 154.64 159.43 154.64C158.684 154.64 158.01 154.813 157.41 155.16C156.824 155.493 156.357 155.973 156.01 156.6C155.677 157.227 155.51 157.94 155.51 158.74C155.51 159.54 155.677 160.253 156.01 160.88C156.357 161.507 156.824 161.993 157.41 162.34C158.01 162.673 158.684 162.84 159.43 162.84ZM174.815 154.74H170.835V164H169.415V154.74H165.435V153.48H174.815V154.74ZM184.808 153.48V164H183.388V159.62C182.174 160.153 180.981 160.42 179.808 160.42C178.541 160.42 177.554 160.133 176.848 159.56C176.141 158.973 175.788 158.1 175.788 156.94V153.48H177.208V156.86C177.208 157.647 177.461 158.247 177.968 158.66C178.474 159.06 179.174 159.26 180.068 159.26C181.054 159.26 182.161 159 183.388 158.48V153.48H184.808ZM192.46 153.4C193.834 153.4 194.887 153.747 195.62 154.44C196.354 155.12 196.72 156.133 196.72 157.48V164H195.36V162.36C195.04 162.907 194.567 163.333 193.94 163.64C193.327 163.947 192.594 164.1 191.74 164.1C190.567 164.1 189.634 163.82 188.94 163.26C188.247 162.7 187.9 161.96 187.9 161.04C187.9 160.147 188.22 159.427 188.86 158.88C189.514 158.333 190.547 158.06 191.96 158.06H195.3V157.42C195.3 156.513 195.047 155.827 194.54 155.36C194.034 154.88 193.294 154.64 192.32 154.64C191.654 154.64 191.014 154.753 190.4 154.98C189.787 155.193 189.26 155.493 188.82 155.88L188.18 154.82C188.714 154.367 189.354 154.02 190.1 153.78C190.847 153.527 191.634 153.4 192.46 153.4ZM191.96 162.98C192.76 162.98 193.447 162.8 194.02 162.44C194.594 162.067 195.02 161.533 195.3 160.84V159.12H192C190.2 159.12 189.3 159.747 189.3 161C189.3 161.613 189.534 162.1 190 162.46C190.467 162.807 191.12 162.98 191.96 162.98ZM200.5 153.48H201.92V161.84L208.94 153.48H210.2V164H208.78V155.64L201.78 164H200.5V153.48ZM205.28 151.96C204.374 151.96 203.654 151.733 203.12 151.28C202.587 150.827 202.314 150.187 202.3 149.36H203.32C203.334 149.88 203.52 150.3 203.88 150.62C204.24 150.927 204.707 151.08 205.28 151.08C205.854 151.08 206.32 150.927 206.68 150.62C207.054 150.3 207.247 149.88 207.26 149.36H208.28C208.267 150.187 207.987 150.827 207.44 151.28C206.907 151.733 206.187 151.96 205.28 151.96ZM228.79 153.48V164H214.27V153.48H215.69V162.76H220.85V153.48H222.27V162.76H227.37V153.48H228.79ZM232.844 153.48H234.264V161.84L241.284 153.48H242.544V164H241.124V155.64L234.124 164H232.844V153.48ZM255.814 159.18H247.014C247.094 160.273 247.514 161.16 248.274 161.84C249.034 162.507 249.994 162.84 251.154 162.84C251.807 162.84 252.407 162.727 252.954 162.5C253.5 162.26 253.974 161.913 254.374 161.46L255.174 162.38C254.707 162.94 254.12 163.367 253.414 163.66C252.72 163.953 251.954 164.1 251.114 164.1C250.034 164.1 249.074 163.873 248.234 163.42C247.407 162.953 246.76 162.313 246.294 161.5C245.827 160.687 245.594 159.767 245.594 158.74C245.594 157.713 245.814 156.793 246.254 155.98C246.707 155.167 247.32 154.533 248.094 154.08C248.88 153.627 249.76 153.4 250.734 153.4C251.707 153.4 252.58 153.627 253.354 154.08C254.127 154.533 254.734 155.167 255.174 155.98C255.614 156.78 255.834 157.7 255.834 158.74L255.814 159.18ZM250.734 154.62C249.72 154.62 248.867 154.947 248.174 155.6C247.494 156.24 247.107 157.08 247.014 158.12H254.474C254.38 157.08 253.987 156.24 253.294 155.6C252.614 154.947 251.76 154.62 250.734 154.62ZM7.42 192.1C6.38 192.1 5.44667 191.873 4.62 191.42C3.80667 190.967 3.16667 190.333 2.7 189.52C2.23333 188.693 2 187.767 2 186.74C2 185.713 2.23333 184.793 2.7 183.98C3.16667 183.167 3.80667 182.533 4.62 182.08C5.44667 181.627 6.38 181.4 7.42 181.4C8.32667 181.4 9.13333 181.58 9.84 181.94C10.56 182.287 11.1267 182.8 11.54 183.48L10.48 184.2C10.1333 183.68 9.69333 183.293 9.16 183.04C8.62667 182.773 8.04667 182.64 7.42 182.64C6.66 182.64 5.97333 182.813 5.36 183.16C4.76 183.493 4.28667 183.973 3.94 184.6C3.60667 185.227 3.44 185.94 3.44 186.74C3.44 187.553 3.60667 188.273 3.94 188.9C4.28667 189.513 4.76 189.993 5.36 190.34C5.97333 190.673 6.66 190.84 7.42 190.84C8.04667 190.84 8.62667 190.713 9.16 190.46C9.69333 190.207 10.1333 189.82 10.48 189.3L11.54 190.02C11.1267 190.7 10.56 191.22 9.84 191.58C9.12 191.927 8.31333 192.1 7.42 192.1ZM19.7095 181.4C20.6962 181.4 21.5895 181.627 22.3895 182.08C23.1895 182.52 23.8162 183.147 24.2695 183.96C24.7229 184.773 24.9495 185.7 24.9495 186.74C24.9495 187.793 24.7229 188.727 24.2695 189.54C23.8162 190.353 23.1895 190.987 22.3895 191.44C21.6029 191.88 20.7095 192.1 19.7095 192.1C18.8562 192.1 18.0829 191.927 17.3895 191.58C16.7095 191.22 16.1495 190.7 15.7095 190.02V195.88H14.2895V181.48H15.6495V183.56C16.0762 182.867 16.6362 182.333 17.3295 181.96C18.0362 181.587 18.8295 181.4 19.7095 181.4ZM19.6095 190.84C20.3429 190.84 21.0095 190.673 21.6095 190.34C22.2095 189.993 22.6762 189.507 23.0095 188.88C23.3562 188.253 23.5295 187.54 23.5295 186.74C23.5295 185.94 23.3562 185.233 23.0095 184.62C22.6762 183.993 22.2095 183.507 21.6095 183.16C21.0095 182.813 20.3429 182.64 19.6095 182.64C18.8629 182.64 18.1895 182.813 17.5895 183.16C17.0029 183.507 16.5362 183.993 16.1895 184.62C15.8562 185.233 15.6895 185.94 15.6895 186.74C15.6895 187.54 15.8562 188.253 16.1895 188.88C16.5362 189.507 17.0029 189.993 17.5895 190.34C18.1895 190.673 18.8629 190.84 19.6095 190.84ZM32.3405 192.1C31.3271 192.1 30.4138 191.873 29.6005 191.42C28.7871 190.953 28.1471 190.313 27.6805 189.5C27.2138 188.687 26.9805 187.767 26.9805 186.74C26.9805 185.713 27.2138 184.793 27.6805 183.98C28.1471 183.167 28.7871 182.533 29.6005 182.08C30.4138 181.627 31.3271 181.4 32.3405 181.4C33.3538 181.4 34.2671 181.627 35.0805 182.08C35.8938 182.533 36.5271 183.167 36.9805 183.98C37.4471 184.793 37.6805 185.713 37.6805 186.74C37.6805 187.767 37.4471 188.687 36.9805 189.5C36.5271 190.313 35.8938 190.953 35.0805 191.42C34.2671 191.873 33.3538 192.1 32.3405 192.1ZM32.3405 190.84C33.0871 190.84 33.7538 190.673 34.3405 190.34C34.9405 189.993 35.4071 189.507 35.7405 188.88C36.0738 188.253 36.2405 187.54 36.2405 186.74C36.2405 185.94 36.0738 185.227 35.7405 184.6C35.4071 183.973 34.9405 183.493 34.3405 183.16C33.7538 182.813 33.0871 182.64 32.3405 182.64C31.5938 182.64 30.9205 182.813 30.3205 183.16C29.7338 183.493 29.2671 183.973 28.9205 184.6C28.5871 185.227 28.4205 185.94 28.4205 186.74C28.4205 187.54 28.5871 188.253 28.9205 188.88C29.2671 189.507 29.7338 189.993 30.3205 190.34C30.9205 190.673 31.5938 190.84 32.3405 190.84ZM44.5353 187.32H42.1353V192H40.7153V181.48H42.1353V186.1H44.5553L48.2553 181.48H49.7953L45.6553 186.58L50.0953 192H48.4153L44.5353 187.32ZM52.3364 181.48H53.7564V189.84L60.7764 181.48H62.0364V192H60.6164V183.64L53.6164 192H52.3364V181.48Z" fill="black"/>
<g clip-path="url(#clip0)">
<path d="M22.6666 34.7085C19.5415 34.7085 17 37.25 17 40.3752C17 43.5003 19.5415 46.0418 22.6666 46.0418C25.7918 46.0418 28.3333 43.5003 28.3333 40.3752C28.3333 37.25 25.7918 34.7085 22.6666 34.7085ZM22.6666 43.2085C21.104 43.2085 19.8333 41.9378 19.8333 40.3752C19.8333 38.8126 21.104 37.5418 22.6666 37.5418C24.2292 37.5418 25.5 38.8126 25.5 40.3752C25.5 41.9378 24.2292 43.2085 22.6666 43.2085Z" fill="url(#paint0_linear)"/>
<path d="M42.5 34.7085C39.3748 34.7085 36.8333 37.25 36.8333 40.3752C36.8333 43.5003 39.3748 46.0418 42.5 46.0418C45.6252 46.0418 48.1667 43.5003 48.1667 40.3752C48.1667 37.25 45.6252 34.7085 42.5 34.7085ZM42.5 43.2085C40.9374 43.2085 39.6667 41.9378 39.6667 40.3752C39.6667 38.8126 40.9374 37.5418 42.5 37.5418C44.0626 37.5418 45.3333 38.8126 45.3333 40.3752C45.3333 41.9378 44.0626 43.2085 42.5 43.2085Z" fill="url(#paint1_linear)"/>
<path d="M62.3333 34.7085C59.2081 34.7085 56.6666 37.25 56.6666 40.3752C56.6666 43.5003 59.2081 46.0418 62.3333 46.0418C65.4585 46.0418 68 43.5003 68 40.3752C68 37.25 65.4585 34.7085 62.3333 34.7085ZM62.3333 43.2085C60.7707 43.2085 59.5 41.9378 59.5 40.3752C59.5 38.8126 60.7707 37.5418 62.3333 37.5418C63.8959 37.5418 65.1666 38.8126 65.1666 40.3752C65.1666 41.9378 63.8959 43.2085 62.3333 43.2085Z" fill="url(#paint2_linear)"/>
<path d="M42.5 2.125C19.0655 2.125 3.79268e-05 19.2837 3.79268e-05 40.375C3.79268e-05 47.7473 2.33187 54.8887 6.7547 61.064C5.91745 70.3247 3.67345 77.1998 0.415121 80.4567C-0.0155454 80.8874 -0.123212 81.5462 0.148788 82.0902C0.389621 82.5761 0.885455 82.875 1.4167 82.875C1.48187 82.875 1.54704 82.8708 1.61362 82.8608C2.18737 82.7801 15.5154 80.8619 25.1558 75.2972C30.6298 77.5058 36.4608 78.625 42.5 78.625C65.9345 78.625 85 61.4663 85 40.375C85 19.2837 65.9345 2.125 42.5 2.125ZM42.5 75.7917C37.5601 75.7917 32.7732 74.9856 28.2271 73.4102C34 69.8034 34.0128 69.5484 34.0085 68.7126C34.0057 68.2182 33.738 67.7464 33.313 67.4928C32.6684 67.1061 31.8382 67.2902 31.4175 67.9037C30.6411 68.5199 27.3035 70.6591 24.3143 72.505H24.3129C17.986 76.3257 9.47187 78.4578 4.7487 79.4197C7.8682 74.2206 9.12762 66.691 9.62204 60.7764C9.65037 60.435 9.55404 60.095 9.35145 59.8173C5.08729 54.0359 2.83337 47.311 2.83337 40.375C2.83337 20.8463 20.6281 4.95833 42.5 4.95833C64.372 4.95833 82.1667 20.8463 82.1667 40.375C82.1667 59.9037 64.372 75.7917 42.5 75.7917Z" fill="url(#paint3_linear)"/>
</g>
<defs>
<linearGradient id="paint0_linear" x1="20.7577" y1="42.7747" x2="27.6729" y2="33.7259" gradientUnits="userSpaceOnUse">
<stop stop-color="#DBFF00"/>
<stop offset="1" stop-color="#00FF47" stop-opacity="0.62"/>
</linearGradient>
<linearGradient id="paint1_linear" x1="40.5911" y1="42.7747" x2="47.5063" y2="33.7259" gradientUnits="userSpaceOnUse">
<stop stop-color="#DBFF00"/>
<stop offset="1" stop-color="#00FF47" stop-opacity="0.62"/>
</linearGradient>
<linearGradient id="paint2_linear" x1="60.4244" y1="42.7747" x2="67.3396" y2="33.7259" gradientUnits="userSpaceOnUse">
<stop stop-color="#DBFF00"/>
<stop offset="1" stop-color="#00FF47" stop-opacity="0.62"/>
</linearGradient>
<linearGradient id="paint3_linear" x1="-5.5" y1="90" x2="71.6161" y2="-11.5032" gradientUnits="userSpaceOnUse">
<stop stop-color="#DBFF00"/>
<stop offset="1" stop-color="#00FF47" stop-opacity="0.62"/>
</linearGradient>
<clipPath id="clip0">
<rect width="85" height="85" fill="white"/>
</clipPath>
</defs>
</svg>
