<svg width="89" height="93" viewBox="0 0 89 93" fill="none" xmlns="http://www.w3.org/2000/svg">
<path d="M37.9375 92H22.8125V18.9375L0.5 26.5625V13.75L36 0.6875H37.9375V92ZM80 76C82.8333 76 85.0208 76.8125 86.5625 78.4375C88.1042 80.0208 88.875 82.0208 88.875 84.4375C88.875 86.8125 88.1042 88.7917 86.5625 90.375C85.0208 91.9167 82.8333 92.6875 80 92.6875C77.2917 92.6875 75.1458 91.9167 73.5625 90.375C71.9792 88.8333 71.1875 86.8542 71.1875 84.4375C71.1875 82.0208 71.9583 80.0208 73.5 78.4375C75.0417 76.8125 77.2083 76 80 76Z" fill="url(#paint0_linear)"/>
<defs>
<linearGradient id="paint0_linear" x1="26.1408" y1="79.7587" x2="120.874" y2="-10.3208" gradientUnits="userSpaceOnUse">
<stop stop-color="#DBFF00"/>
<stop offset="1" stop-color="#00FF47" stop-opacity="0.62"/>
</linearGradient>
</defs>
</svg>
