<svg width="94" height="94" viewBox="0 0 94 94" fill="none" xmlns="http://www.w3.org/2000/svg">
<path d="M63 93H1.8125V82.5625L32.125 49.5C36.5 44.625 39.6042 40.5625 41.4375 37.3125C43.3125 34.0208 44.25 30.7292 44.25 27.4375C44.25 23.1042 43.0208 19.6042 40.5625 16.9375C38.1458 14.2708 34.875 12.9375 30.75 12.9375C25.8333 12.9375 22.0208 14.4375 19.3125 17.4375C16.6042 20.4375 15.25 24.5417 15.25 29.75H0.0625C0.0625 24.2083 1.3125 19.2292 3.8125 14.8125C6.35417 10.3542 9.95833 6.89583 14.625 4.4375C19.3333 1.97917 24.75 0.75 30.875 0.75C39.7083 0.75 46.6667 2.97917 51.75 7.4375C56.875 11.8542 59.4375 17.9792 59.4375 25.8125C59.4375 30.3542 58.1458 35.125 55.5625 40.125C53.0208 45.0833 48.8333 50.7292 43 57.0625L20.75 80.875H63V93ZM85 77C87.8333 77 90.0208 77.8125 91.5625 79.4375C93.1042 81.0208 93.875 83.0208 93.875 85.4375C93.875 87.8125 93.1042 89.7917 91.5625 91.375C90.0208 92.9167 87.8333 93.6875 85 93.6875C82.2917 93.6875 80.1458 92.9167 78.5625 91.375C76.9792 89.8333 76.1875 87.8542 76.1875 85.4375C76.1875 83.0208 76.9583 81.0208 78.5 79.4375C80.0417 77.8125 82.2083 77 85 77Z" fill="url(#paint0_linear)"/>
<defs>
<linearGradient id="paint0_linear" x1="31.1408" y1="80.7587" x2="125.874" y2="-9.32076" gradientUnits="userSpaceOnUse">
<stop stop-color="#DBFF00"/>
<stop offset="1" stop-color="#00FF47" stop-opacity="0.62"/>
</linearGradient>
</defs>
</svg>
