<svg width="95" height="95" viewBox="0 0 95 95" fill="none" xmlns="http://www.w3.org/2000/svg">
<path d="M20.375 40.5625H29.625C34.2917 40.5208 37.9792 39.3125 40.6875 36.9375C43.4375 34.5625 44.8125 31.125 44.8125 26.625C44.8125 22.2917 43.6667 18.9375 41.375 16.5625C39.125 14.1458 35.6667 12.9375 31 12.9375C26.9167 12.9375 23.5625 14.125 20.9375 16.5C18.3125 18.8333 17 21.8958 17 25.6875H1.8125C1.8125 21.0208 3.04167 16.7708 5.5 12.9375C8 9.10417 11.4583 6.125 15.875 4C20.3333 1.83333 25.3125 0.75 30.8125 0.75C39.8958 0.75 47.0208 3.04167 52.1875 7.625C57.3958 12.1667 60 18.5 60 26.625C60 30.7083 58.6875 34.5625 56.0625 38.1875C53.4792 41.7708 50.125 44.4792 46 46.3125C51 48.0208 54.7917 50.7083 57.375 54.375C60 58.0417 61.3125 62.4167 61.3125 67.5C61.3125 75.6667 58.5 82.1667 52.875 87C47.2917 91.8333 39.9375 94.25 30.8125 94.25C22.0625 94.25 14.8958 91.9167 9.3125 87.25C3.72917 82.5833 0.9375 76.375 0.9375 68.625H16.125C16.125 72.625 17.4583 75.875 20.125 78.375C22.8333 80.875 26.4583 82.125 31 82.125C35.7083 82.125 39.4167 80.875 42.125 78.375C44.8333 75.875 46.1875 72.25 46.1875 67.5C46.1875 62.7083 44.7708 59.0208 41.9375 56.4375C39.1042 53.8542 34.8958 52.5625 29.3125 52.5625H20.375V40.5625ZM86 77C88.8333 77 91.0208 77.8125 92.5625 79.4375C94.1042 81.0208 94.875 83.0208 94.875 85.4375C94.875 87.8125 94.1042 89.7917 92.5625 91.375C91.0208 92.9167 88.8333 93.6875 86 93.6875C83.2917 93.6875 81.1458 92.9167 79.5625 91.375C77.9792 89.8333 77.1875 87.8542 77.1875 85.4375C77.1875 83.0208 77.9583 81.0208 79.5 79.4375C81.0417 77.8125 83.2083 77 86 77Z" fill="url(#paint0_linear)"/>
<defs>
<linearGradient id="paint0_linear" x1="32.1408" y1="80.7587" x2="126.874" y2="-9.32076" gradientUnits="userSpaceOnUse">
<stop stop-color="#DBFF00"/>
<stop offset="1" stop-color="#00FF47" stop-opacity="0.62"/>
</linearGradient>
</defs>
</svg>
