<svg width="96" height="92" viewBox="0 0 96 92" fill="none" xmlns="http://www.w3.org/2000/svg">
<path d="M55.1875 58.5625H66.5V70.75H55.1875V91H40V70.75H0.6875L0.25 61.5L39.5 0H55.1875V58.5625ZM16.1875 58.5625H40V20.5625L38.875 22.5625L16.1875 58.5625ZM87 75C89.8333 75 92.0208 75.8125 93.5625 77.4375C95.1042 79.0208 95.875 81.0208 95.875 83.4375C95.875 85.8125 95.1042 87.7917 93.5625 89.375C92.0208 90.9167 89.8333 91.6875 87 91.6875C84.2917 91.6875 82.1458 90.9167 80.5625 89.375C78.9792 87.8333 78.1875 85.8542 78.1875 83.4375C78.1875 81.0208 78.9583 79.0208 80.5 77.4375C82.0417 75.8125 84.2083 75 87 75Z" fill="url(#paint0_linear)"/>
<defs>
<linearGradient id="paint0_linear" x1="33.1408" y1="78.7587" x2="127.874" y2="-11.3208" gradientUnits="userSpaceOnUse">
<stop stop-color="#DBFF00"/>
<stop offset="1" stop-color="#00FF47" stop-opacity="0.62"/>
</linearGradient>
</defs>
</svg>
